<svg width="16" height="16" viewBox="0 0 16 16" fill="none" xmlns="http://www.w3.org/2000/svg">
<path d="M1 13H8.96846V9.03027H15V4H7.98457L6.69633 2.71149C6.22162 2.28559 5.6157 2.03458 4.97888 2H1.05128C1.02296 2 1 2.02296 1 2.05128V13Z" fill="#62B543" fill-opacity="0.8"/>
<path fill-rule="evenodd" clip-rule="evenodd" d="M10 16H16V10H10V16Z" fill="#231F20"/>
<path fill-rule="evenodd" clip-rule="evenodd" d="M11 15H14V14H11V15Z" fill="#E0E0E0"/>
<path fill-rule="evenodd" clip-rule="evenodd" d="M3 8V11H3.649C4.578 11 5 10.493 5 9.515V9.5C5 8.522 4.578 8 3.649 8H3ZM2 7H3.649C5.04 7 6 8.093 6 9.5C6 10.921 5.04 12 3.649 12H2V7Z" fill="#231F20" fill-opacity="0.7"/>
</svg>
