<svg width="16" height="16" viewBox="0 0 16 16" fill="none" xmlns="http://www.w3.org/2000/svg">
<path d="M1 13H10V9H15V4H7.98457L6.69633 2.71149C6.22162 2.28559 5.6157 2.03458 4.97888 2H1.05128C1.02296 2 1 2.02296 1 2.05128V13Z" fill="#F7DF1E"/>
<path fill-rule="evenodd" clip-rule="evenodd" d="M10 16H16V10H10V16Z" fill="#231F20"/>
<path fill-rule="evenodd" clip-rule="evenodd" d="M11 15H14V14H11V15Z" fill="#E0E0E0"/>
<path d="M6.49289 10.3521C6.71446 10.7138 7.00273 10.9798 7.51257 10.9798C7.94087 10.9798 8.21448 10.7657 8.21448 10.4699C8.21448 10.1155 7.93336 9.98994 7.46194 9.78373L7.20352 9.67286C6.45762 9.35508 5.96209 8.95698 5.96209 8.1154C5.96209 7.34016 6.55278 6.75 7.4759 6.75C8.13311 6.75 8.60559 6.97873 8.94606 7.57762L8.14114 8.09444C7.96392 7.77667 7.77273 7.65148 7.4759 7.65148C7.17314 7.65148 6.98125 7.84354 6.98125 8.09444C6.98125 8.40454 7.17332 8.53008 7.61681 8.72214L7.87522 8.83284C8.75348 9.20946 9.24935 9.59341 9.24935 10.4567C9.24935 11.3873 8.51829 11.8971 7.53649 11.8971C6.57652 11.8971 5.95633 11.4397 5.65287 10.8401L6.49289 10.3521ZM2.84141 10.4416C3.00379 10.7297 3.15151 10.9733 3.50665 10.9733C3.84625 10.9733 4.06049 10.8404 4.06049 10.3238V6.80902H5.09414V10.3377C5.09414 11.4081 4.46662 11.8952 3.55065 11.8952C2.72303 11.8952 2.24375 11.4669 2 10.951L2.84141 10.4416Z" fill="black"/>
</svg>
