<svg width="16" height="16" viewBox="0 0 16 16" fill="none" xmlns="http://www.w3.org/2000/svg">
<path d="M1 13H10V9H15V4H7.98457L6.69633 2.71149C6.22162 2.28559 5.6157 2.03458 4.97888 2H1.05128C1.02296 2 1 2.02296 1 2.05128V13Z" fill="#3178C6"/>
<path fill-rule="evenodd" clip-rule="evenodd" d="M5.85039 10.6429V11.7171C6.02441 11.8073 6.23711 11.8739 6.47343 11.9191C6.70976 11.9642 6.96758 11.9857 7.22539 11.9857C7.4832 11.9857 7.71953 11.962 7.95586 11.9126C8.19218 11.8632 8.38554 11.7816 8.55742 11.6763C8.73144 11.5624 8.87968 11.4185 8.96562 11.2251C9.05156 11.0318 9.11816 10.8169 9.11816 10.5376C9.11816 10.3421 9.08808 10.1724 9.03008 10.022C8.97207 9.8716 8.88828 9.7427 8.77226 9.63527C8.66269 9.52141 8.53593 9.42043 8.38554 9.33449C8.23515 9.24855 8.06328 9.15832 7.86992 9.07668C7.72812 9.01867 7.61211 8.96281 7.4832 8.90695C7.37148 8.85109 7.2748 8.79523 7.2039 8.73937C7.12441 8.68137 7.06425 8.62121 7.02129 8.55891C6.97832 8.49445 6.95683 8.42355 6.95683 8.34406C6.95683 8.27102 6.97595 8.20441 7.01484 8.14426C7.05373 8.0841 7.10722 8.03469 7.17597 7.99172C7.24472 7.94875 7.33066 7.91652 7.43379 7.89289C7.53476 7.86926 7.64648 7.85852 7.77754 7.85852C7.86777 7.85852 7.9623 7.86518 8.05683 7.87871C8.15566 7.89225 8.25664 7.91309 8.35761 7.94102C8.45859 7.96894 8.55742 8.00332 8.6584 8.04629C8.75293 8.08926 8.84101 8.13867 8.91621 8.19453V7.18477C8.75293 7.12246 8.57246 7.0752 8.3791 7.04512C8.18574 7.01504 7.9709 7 7.71308 7C7.45527 7 7.21894 7.02793 6.98261 7.08164C6.74629 7.13535 6.55293 7.22129 6.38105 7.33945C6.20703 7.45547 6.08027 7.59727 5.97285 7.79062C5.87187 7.97109 5.82246 8.17734 5.82246 8.43516C5.82246 8.75742 5.91484 9.03672 6.10176 9.25156C6.28652 9.48789 6.57441 9.65977 6.93965 9.83164C7.08789 9.8918 7.21894 9.95195 7.34785 10.01C7.47676 10.068 7.58418 10.1281 7.67011 10.1904C7.7625 10.2527 7.83554 10.3215 7.88496 10.3945C7.93867 10.4676 7.9666 10.5535 7.9666 10.6523C7.9666 10.7211 7.94984 10.7855 7.91718 10.8457C7.88453 10.9059 7.8334 10.9574 7.76465 11.0004C7.6959 11.0434 7.61211 11.0777 7.50683 11.1035C7.40586 11.1271 7.29199 11.14 7.1416 11.14C6.90527 11.14 6.66894 11.0992 6.4541 11.0176C6.21777 10.9359 6.00293 10.8135 5.80957 10.6523L5.85039 10.6429ZM4.0457 8.00031H5.4207V7.11945H1.575V8.00031H2.95V11.932H4.0457V8.00031Z" fill="white"/>
<path fill-rule="evenodd" clip-rule="evenodd" d="M10 16H16V10H10V16Z" fill="#231F20"/>
<path fill-rule="evenodd" clip-rule="evenodd" d="M11 15H14V14H11V15Z" fill="#E0E0E0"/>
</svg>
