<svg width="16" height="16" viewBox="0 0 16 16" fill="none" xmlns="http://www.w3.org/2000/svg">
<path fill-rule="evenodd" clip-rule="evenodd" d="M1 16H16V9H1V16Z" fill="#FE2857"/>
<path fill-rule="evenodd" clip-rule="evenodd" d="M7 1L3 5H7V1Z" fill="#9AA7B0" fill-opacity="0.8"/>
<path fill-rule="evenodd" clip-rule="evenodd" d="M8 1V6H3V8H13V1H8Z" fill="#9AA7B0" fill-opacity="0.8"/>
<path fill-rule="evenodd" clip-rule="evenodd" d="M7 12.501C7 11 7.931 10 9.256 10C10.2024 10 10.55 10.311 10.969 10.753L10.4267 11.4271C10.0767 11.0681 9.75 11 9.25 11C8.418 11 8 11.7379 8 12.487C8 13.2361 8.412 14 9.25 14C9.787 14 10.0517 13.8934 10.4267 13.5064L11 14.144C10.544 14.669 10.1973 15 9.225 15C7.949 15 7 14.002 7 12.501Z" fill="#231F20" fill-opacity="0.7"/>
<path d="M9.25 12V13H10.25V13.6744L10.4267 13.5064L11 14.144L11.25 13.7422V12H9.25Z" fill="#231F20" fill-opacity="0.7"/>
<path d="M10.25 13.6744C10.3071 13.6254 10.3654 13.5697 10.4267 13.5064L10.25 13.6744Z" fill="#231F20" fill-opacity="0.7"/>
<path fill-rule="evenodd" clip-rule="evenodd" d="M2.5 12.501C2.5 11 3.431 10 4.756 10C5.70239 10 6.05 10.311 6.469 10.753L5.9267 11.4271C5.5767 11.0681 5.25 11 4.75 11C3.918 11 3.5 11.7379 3.5 12.487C3.5 13.2361 3.912 14 4.75 14C5.287 14 5.5517 13.8934 5.9267 13.5064L6.5 14.144C6.044 14.669 5.69733 15 4.725 15C3.449 15 2.5 14.002 2.5 12.501Z" fill="#231F20" fill-opacity="0.7"/>
</svg>
