<svg width="16" height="16" viewBox="0 0 16 16" fill="none" xmlns="http://www.w3.org/2000/svg">
<path fill-rule="evenodd" clip-rule="evenodd" d="M1 16H16V9H1V16Z" fill="#F16529"/>
<path fill-rule="evenodd" clip-rule="evenodd" d="M7 1L3 5H7V1Z" fill="#9AA7B0" fill-opacity="0.8"/>
<path fill-rule="evenodd" clip-rule="evenodd" d="M8 1V6H3V8H13V1H8Z" fill="#9AA7B0" fill-opacity="0.8"/>
<path d="M2 10H4.50439V10.9974H3.09402L3.18629 12.0189H4.50439V13.0141H2.27241L2 10ZM2.31634 13.5149H3.3181L3.3884 14.3124L4.50439 14.6112V15.6525L2.45694 15.0813" fill="#EBEBEB"/>
<path d="M7 10H4.5V10.9974H6.90773L7 10ZM6.81766 12.0189H4.5V13.0163H5.73023L5.6138 14.3124L4.5 14.6112V15.6481L6.54306 15.0813" fill="white"/>
</svg>
