<svg width="16" height="16" viewBox="0 0 16 16" fill="none" xmlns="http://www.w3.org/2000/svg">
<path fill-rule="evenodd" clip-rule="evenodd" d="M1 16H16V9H1V16Z" fill="#F7DF1E"/>
<path fill-rule="evenodd" clip-rule="evenodd" d="M7 1L3 5H7V1Z" fill="#9AA7B0" fill-opacity="0.8"/>
<path fill-rule="evenodd" clip-rule="evenodd" d="M8 1V6H3V8H13V1H8Z" fill="#9AA7B0" fill-opacity="0.8"/>
<path fill-rule="evenodd" clip-rule="evenodd" d="M2.39509 13.5877C2.6244 13.8379 2.83783 14 3.28683 14C3.81318 14 4 13.5877 4 13.2976V10H5V13.5877C5 14.3196 4.32671 15 3.45 15C2.629 15 2.15 14.7626 1.8 14.3196L2.39509 13.5877Z" fill="black"/>
<path fill-rule="evenodd" clip-rule="evenodd" d="M6.97277 11.5015C6.97277 11.1331 7.284 11 7.845 11C7.85033 11 8.23533 11 9 11V10C8.26267 10 7.88267 10 7.86 10C6.778 10 6 10.4592 6 11.45C6 12.3145 6.41956 12.6905 7.47125 12.9161C8.24159 13.0813 8.49616 13.2286 8.49616 13.548C8.49616 13.8674 8.13843 14 7.47125 14C7.46059 14 7.07017 14 6.3 14V15C7.0755 15 7.46592 15 7.47125 15C9.5 15 9.5 14 9.5 13.548C9.5 12.9161 9.02026 12.4207 8.15869 12.1469C7.29712 11.873 6.97277 11.87 6.97277 11.5015Z" fill="black"/>
</svg>
