<svg width="16" height="16" viewBox="0 0 16 16" fill="none" xmlns="http://www.w3.org/2000/svg">
<path fill-rule="evenodd" clip-rule="evenodd" d="M1 16H16V9H1V16Z" fill="#3178C6"/>
<path fill-rule="evenodd" clip-rule="evenodd" d="M6.84539 13.6429V14.7171C7.01941 14.8073 7.23211 14.8739 7.46844 14.9191C7.70477 14.9642 7.96258 14.9857 8.22039 14.9857C8.4782 14.9857 8.71453 14.962 8.95086 14.9126C9.18719 14.8632 9.38055 14.7816 9.55242 14.6763C9.72645 14.5624 9.87469 14.4185 9.96062 14.2251C10.0466 14.0318 10.1132 13.8169 10.1132 13.5376C10.1132 13.3421 10.0831 13.1724 10.0251 13.022C9.96707 12.8716 9.88328 12.7427 9.76727 12.6353C9.65769 12.5214 9.53094 12.4204 9.38055 12.3345C9.23016 12.2486 9.05828 12.1583 8.86492 12.0767C8.72312 12.0187 8.60711 11.9628 8.4782 11.907C8.36648 11.8511 8.2698 11.7952 8.19891 11.7394C8.11941 11.6814 8.05926 11.6212 8.01629 11.5589C7.97332 11.4945 7.95184 11.4236 7.95184 11.3441C7.95184 11.271 7.97096 11.2044 8.00984 11.1443C8.04873 11.0841 8.10223 11.0347 8.17098 10.9917C8.23973 10.9488 8.32566 10.9165 8.42879 10.8929C8.52977 10.8693 8.64148 10.8585 8.77254 10.8585C8.86277 10.8585 8.9573 10.8652 9.05184 10.8787C9.15066 10.8922 9.25164 10.9131 9.35262 10.941C9.45359 10.9689 9.55242 11.0033 9.6534 11.0463C9.74793 11.0893 9.83602 11.1387 9.91121 11.1945V10.1848C9.74793 10.1225 9.56746 10.0752 9.3741 10.0451C9.18074 10.015 8.9659 10 8.70809 10C8.45027 10 8.21395 10.0279 7.97762 10.0816C7.74129 10.1354 7.54793 10.2213 7.37605 10.3395C7.20203 10.4555 7.07527 10.5973 6.96785 10.7906C6.86688 10.9711 6.81746 11.1773 6.81746 11.4352C6.81746 11.7574 6.90984 12.0367 7.09676 12.2516C7.28152 12.4879 7.56941 12.6598 7.93465 12.8316C8.08289 12.8918 8.21395 12.952 8.34285 13.01C8.47176 13.068 8.57918 13.1281 8.66512 13.1904C8.7575 13.2527 8.83055 13.3215 8.87996 13.3945C8.93367 13.4676 8.9616 13.5535 8.9616 13.6523C8.9616 13.7211 8.94484 13.7855 8.91219 13.8457C8.87953 13.9059 8.8284 13.9574 8.75965 14.0004C8.6909 14.0434 8.60711 14.0777 8.50184 14.1035C8.40086 14.1271 8.28699 14.14 8.1366 14.14C7.90027 14.14 7.66395 14.0992 7.4491 14.0176C7.21277 13.9359 6.99793 13.8135 6.80457 13.6523L6.84539 13.6429ZM5.0407 11.0003H6.4157V10.1195H2.57V11.0003H3.945V14.932H5.0407V11.0003Z" fill="white"/>
<path fill-rule="evenodd" clip-rule="evenodd" d="M7 1L3 5H7V1Z" fill="#9AA7B0" fill-opacity="0.8"/>
<path fill-rule="evenodd" clip-rule="evenodd" d="M8 1V6H3V8H13V1H8Z" fill="#9AA7B0" fill-opacity="0.8"/>
</svg>
