<svg width="16" height="16" viewBox="0 0 16 16" fill="none" xmlns="http://www.w3.org/2000/svg">
<g clip-path="url(#clip0_1252_19331)">
<path fill-rule="evenodd" clip-rule="evenodd" d="M16 3L16 12C16 12.5523 15.5523 13 15 13L11 13L11 14L5 14L5 13L1 13C0.447714 13 -4.61255e-07 12.5523 -4.37114e-07 12L-4.37114e-08 3C-1.95703e-08 2.44772 0.447715 2 1 2L15 2C15.5523 2 16 2.44772 16 3ZM1 3L15 3L15 12L1 12L1 3Z" fill="#AFB1B3"/>
</g>
<defs>
<clipPath id="clip0_1252_19331">
<rect width="16" height="16" fill="white"/>
</clipPath>
</defs>
</svg>
