<svg width="16" height="16" viewBox="0 0 16 16" fill="none" xmlns="http://www.w3.org/2000/svg">
<path d="M1 13H15V4H7.98457L6.69633 2.71149C6.22162 2.28559 5.6157 2.03458 4.97888 2H1.05128C1.02296 2 1 2.02296 1 2.05128V13Z" fill="#F16529"/>
<path d="M2 5H5.00527V6.19684H3.31283L3.42355 7.42267H5.00527V8.61687H2.32689L2 5ZM2.37961 9.21793H3.58172L3.66608 10.1749L5.00527 10.5334V11.783L2.54833 11.0975" fill="#EBEBEB"/>
<path d="M8 5H5V6.19684H7.88928L8 5ZM7.78119 7.42267H5V8.61951H6.47627L6.33656 10.1749L5 10.5334V11.7777L7.45167 11.0975" fill="white"/>
</svg>
