<svg width="16" height="16" viewBox="0 0 16 16" fill="none" xmlns="http://www.w3.org/2000/svg">
<path d="M1 13H15V4H7.98457L6.69633 2.71149C6.22162 2.28559 5.6157 2.03458 4.97888 2H1.05128C1.02296 2 1 2.02296 1 2.05128V13Z" fill="#F7DF1E"/>
<path d="M6.49289 10.6021C6.71446 10.9638 7.00273 11.2298 7.51257 11.2298C7.94087 11.2298 8.21448 11.0157 8.21448 10.7199C8.21448 10.3655 7.93336 10.2399 7.46194 10.0337L7.20352 9.92286C6.45762 9.60508 5.96209 9.20698 5.96209 8.3654C5.96209 7.59016 6.55278 7 7.4759 7C8.13311 7 8.60559 7.22873 8.94606 7.82762L8.14114 8.34444C7.96392 8.02667 7.77273 7.90148 7.4759 7.90148C7.17314 7.90148 6.98125 8.09354 6.98125 8.34444C6.98125 8.65454 7.17332 8.78008 7.61681 8.97214L7.87522 9.08284C8.75348 9.45946 9.24935 9.84341 9.24935 10.7067C9.24935 11.6373 8.51829 12.1471 7.53649 12.1471C6.57652 12.1471 5.95633 11.6897 5.65287 11.0901L6.49289 10.6021ZM2.84141 10.6916C3.00379 10.9797 3.15151 11.2233 3.50665 11.2233C3.84625 11.2233 4.06049 11.0904 4.06049 10.5738V7.05902H5.09414V10.5877C5.09414 11.6581 4.46662 12.1452 3.55065 12.1452C2.72303 12.1452 2.24375 11.7169 2 11.201L2.84141 10.6916Z" fill="black"/>
</svg>
