<svg width="16" height="16" viewBox="0 0 16 16" fill="none" xmlns="http://www.w3.org/2000/svg">
<path d="M1 13H15V4H7.98457L6.69633 2.71149C6.22162 2.28559 5.6157 2.03458 4.97888 2H1.05128C1.02296 2 1 2.02296 1 2.05128V13Z" fill="#3178C6"/>
<path fill-rule="evenodd" clip-rule="evenodd" d="M5.84539 10.6429V11.7171C6.01941 11.8073 6.23211 11.8739 6.46844 11.9191C6.70477 11.9642 6.96258 11.9857 7.22039 11.9857C7.4782 11.9857 7.71453 11.962 7.95086 11.9126C8.18719 11.8632 8.38055 11.7816 8.55242 11.6763C8.72645 11.5624 8.87469 11.4185 8.96062 11.2251C9.04656 11.0318 9.11316 10.8169 9.11316 10.5376C9.11316 10.3421 9.08309 10.1724 9.02508 10.022C8.96707 9.8716 8.88328 9.7427 8.76727 9.63527C8.65769 9.52141 8.53094 9.42043 8.38055 9.33449C8.23016 9.24855 8.05828 9.15832 7.86492 9.07668C7.72312 9.01867 7.60711 8.96281 7.4782 8.90695C7.36648 8.85109 7.2698 8.79523 7.19891 8.73937C7.11941 8.68137 7.05926 8.62121 7.01629 8.55891C6.97332 8.49445 6.95184 8.42355 6.95184 8.34406C6.95184 8.27102 6.97096 8.20441 7.00984 8.14426C7.04873 8.0841 7.10223 8.03469 7.17098 7.99172C7.23973 7.94875 7.32566 7.91652 7.42879 7.89289C7.52977 7.86926 7.64148 7.85852 7.77254 7.85852C7.86277 7.85852 7.9573 7.86518 8.05184 7.87871C8.15066 7.89225 8.25164 7.91309 8.35262 7.94102C8.45359 7.96894 8.55242 8.00332 8.6534 8.04629C8.74793 8.08926 8.83602 8.13867 8.91121 8.19453V7.18477C8.74793 7.12246 8.56746 7.0752 8.3741 7.04512C8.18074 7.01504 7.9659 7 7.70809 7C7.45027 7 7.21395 7.02793 6.97762 7.08164C6.74129 7.13535 6.54793 7.22129 6.37605 7.33945C6.20203 7.45547 6.07527 7.59727 5.96785 7.79062C5.86688 7.97109 5.81746 8.17734 5.81746 8.43516C5.81746 8.75742 5.90984 9.03672 6.09676 9.25156C6.28152 9.48789 6.56941 9.65977 6.93465 9.83164C7.08289 9.8918 7.21395 9.95195 7.34285 10.01C7.47176 10.068 7.57918 10.1281 7.66512 10.1904C7.7575 10.2527 7.83055 10.3215 7.87996 10.3945C7.93367 10.4676 7.9616 10.5535 7.9616 10.6523C7.9616 10.7211 7.94484 10.7855 7.91219 10.8457C7.87953 10.9059 7.8284 10.9574 7.75965 11.0004C7.6909 11.0434 7.60711 11.0777 7.50184 11.1035C7.40086 11.1271 7.28699 11.14 7.1366 11.14C6.90027 11.14 6.66395 11.0992 6.4491 11.0176C6.21277 10.9359 5.99793 10.8135 5.80457 10.6523L5.84539 10.6429ZM4.0407 8.00031H5.4157V7.11945H1.57V8.00031H2.945V11.932H4.0407V8.00031Z" fill="white"/>
</svg>
