<svg width="16" height="16" viewBox="0 0 16 16" fill="none" xmlns="http://www.w3.org/2000/svg">
<path d="M7 13H15V4H7.98457L6.69633 2.71149C6.22162 2.28559 5.6157 2.03458 4.97888 2H1.05128C1.02296 2 1 2.02296 1 2.05128V7H7V13Z" fill="#654FF0"/>
<rect x="2" y="7" width="4" height="5" fill="white"/>
<path fill-rule="evenodd" clip-rule="evenodd" d="M0.999998 7L0.999991 13L6.99999 13L7 7L5 7C5 7 5 8 4 8C3 8 3 7 3 7L0.999998 7ZM5.06399 12L5.99999 12L5.99999 8L4.99999 8L4.99999 10.3L3.99999 8.5L2.99999 10.3L2.99999 8L1.99999 8L1.99999 12L3.02099 12L3.99999 10L5.06399 12Z" fill="#654FF0"/>
<path fill-rule="evenodd" clip-rule="evenodd" d="M0.999998 7L0.999991 13L6.99999 13L7 7L5 7C5 7 5 8 4 8C3 8 3 7 3 7L0.999998 7ZM5.06399 12L5.99999 12L5.99999 8L4.99999 8L4.99999 10.3L3.99999 8.5L2.99999 10.3L2.99999 8L1.99999 8L1.99999 12L3.02099 12L3.99999 10L5.06399 12Z" fill="#654FF0"/>
</svg>
