<svg width="16" height="16" viewBox="0 0 16 16" fill="none" xmlns="http://www.w3.org/2000/svg">
    <path fill-rule="evenodd" clip-rule="evenodd" d="M1 16H16V9H1V16Z" fill="#F26522" fill-opacity="0.7"/>
    <path fill-rule="evenodd" clip-rule="evenodd" d="M7 1L3 5H7V1Z" fill="#9AA7B0" fill-opacity="0.8"/>
    <path fill-rule="evenodd" clip-rule="evenodd" d="M8 1V6H3V8H13V1H8Z" fill="#9AA7B0" fill-opacity="0.8"/>
    <path fill-rule="evenodd" clip-rule="evenodd" d="M2.04584 15V10H3.86404C4.45244 10 4.85317 10.2056 5.03739 10.4856C5.22162 10.7656 5.31041 11.3261 5.19037 11.5649C5.07033 11.8037 4.83883 11.9972 4.83883 11.9972C4.83883 11.9972 5.11512 12.147 5.23616 12.2734C5.3572 12.3999 5.57524 12.671 5.64349 13.1406C5.71174 13.6103 5.48303 14.2715 5.19037 14.5547C4.89771 14.8379 4.45244 15 3.86404 15H3.06404H2.04584ZM3.86404 11.8939H3.06404V10.8169H3.86404C4.1926 10.8777 4.33798 11.1237 4.33798 11.3261C4.33798 11.5284 4.22903 11.7543 3.86404 11.8939ZM3.86404 13.9791H3.06404V12.6129H3.71722C4.04578 12.6493 4.60443 12.9114 4.60443 13.3086C4.60443 13.7057 4.28975 13.9123 3.86404 13.9791Z" fill="#513123"/>
    <path fill-rule="evenodd" clip-rule="evenodd" d="M9.15 13L8.49612 11.4L7.85 13H9.15ZM8.109 10H8.89L11 15H9.9L9.4 14H7.6L7.1 15H6L8.109 10Z" fill="#231F20" fill-opacity="0.7"/>
</svg>
