<svg width="16" height="16" viewBox="0 0 16 16" fill="none" xmlns="http://www.w3.org/2000/svg">
<rect y="2" width="16" height="13" fill="#8F9297"/>
<rect x="1" y="5" width="14" height="9" fill="black"/>
<rect x="1" y="3" width="14" height="1" fill="#D3D9E0"/>
<rect x="1" y="4" width="14" height="1" fill="#CACCCD"/>
<rect x="14" y="3" width="1" height="1" fill="#687991"/>
<rect x="12" y="3" width="1" height="1" fill="#687991"/>
<rect x="10" y="3" width="1" height="1" fill="#687991"/>
<rect x="2" y="8" width="1" height="3" fill="white"/>
<rect x="3" y="7" width="2" height="1" fill="white"/>
<rect x="3" y="11" width="2" height="1" fill="white"/>
<rect x="5" y="10" width="1" height="1" fill="white"/>
<rect x="5" y="8" width="1" height="1" fill="white"/>
<rect x="7" y="10" width="1" height="1" fill="white"/>
<rect x="7" y="8" width="1" height="1" fill="white"/>
<rect x="9" y="7" width="1" height="3" fill="white"/>
<rect x="10" y="9" width="1" height="3" fill="white"/>
<rect x="12" y="11" width="2" height="1" fill="white"/>
</svg>
