<svg width="16" height="16" viewBox="0 0 16 16" fill="none" xmlns="http://www.w3.org/2000/svg">
<path d="M16 0H0V16H16V0Z" fill="#FE2857"/>
<path d="M1 1H15V15H1V1Z" fill="black"/>
<path d="M2.5 6.1C2.5 4.4 3.8 3 5.6 3C6.7 3 7.4 3.4 8 3.9L7.2 4.9C6.7 4.5 6.2 4.2 5.6 4.2C4.6 4.2 3.9 5 3.9 6.1C3.9 7.1 4.6 8 5.6 8C6.3 8 6.7 7.7 7.2 7.3L8 8.1C7.4 8.8 6.7 9.2 5.6 9.2C3.8 9.2 2.5 7.8 2.5 6.1Z" fill="white"/>
<path d="M8 6.1C8 4.4 9.3 3 11.1 3C12.2 3 12.9 3.4 13.5 3.9L12.7 4.9C12.2 4.5 11.7 4.2 11.1 4.2C10.1 4.2 9.4 5 9.4 6.1C9.4 7.1 10.1 8 11.1 8C11.8 8 12.2 7.7 12.7 7.3L13.5 8.1C12.9 8.8 12.2 9.2 11.1 9.2C9.3 9.2 8 7.8 8 6.1Z" fill="white"/>
<path d="M3 12H9V13H3V12Z" fill="white"/>
<rect x="11.13" y="5.56" width="2.37" height="1.16" fill="white"/>
<rect x="12.2999" y="6.14008" width="1.2" height="1.96" fill="white"/>
</svg>
