<svg width="16" height="16" viewBox="0 0 16 16" fill="none" xmlns="http://www.w3.org/2000/svg">
<path d="M1 12V4H7V6H3V7H6V9H3V10H7V12L1 12Z" fill="#AFB1B3"/>
<path fill-rule="evenodd" clip-rule="evenodd" d="M11 5L12 4H14L15 5V12H13V6H12L11 7L11.008 12H9V4H10L11 5Z" fill="#AFB1B3"/>
<path d="M7.89747 1C5.99153 1 4.26271 1.76299 3 3H9.99747V2.813C10.1335 2.86826 10.267 2.9287 10.3975 2.99407H12.7889C11.5267 1.76056 9.80037 1 7.89747 1Z" fill="#C4C4C4"/>
<path d="M3 13C4.26271 14.237 5.99153 15 7.89747 15C9.80342 15 11.5322 14.237 12.7949 13H7.19747V13.551C6.55086 13.4708 5.9387 13.2807 5.38024 13H3Z" fill="#C4C4C4"/>
</svg>
