<svg width="16" height="16" viewBox="0 0 16 16" fill="none" xmlns="http://www.w3.org/2000/svg">
<path fill-rule="evenodd" clip-rule="evenodd" d="M6.84135 9.90453H3.35508L2.62569 12H1L4.39973 3H5.80288L9.20879 12H7.57692L6.84135 9.90453ZM3.79396 8.64354H6.40247L5.09821 4.91003L3.79396 8.64354ZM15.7376 8.82586C15.7376 9.84052 15.5112 10.6478 15.0582 11.2478C14.6052 11.8477 13.9821 12.1477 13.1889 12.1477C12.4239 12.1477 11.828 11.8718 11.4012 11.3202L11.3287 12.0269H10V2.75H11.4676V6.12011C11.8904 5.62083 12.4601 5.3712 13.1768 5.3712C13.9741 5.3712 14.6002 5.66714 15.0552 6.25902C15.5102 6.85091 15.7376 7.67833 15.7376 8.74131V8.82586ZM14.2743 8.69802C14.2743 7.98936 14.1495 7.45788 13.8999 7.10355C13.6502 6.74923 13.2878 6.57207 12.8127 6.57207C12.1765 6.57207 11.7296 6.84989 11.4719 7.40554V10.0992C11.7336 10.6669 12.1846 10.9508 12.8248 10.9508C13.2838 10.9508 13.6381 10.7797 13.8878 10.4374C14.1374 10.0952 14.2663 9.57779 14.2743 8.88524V8.69802Z" fill="#9AA7B0" fill-opacity="0.8"/>
</svg>
