<svg width="16" height="16" viewBox="0 0 16 16" fill="none" xmlns="http://www.w3.org/2000/svg">
    <path fill-rule="evenodd" clip-rule="evenodd" d="M14.1816 10.0015L12.7034 8.94093C12.7639 8.63666 12.7956 8.32203 12.7956 8C12.7956 7.67797 12.7639 7.36334 12.7034 7.05907L14.1816 5.9985C13.8971 5.11859 13.4301 4.32076 12.8252 3.64965L11.1676 4.39741C10.6959 3.9817 10.1418 3.6572 9.53301 3.4515L9.35241 1.64182C8.91479 1.54889 8.4609 1.5 7.99559 1.5C7.53027 1.5 7.07638 1.54889 6.63876 1.64182L6.45816 3.4515C5.84937 3.6572 5.2953 3.9817 4.82353 4.39741L3.16597 3.64965C2.56107 4.32076 2.09406 5.11859 1.80957 5.9985L3.28777 7.05907C3.2273 7.36334 3.19559 7.67797 3.19559 8C3.19559 8.32203 3.2273 8.63666 3.28777 8.94093L1.80957 10.0015C2.09406 10.8814 2.56107 11.6792 3.16597 12.3503L4.82353 11.6026C5.2953 12.0183 5.84937 12.3428 6.45816 12.5485L6.63876 14.3582C7.07638 14.4511 7.53027 14.5 7.99559 14.5C8.4609 14.5 8.91479 14.4511 9.35241 14.3582L9.53301 12.5485C10.1418 12.3428 10.6959 12.0183 11.1676 11.6026L12.8252 12.3503C13.4301 11.6792 13.8971 10.8814 14.1816 10.0015ZM10.2956 8.0002C10.2956 9.27056 9.26584 10.3004 7.99559 10.3004C6.72533 10.3004 5.69559 9.27056 5.69559 8.0002C5.69559 6.72983 6.72533 5.7 7.99559 5.7C9.26584 5.7 10.2956 6.72983 10.2956 8.0002Z" fill="#7F8B91" fill-opacity="0.5"/>
</svg>
