<svg width="16" height="16" viewBox="0 0 16 16" fill="none" xmlns="http://www.w3.org/2000/svg">
<path d="M10.8279 9.17227L9.27228 10.7279L13.686 15.1417L15.2417 13.586L10.8279 9.17227Z" fill="#9AA7B0"/>
<path fill-rule="evenodd" clip-rule="evenodd" d="M6.75 12.5C3.57436 12.5 1 9.92564 1 6.75C1 3.57436 3.57436 1 6.75 1C9.92564 1 12.5 3.57436 12.5 6.75C12.5 9.92564 9.92564 12.5 6.75 12.5ZM6.75 10.5C8.82107 10.5 10.5 8.82107 10.5 6.75C10.5 4.67893 8.82107 3 6.75 3C4.67893 3 3 4.67893 3 6.75C3 8.82107 4.67893 10.5 6.75 10.5Z" fill="#9AA7B0"/>
</svg>
