<svg width="141" height="96" viewBox="0 0 141 96" fill="none" xmlns="http://www.w3.org/2000/svg">
    <path d="M3.91227 26.814C3.91227 26.814 3.47535 24.5318 5.00467 23.771" stroke="black" stroke-width="2" stroke-linecap="round"/>
    <path d="M30.5661 2.21582C30.5661 2.21582 6.5335 12.1057 1.50851 20.4741C-0.238992 26.3066 2.81923 33.6607 6.09769 38.986C15.4911 38.2252 17.6759 36.4501 24.6672 35.9429C32.751 41.0147 34.6547 45.9194 43 53.5C48.025 58.0646 48.806 57.7955 49.5962 62.591C53.7129 87.5739 43.563 88.9426 44 93C47.5966 93.496 50.6598 94.0287 53.5 92C52.4451 87.1022 58 74.5 62.5 70C63.5 62.5 67.9321 61.604 71.5 58" stroke="black" stroke-width="2" stroke-linecap="round"/>
    <path d="M19 16.043C19 16.043 20.5 14.5 23.8066 13" stroke="black" stroke-width="3" stroke-linecap="round"/>
    <path d="M29.0371 6.52629C29.1 4.67766 29.6448 3.2548 30.7849 1.96188C34.4991 -0.827365 37.1724 2.99015 36.9024 6.52629C36.6941 9.25468 34.6692 11.2692 32.3143 11.0909" stroke="black" stroke-width="2" stroke-linecap="round"/>
    <path d="M37.1211 3.99072C44.5494 3.99072 52.1962 10.5157 59.406 10.8376C70.767 11.3448 93.1029 4.65183 104.027 7.26821C117.791 10.5648 124.458 20.756 132.778 34.256C136.278 39.9347 141.824 53.9259 138.984 59.7584C135.692 66.5184 138.984 77.4867 137.891 80.5526C132.429 87.1459 124.458 94.5 124.458 94.5C124.458 94.5 118.996 94.5 115.5 94.5C115.5 88.1603 122.161 90.4425 128.278 77.256C112 73.5 104.027 50 104.027 50" stroke="black" stroke-width="2" stroke-linecap="round"/>
    <path d="M71.5 59.5C78.5 65 101 65.0002 101 65.0002" stroke="black" stroke-width="2" stroke-linecap="round"/>
    <path d="M66.399 63.105C66.399 63.105 66.3446 66.4283 67 71.5C64 84.5 60.7185 88.4637 60.5 90.9996C62.9033 91.7604 64.4326 91.7604 66.399 91.2532C76.2305 64.8801 78.6338 75.0236 78.4153 63.105" stroke="black" stroke-width="2" stroke-linecap="round"/>
    <path d="M120.5 74.5C115.5 81.5 115.5 81 114 87C114 90 110.439 92.5811 110.439 92.5811C110.439 92.5811 103.901 92.8346 101.061 92.5811C100.405 89.0308 109 90 110.439 75.5C102 68.5 100.5 64 100.5 64" stroke="black" stroke-width="2" stroke-linecap="round"/>
</svg>
