<svg width="137" height="94" viewBox="0 0 137 94" fill="none" xmlns="http://www.w3.org/2000/svg">
    <path d="M3.91227 26.814C3.91227 26.814 3.47535 24.5318 5.00467 23.771" stroke="black" stroke-width="2" stroke-linecap="round"/>
    <path d="M30.5661 2.21582C30.5661 2.21582 6.5335 12.1057 1.50851 20.4741C-0.238992 26.3066 2.81923 33.6607 6.09769 38.986C15.4911 38.2252 17.6759 36.4501 24.6672 35.9429C32.751 41.0147 37.5145 48.1422 45.8597 55.7228C50.8848 60.2873 57.6564 60.4857 63.7751 61.5C70.5 77.5 61 72.1768 52.5 75.1768C50.5 78.6768 57 82 60 81.5C76 82.5 76.2289 77.0241 79.2871 52.4261" stroke="black" stroke-width="2" stroke-linecap="round"/>
    <path d="M19 16.043C19 16.043 20.5 14.5 23.8066 13" stroke="black" stroke-width="3" stroke-linecap="round"/>
    <path d="M29.0371 6.52629C29.1 4.67766 29.6448 3.2548 30.7849 1.96188C34.4991 -0.827365 37.1724 2.99015 36.9024 6.52629C36.6941 9.25468 34.6692 11.2692 32.3143 11.0909" stroke="black" stroke-width="2" stroke-linecap="round"/>
    <path d="M37.1211 3.99072C44.5494 3.99072 52.1962 10.5157 59.406 10.8376C70.767 11.3448 99.8248 2.89587 110.749 5.51225C124.513 8.80888 134.563 21.9954 135 35.9427C133.908 45.8326 125.824 52.4259 122.984 58.2584C119.692 65.0184 122.984 75.9867 121.891 79.0526C116.429 85.6459 108.458 93 108.458 93C108.458 93 102.996 93 99.5 93C99.5 86.6603 106.161 88.9425 112.278 75.756C100.043 68.1483 93.2704 48.8757 93.2704 48.8757" stroke="black" stroke-width="2" stroke-linecap="round"/>
    <path d="M78 64.0039C86.6514 61.2643 101 65 101 65" stroke="black" stroke-width="2" stroke-linecap="round"/>
    <path d="M40.1797 50.144C40.1797 50.144 44.1125 58.766 44.768 63.8378C49.5 83 46.2185 86.9142 46 89.4501C48.4033 90.2109 51.5338 89.9573 53.5001 89.4501C55 83.5 55 83 55 81" stroke="black" stroke-width="2" stroke-linecap="round"/>
    <path d="M57.5 60.5L55.5 74" stroke="black" stroke-width="2"/>
    <path d="M109.5 92.5C112.34 92.7536 114 92.5 114 92.5C114 92.5 125.5 81 126.85 75.9739C126.631 70.1414 123.858 60.5409 127.354 51.9189" stroke="black" stroke-width="2" stroke-linecap="round"/>
</svg>
