<svg width="141" height="96" viewBox="0 0 141 96" fill="none" xmlns="http://www.w3.org/2000/svg">
    <svg width="137" height="94" viewBox="0 0 137 94" fill="none" xmlns="http://www.w3.org/2000/svg">
        <animate attributeName="opacity"
                 attributeType="XML"
                 values="1; 0; 0"
                 dur="0.5s"
                 calcMode="discrete"
                 repeatCount="indefinite"/>
        <path d="M3.91227 26.814C3.91227 26.814 3.47535 24.5318 5.00467 23.771" stroke="black" stroke-width="2" stroke-linecap="round"/>
        <path d="M30.5661 2.21582C30.5661 2.21582 6.5335 12.1057 1.50851 20.4741C-0.238992 26.3066 2.81923 33.6607 6.09769 38.986C15.4911 38.2252 17.6759 36.4501 24.6672 35.9429C32.751 41.0147 37.5145 48.1422 45.8597 55.7228C50.8848 60.2873 57.6564 61.8089 63.7751 62.8232C72 86.5 65.7419 87.6748 66.1789 91.7322C69.7755 92.2282 71.4224 93.0001 74.2626 90.9714C72.5148 82.8566 76.2289 77.0241 79.2871 52.4261" stroke="black" stroke-width="2" stroke-linecap="round"/>
        <path d="M19 16.043C19 16.043 20.5 14.5 23.8066 13" stroke="black" stroke-width="3" stroke-linecap="round"/>
        <path d="M29.0371 6.52629C29.1 4.67766 29.6448 3.2548 30.7849 1.96188C34.4991 -0.827365 37.1724 2.99015 36.9024 6.52629C36.6941 9.25468 34.6692 11.2692 32.3143 11.0909" stroke="black" stroke-width="2" stroke-linecap="round"/>
        <path d="M37.1211 3.99072C44.5494 3.99072 52.1962 10.5157 59.406 10.8376C70.767 11.3448 99.8248 2.89587 110.749 5.51225C124.513 8.80888 134.563 21.9954 135 35.9427C133.908 45.8326 125.824 52.4259 122.984 58.2584C119.692 65.0184 122.984 75.9867 121.891 79.0526C116.429 85.6459 108.458 93 108.458 93C108.458 93 102.996 93 99.5 93C99.5 86.6603 106.161 88.9425 112.278 75.756C100.043 68.1483 93.2704 48.8757 93.2704 48.8757" stroke="black" stroke-width="2" stroke-linecap="round"/>
        <path d="M78 64.0039C86.6514 61.2643 101 65 101 65" stroke="black" stroke-width="2" stroke-linecap="round"/>
        <path d="M40.1796 50.144C40.1796 50.144 44.1124 58.766 44.7679 63.8378C44.3311 82.0961 39.3059 86.9142 39.0874 89.4501C41.4907 90.2109 43.02 90.2109 44.9864 89.7037C54.8179 63.3306 57.2212 73.4741 57.0027 61.5555" stroke="black" stroke-width="2" stroke-linecap="round"/>
        <path d="M119.051 82.8566C119.051 82.8566 114.168 88.9498 114.824 92.5C117.664 92.7536 124 92.5 124 92.5C124 92.5 128.883 81.3351 130.849 73.4739C130.631 67.6414 123.858 60.5409 127.354 51.9189" stroke="black" stroke-width="2" stroke-linecap="round"/>
    </svg>
    <svg width="137" height="94" viewBox="0 0 137 94" fill="none" xmlns="http://www.w3.org/2000/svg" opacity="0">
        <animate attributeName="opacity"
                 attributeType="XML"
                 values="0; 1; 0"
                 dur="0.5s"
                 calcMode="discrete"
                 repeatCount="indefinite"/>
        <path d="M3.91227 26.814C3.91227 26.814 3.47535 24.5318 5.00467 23.771" stroke="black" stroke-width="2" stroke-linecap="round"/>
        <path d="M30.5661 2.21582C30.5661 2.21582 6.5335 12.1057 1.50851 20.4741C-0.238992 26.3066 2.81923 33.6607 6.09769 38.986C15.4911 38.2252 17.6759 36.4501 24.6672 35.9429C32.751 41.0147 37.5145 48.1422 45.8597 55.7228C50.8848 60.2873 57.6564 60.4857 63.7751 61.5C70.5 77.5 61 72.1768 52.5 75.1768C50.5 78.6768 57 82 60 81.5C76 82.5 76.2289 77.0241 79.2871 52.4261" stroke="black" stroke-width="2" stroke-linecap="round"/>
        <path d="M19 16.043C19 16.043 20.5 14.5 23.8066 13" stroke="black" stroke-width="3" stroke-linecap="round"/>
        <path d="M29.0371 6.52629C29.1 4.67766 29.6448 3.2548 30.7849 1.96188C34.4991 -0.827365 37.1724 2.99015 36.9024 6.52629C36.6941 9.25468 34.6692 11.2692 32.3143 11.0909" stroke="black" stroke-width="2" stroke-linecap="round"/>
        <path d="M37.1211 3.99072C44.5494 3.99072 52.1962 10.5157 59.406 10.8376C70.767 11.3448 99.8248 2.89587 110.749 5.51225C124.513 8.80888 134.563 21.9954 135 35.9427C133.908 45.8326 125.824 52.4259 122.984 58.2584C119.692 65.0184 122.984 75.9867 121.891 79.0526C116.429 85.6459 108.458 93 108.458 93C108.458 93 102.996 93 99.5 93C99.5 86.6603 106.161 88.9425 112.278 75.756C100.043 68.1483 93.2704 48.8757 93.2704 48.8757" stroke="black" stroke-width="2" stroke-linecap="round"/>
        <path d="M78 64.0039C86.6514 61.2643 101 65 101 65" stroke="black" stroke-width="2" stroke-linecap="round"/>
        <path d="M40.1797 50.144C40.1797 50.144 44.1125 58.766 44.768 63.8378C49.5 83 46.2185 86.9142 46 89.4501C48.4033 90.2109 51.5338 89.9573 53.5001 89.4501C55 83.5 55 83 55 81" stroke="black" stroke-width="2" stroke-linecap="round"/>
        <path d="M57.5 60.5L55.5 74" stroke="black" stroke-width="2"/>
        <path d="M109.5 92.5C112.34 92.7536 114 92.5 114 92.5C114 92.5 125.5 81 126.85 75.9739C126.631 70.1414 123.858 60.5409 127.354 51.9189" stroke="black" stroke-width="2" stroke-linecap="round"/>
    </svg>
    <svg width="141" height="96" viewBox="0 0 141 96" fill="none" xmlns="http://www.w3.org/2000/svg" opacity="0">
        <animate attributeName="opacity"
                 attributeType="XML"
                 values="0; 0; 1"
                 dur="0.5s"
                 calcMode="discrete"
                 repeatCount="indefinite"/>
            <path d="M3.91227 26.814C3.91227 26.814 3.47535 24.5318 5.00467 23.771" stroke="black" stroke-width="2" stroke-linecap="round"/>
            <path d="M30.5661 2.21582C30.5661 2.21582 6.5335 12.1057 1.50851 20.4741C-0.238992 26.3066 2.81923 33.6607 6.09769 38.986C15.4911 38.2252 17.6759 36.4501 24.6672 35.9429C32.751 41.0147 34.6547 45.9194 43 53.5C48.025 58.0646 48.806 57.7955 49.5962 62.591C53.7129 87.5739 43.563 88.9426 44 93C47.5966 93.496 50.6598 94.0287 53.5 92C52.4451 87.1022 58 74.5 62.5 70C63.5 62.5 67.9321 61.604 71.5 58" stroke="black" stroke-width="2" stroke-linecap="round"/>
            <path d="M19 16.043C19 16.043 20.5 14.5 23.8066 13" stroke="black" stroke-width="3" stroke-linecap="round"/>
            <path d="M29.0371 6.52629C29.1 4.67766 29.6448 3.2548 30.7849 1.96188C34.4991 -0.827365 37.1724 2.99015 36.9024 6.52629C36.6941 9.25468 34.6692 11.2692 32.3143 11.0909" stroke="black" stroke-width="2" stroke-linecap="round"/>
            <path d="M37.1211 3.99094C44.5494 3.99094 52.1962 10.5159 59.406 10.8378C70.767 11.345 92.8637 2.74074 104.027 3.99102C117.5 5.50002 121.5 7.99988 128.278 16.0002C132.59 21.0899 136.84 35.1675 134 41C130.708 47.7599 138.984 77.4869 137.891 80.5528C132.429 87.1461 124.458 94.5002 124.458 94.5002C124.458 94.5002 118.996 94.5002 115.5 94.5002C115.5 88.1605 122.161 90.4427 128.278 77.2562C112 73.5002 104.027 50.0002 104.027 50.0002" stroke="black" stroke-width="2" stroke-linecap="round"/>
            <path d="M71.5 59.5C78.5 65 101 65.0002 101 65.0002" stroke="black" stroke-width="2" stroke-linecap="round"/>
            <path d="M66.399 63.105C66.399 63.105 66.3446 66.4283 67 71.5C64 84.5 60.7185 88.4637 60.5 90.9996C62.9033 91.7604 64.4326 91.7604 66.399 91.2532C76.2305 64.8801 78.6338 75.0236 78.4153 63.105" stroke="black" stroke-width="2" stroke-linecap="round"/>
            <path d="M120.5 74.5C115.5 81.5 115.5 81 114 87C114 90 110.439 92.5811 110.439 92.5811C110.439 92.5811 103.901 92.8346 101.061 92.5811C100.405 89.0308 109 90 110.439 75.5C102 68.5 100.5 64 100.5 64" stroke="black" stroke-width="2" stroke-linecap="round"/>
    </svg>
</svg>
