<svg width="137" height="94" viewBox="0 0 137 94" fill="none" xmlns="http://www.w3.org/2000/svg">
    <path d="M3.91227 26.814C3.91227 26.814 3.47535 24.5318 5.00467 23.771" stroke="black" stroke-width="2" stroke-linecap="round"/>
    <path d="M30.5661 2.21582C30.5661 2.21582 6.5335 12.1057 1.50851 20.4741C-0.238992 26.3066 2.81923 33.6607 6.09769 38.986C15.4911 38.2252 17.6759 36.4501 24.6672 35.9429C32.751 41.0147 37.5145 48.1422 45.8597 55.7228C50.8848 60.2873 57.6564 61.8089 63.7751 62.8232C72 86.5 65.7419 87.6748 66.1789 91.7322C69.7755 92.2282 71.4224 93.0001 74.2626 90.9714C72.5148 82.8566 76.2289 77.0241 79.2871 52.4261" stroke="black" stroke-width="2" stroke-linecap="round"/>
    <path d="M19 16.043C19 16.043 20.5 14.5 23.8066 13" stroke="black" stroke-width="3" stroke-linecap="round"/>
    <path d="M29.0371 6.52629C29.1 4.67766 29.6448 3.2548 30.7849 1.96188C34.4991 -0.827365 37.1724 2.99015 36.9024 6.52629C36.6941 9.25468 34.6692 11.2692 32.3143 11.0909" stroke="black" stroke-width="2" stroke-linecap="round"/>
    <path d="M37.1211 3.99072C44.5494 3.99072 52.1962 10.5157 59.406 10.8376C70.767 11.3448 99.8248 2.89587 110.749 5.51225C124.513 8.80888 134.563 21.9954 135 35.9427C133.908 45.8326 125.824 52.4259 122.984 58.2584C119.692 65.0184 122.984 75.9867 121.891 79.0526C116.429 85.6459 108.458 93 108.458 93C108.458 93 102.996 93 99.5 93C99.5 86.6603 106.161 88.9425 112.278 75.756C100.043 68.1483 93.2704 48.8757 93.2704 48.8757" stroke="black" stroke-width="2" stroke-linecap="round"/>
    <path d="M78 64.0039C86.6514 61.2643 101 65 101 65" stroke="black" stroke-width="2" stroke-linecap="round"/>
    <path d="M40.1796 50.144C40.1796 50.144 44.1124 58.766 44.7679 63.8378C44.3311 82.0961 39.3059 86.9142 39.0874 89.4501C41.4907 90.2109 43.02 90.2109 44.9864 89.7037C54.8179 63.3306 57.2212 73.4741 57.0027 61.5555" stroke="black" stroke-width="2" stroke-linecap="round"/>
    <path d="M119.051 82.8566C119.051 82.8566 114.168 88.9498 114.824 92.5C117.664 92.7536 124 92.5 124 92.5C124 92.5 128.883 81.3351 130.849 73.4739C130.631 67.6414 123.858 60.5409 127.354 51.9189" stroke="black" stroke-width="2" stroke-linecap="round"/>
</svg>
