<svg width="16" height="16" viewBox="0 0 16 16" fill="none" xmlns="http://www.w3.org/2000/svg">
<path d="M3.76388 2.3497L2.34967 3.76392L5.1781 6.59234L6.59231 5.17813L3.76388 2.3497Z" fill="white"/>
<path d="M5 7H1V9H5V7Z" fill="white"/>
<path d="M6.59231 10.8239L5.1781 9.40967L2.34967 12.2381L3.76389 13.6523L6.59231 10.8239Z" fill="white"/>
<path d="M9 11H7V15H9V11Z" fill="white"/>
<path d="M10.8239 9.40964L9.40967 10.8239L12.2381 13.6523L13.6523 12.2381L10.8239 9.40964Z" fill="white"/>
<path d="M15 7H11V9H15V7Z" fill="white"/>
<path d="M13.6523 3.76394L12.2381 2.34973L9.40967 5.17816L10.8239 6.59237L13.6523 3.76394Z" fill="white"/>
<path d="M9 1H7V5H9V1Z" fill="white"/>
</svg>
