<svg width="16" height="16" viewBox="0 0 16 16" fill="none" xmlns="http://www.w3.org/2000/svg">
<g clip-path="url(#clip0_510:17745)">
<path opacity="0.93" d="M1.00916 7V9H5.00916V7H1.00916Z" fill="#7F8B91" fill-opacity="0.9"/>
<path opacity="0.78" d="M5.17144 9.41425L2.34302 12.2427L3.75723 13.6569L6.58566 10.8285L5.17144 9.41425Z" fill="#7F8B91" fill-opacity="0.9"/>
<path opacity="0.69" d="M9.00128 10.9922H7.00128V14.9922H9.00128V10.9922Z" fill="#7F8B91" fill-opacity="0.9"/>
<path opacity="0.62" d="M10.8283 9.41416L9.41412 10.8284L12.2426 13.6568L13.6568 12.2426L10.8283 9.41416Z" fill="#7F8B91" fill-opacity="0.9"/>
<path opacity="0.48" d="M10.9935 7V9H14.9935V7H10.9935Z" fill="#7F8B91" fill-opacity="0.9"/>
<path opacity="0.38" d="M12.2426 2.3432L9.41412 5.17163L10.8283 6.58584L13.6568 3.75742L12.2426 2.3432Z" fill="#7F8B91" fill-opacity="0.9"/>
<path opacity="0.3" d="M9.00128 1.00781H7.00128V5.00781H9.00128V1.00781Z" fill="#7F8B91" fill-opacity="0.9"/>
<path d="M3.75723 2.34311L2.34302 3.75732L5.17144 6.58575L6.58566 5.17154L3.75723 2.34311Z" fill="#7F8B91" fill-opacity="0.9"/>
</g>
<defs>
<clipPath id="clip0_510:17745">
<rect width="16" height="16" fill="white"/>
</clipPath>
</defs>
</svg>
