<svg width="16" height="16" viewBox="0 0 16 16" fill="none" xmlns="http://www.w3.org/2000/svg">
<path opacity="0.93" d="M2.3497 12.2361L3.76392 13.6503L6.59234 10.8218L5.17813 9.40763L2.3497 12.2361Z" fill="#7F8B91" fill-opacity="0.9"/>
<path opacity="0.78" d="M7 11V15H9V11H7Z" fill="#7F8B91" fill-opacity="0.9"/>
<path opacity="0.69" d="M10.8239 9.40769L9.40967 10.8219L12.2381 13.6503L13.6523 12.2361L10.8239 9.40769Z" fill="#7F8B91" fill-opacity="0.9"/>
<path opacity="0.62" d="M11 7V9H15V7H11Z" fill="#7F8B91" fill-opacity="0.9"/>
<path opacity="0.48" d="M9.4097 5.17612L10.8239 6.59033L13.6523 3.7619L12.2381 2.34769L9.4097 5.17612Z" fill="#7F8B91" fill-opacity="0.9"/>
<path opacity="0.38" d="M7 1V5H9V1H7Z" fill="#7F8B91" fill-opacity="0.9"/>
<path opacity="0.3" d="M3.76388 2.34763L2.34967 3.76184L5.1781 6.59027L6.59231 5.17605L3.76388 2.34763Z" fill="#7F8B91" fill-opacity="0.9"/>
<path d="M1 7L1 9H5V7H1Z" fill="#7F8B91" fill-opacity="0.9"/>
</svg>
