<svg width="16" height="16" viewBox="0 0 16 16" fill="none" xmlns="http://www.w3.org/2000/svg">
<g clip-path="url(#clip0_510:17675)">
<path opacity="0.93" d="M8.99994 1.00903H6.99994V5.00903H8.99994V1.00903Z" fill="#7F8B91" fill-opacity="0.9"/>
<path opacity="0.78" d="M6.58575 5.17144L3.75732 2.34302L2.34311 3.75723L5.17154 6.58566L6.58575 5.17144Z" fill="#7F8B91" fill-opacity="0.9"/>
<path opacity="0.69" d="M5.00775 9.00122V7.00122H1.00775V9.00122H5.00775Z" fill="#7F8B91" fill-opacity="0.9"/>
<path opacity="0.62" d="M6.58572 10.8283L5.17151 9.41406L2.34308 12.2425L3.7573 13.6567L6.58572 10.8283Z" fill="#7F8B91" fill-opacity="0.9"/>
<path opacity="0.48" d="M8.99994 10.9934H6.99994V14.9934H8.99994V10.9934Z" fill="#7F8B91" fill-opacity="0.9"/>
<path opacity="0.38" d="M13.6568 12.2425L10.8284 9.41406L9.41416 10.8283L12.2426 13.6567L13.6568 12.2425Z" fill="#7F8B91" fill-opacity="0.9"/>
<path opacity="0.3" d="M14.9921 9.00122V7.00122H10.9921V9.00122H14.9921Z" fill="#7F8B91" fill-opacity="0.9"/>
<path d="M13.6568 3.75723L12.2426 2.34302L9.41413 5.17144L10.8283 6.58566L13.6568 3.75723Z" fill="#7F8B91" fill-opacity="0.9"/>
</g>
<defs>
<clipPath id="clip0_510:17675">
<rect width="16" height="16" fill="white"/>
</clipPath>
</defs>
</svg>
