<svg width="16" height="16" viewBox="0 0 16 16" fill="none" xmlns="http://www.w3.org/2000/svg">
<g clip-path="url(#clip0_510:17725)">
<path opacity="0.93" d="M6.99976 14.991H8.99976V10.991H6.99976V14.991Z" fill="#7F8B91" fill-opacity="0.9"/>
<path opacity="0.78" d="M9.41394 10.8286L12.2424 13.657L13.6566 12.2428L10.8282 9.41434L9.41394 10.8286Z" fill="#7F8B91" fill-opacity="0.9"/>
<path opacity="0.69" d="M10.9919 6.99878V8.99878H14.9919V6.99878H10.9919Z" fill="#7F8B91" fill-opacity="0.9"/>
<path opacity="0.62" d="M9.41397 5.17172L10.8282 6.58594L13.6566 3.75751L12.2424 2.3433L9.41397 5.17172Z" fill="#7F8B91" fill-opacity="0.9"/>
<path opacity="0.48" d="M6.99976 5.00659H8.99976V1.00659H6.99976V5.00659Z" fill="#7F8B91" fill-opacity="0.9"/>
<path opacity="0.38" d="M2.3429 3.75751L5.17133 6.58594L6.58554 5.17172L3.75711 2.3433L2.3429 3.75751Z" fill="#7F8B91" fill-opacity="0.9"/>
<path opacity="0.3" d="M1.00757 6.99878V8.99878H5.00757V6.99878H1.00757Z" fill="#7F8B91" fill-opacity="0.9"/>
<path d="M2.34293 12.2428L3.75714 13.657L6.58557 10.8286L5.17135 9.41434L2.34293 12.2428Z" fill="#7F8B91" fill-opacity="0.9"/>
</g>
<defs>
<clipPath id="clip0_510:17725">
<rect width="16" height="16" fill="white"/>
</clipPath>
</defs>
</svg>
