<svg width="16" height="16" viewBox="0 0 16 16" fill="none" xmlns="http://www.w3.org/2000/svg">
<path opacity="0.93" d="M13.6503 3.76395L12.2361 2.34973L9.40766 5.17816L10.8219 6.59237L13.6503 3.76395Z" fill="#7F8B91" fill-opacity="0.9"/>
<path opacity="0.78" d="M9 5V1L7 1V5H9Z" fill="#7F8B91" fill-opacity="0.9"/>
<path opacity="0.69" d="M5.17612 6.59231L6.59033 5.1781L3.7619 2.34967L2.34769 3.76389L5.17612 6.59231Z" fill="#7F8B91" fill-opacity="0.9"/>
<path opacity="0.62" d="M5 9V7H1V9H5Z" fill="#7F8B91" fill-opacity="0.9"/>
<path opacity="0.48" d="M6.5903 10.8239L5.17609 9.40967L2.34766 12.2381L3.76187 13.6523L6.5903 10.8239Z" fill="#7F8B91" fill-opacity="0.9"/>
<path opacity="0.38" d="M9 15V11H7V15H9Z" fill="#7F8B91" fill-opacity="0.9"/>
<path opacity="0.3" d="M12.2361 13.6524L13.6503 12.2382L10.8219 9.40973L9.40769 10.8239L12.2361 13.6524Z" fill="#7F8B91" fill-opacity="0.9"/>
<path d="M15 9V7H11V9H15Z" fill="#7F8B91" fill-opacity="0.9"/>
</svg>
