<svg width="16" height="16" viewBox="0 0 16 16" fill="none" xmlns="http://www.w3.org/2000/svg">
<path opacity="0.93" d="M12.2361 13.6503L13.6503 12.2361L10.8219 9.40766L9.40769 10.8219L12.2361 13.6503Z" fill="#7F8B91" fill-opacity="0.9"/>
<path opacity="0.78" d="M11 9H15V7H11V9Z" fill="#7F8B91" fill-opacity="0.9"/>
<path opacity="0.69" d="M9.40769 5.17612L10.8219 6.59033L13.6503 3.7619L12.2361 2.34769L9.40769 5.17612Z" fill="#7F8B91" fill-opacity="0.9"/>
<path opacity="0.62" d="M7 5H9V1L7 1V5Z" fill="#7F8B91" fill-opacity="0.9"/>
<path opacity="0.48" d="M5.17612 6.59036L6.59033 5.17615L3.7619 2.34772L2.34769 3.76193L5.17612 6.59036Z" fill="#7F8B91" fill-opacity="0.9"/>
<path opacity="0.38" d="M1 9H5V7H1V9Z" fill="#7F8B91" fill-opacity="0.9"/>
<path opacity="0.3" d="M2.34769 12.2361L3.7619 13.6503L6.59033 10.8218L5.17612 9.40763L2.34769 12.2361Z" fill="#7F8B91" fill-opacity="0.9"/>
<path d="M7 15H9V11H7V15Z" fill="#7F8B91" fill-opacity="0.9"/>
</svg>
