<svg width="16" height="16" viewBox="0 0 16 16" fill="none" xmlns="http://www.w3.org/2000/svg">
<g clip-path="url(#clip0_510:17695)">
<path opacity="0.93" d="M14.9908 8.99976V6.99976H10.9908V8.99976H14.9908Z" fill="#7F8B91" fill-opacity="0.9"/>
<path opacity="0.78" d="M10.8286 6.58551L13.657 3.75708L12.2428 2.34287L9.41434 5.17129L10.8286 6.58551Z" fill="#7F8B91" fill-opacity="0.9"/>
<path opacity="0.69" d="M6.99872 5.00757H8.99872V1.00757H6.99872V5.00757Z" fill="#7F8B91" fill-opacity="0.9"/>
<path opacity="0.62" d="M5.17166 6.5856L6.58588 5.17139L3.75745 2.34296L2.34324 3.75717L5.17166 6.5856Z" fill="#7F8B91" fill-opacity="0.9"/>
<path opacity="0.48" d="M5.00653 8.99976V6.99976H1.00653V8.99976H5.00653Z" fill="#7F8B91" fill-opacity="0.9"/>
<path opacity="0.38" d="M3.75745 13.6566L6.58588 10.8281L5.17166 9.41391L2.34324 12.2423L3.75745 13.6566Z" fill="#7F8B91" fill-opacity="0.9"/>
<path opacity="0.3" d="M6.99872 14.9919H8.99872V10.9919H6.99872V14.9919Z" fill="#7F8B91" fill-opacity="0.9"/>
<path d="M12.2428 13.6566L13.657 12.2424L10.8286 9.414L9.41434 10.8282L12.2428 13.6566Z" fill="#7F8B91" fill-opacity="0.9"/>
</g>
<defs>
<clipPath id="clip0_510:17695">
<rect width="16" height="16" fill="white"/>
</clipPath>
</defs>
</svg>
