<svg width="512" height="512" viewBox="0 0 512 512" fill="none" xmlns="http://www.w3.org/2000/svg">
<path d="M512 0H0V512H512V0Z" fill="#FE2857"/>
<path d="M42.6667 42.6666H469.333V469.333H42.6667V42.6666Z" fill="black"/>
<path d="M88.381 198.095C88.381 146.286 128 103.619 182.857 103.619C216.381 103.619 237.714 115.809 256 131.048L231.619 161.524C216.381 149.333 201.143 140.19 182.857 140.19C152.381 140.19 131.048 164.571 131.048 198.095C131.048 228.571 152.381 256 182.857 256C204.19 256 216.381 246.857 231.619 234.667L256 259.048C237.714 280.381 216.381 292.571 182.857 292.571C128 292.571 88.381 249.905 88.381 198.095Z" fill="white"/>
<path d="M256 198.095C256 146.286 295.619 103.619 350.476 103.619C384 103.619 405.333 115.809 423.619 131.048L399.238 161.524C384 149.333 368.762 140.19 350.476 140.19C320 140.19 298.667 164.571 298.667 198.095C298.667 228.571 320 256 350.476 256C371.81 256 384 246.857 399.238 234.667L423.619 259.048C405.333 280.381 384 292.571 350.476 292.571C295.619 292.571 256 249.905 256 198.095Z" fill="white"/>
<path d="M103.619 377.905H286.476V408.381H103.619V377.905Z" fill="white"/>
<rect x="351.391" y="181.638" width="72.2285" height="35.3524" fill="white"/>
<rect x="387.045" y="199.317" width="36.5714" height="59.7333" fill="white"/>
</svg>
