<svg width="128" height="128" viewBox="0 0 128 128" fill="none" xmlns="http://www.w3.org/2000/svg">
<path d="M128 0H0V128H128V0Z" fill="#FE2857"/>
<path d="M10.6667 10.6666H117.333V117.333H10.6667V10.6666Z" fill="black"/>
<path d="M22.0952 49.5237C22.0952 36.5713 32 25.9047 45.7143 25.9047C54.0952 25.9047 59.4285 28.9523 64 32.7618L57.9047 40.3808C54.0952 37.3332 50.2857 35.0475 45.7143 35.0475C38.0952 35.0475 32.7619 41.1428 32.7619 49.5237C32.7619 57.1427 38.0952 63.9999 45.7143 63.9999C51.0476 63.9999 54.0952 61.7142 57.9047 58.6666L64 64.7618C59.4285 70.0951 54.0952 73.1427 45.7143 73.1427C32 73.1427 22.0952 62.4761 22.0952 49.5237Z" fill="white"/>
<path d="M64 49.5237C64 36.5713 73.9048 25.9047 87.619 25.9047C96 25.9047 101.333 28.9523 105.905 32.7618L99.8095 40.3808C96 37.3332 92.1905 35.0475 87.619 35.0475C80 35.0475 74.6667 41.1428 74.6667 49.5237C74.6667 57.1427 80 63.9999 87.619 63.9999C92.9524 63.9999 96 61.7142 99.8095 58.6666L105.905 64.7618C101.333 70.0951 96 73.1427 87.619 73.1427C73.9048 73.1427 64 62.4761 64 49.5237Z" fill="white"/>
<path d="M25.9048 94.4762H71.619V102.095H25.9048V94.4762Z" fill="white"/>
<rect x="87.8477" y="45.4094" width="18.0571" height="8.83809" fill="white"/>
<rect x="96.7614" y="49.8291" width="9.14285" height="14.9333" fill="white"/>
</svg>
