<svg width="640" height="320" viewBox="0 0 640 320" fill="none" xmlns="http://www.w3.org/2000/svg">
<rect x="40.5" y="40.5" width="559" height="239" rx="5.5" fill="#0D1117"/>
<g clip-path="url(#clip0_983_19167)">
<path d="M63 169.6L87 178L111 167.2L131.4 160L137.4 154L123 136L89.4 128.8L75 144.4L63 169.6Z" fill="url(#paint0_linear_983_19167)"/>
<path d="M95.4 191.2L123 184L131.4 160L76.2 146.8L63 169.6L95.4 191.2Z" fill="url(#paint1_linear_983_19167)"/>
<path d="M131.4 160L115.8 163.6L109.8 179.2L75 169.6H63L75 149.2L93.6741 174.664L89.4 128.8L67.8 139.6L63 169.6L87 198.4L109.8 179.2L123 184L131.4 160Z" fill="url(#paint2_linear_983_19167)"/>
<path d="M75 136H123V184H75V136Z" fill="black"/>
<path d="M80.1428 153.486C80.1428 147.657 84.6 142.857 90.7714 142.857C94.5428 142.857 96.9428 144.229 99 145.943L96.2571 149.371C94.5428 148 92.8285 146.971 90.7714 146.971C87.3428 146.971 84.9428 149.714 84.9428 153.486C84.9428 156.914 87.3428 160 90.7714 160C93.1714 160 94.5428 158.971 96.2571 157.6L99 160.343C96.9428 162.743 94.5428 164.114 90.7714 164.114C84.6 164.114 80.1428 159.314 80.1428 153.486Z" fill="white"/>
<path d="M99 153.486C99 147.657 103.457 142.857 109.629 142.857C113.4 142.857 115.8 144.229 117.857 145.943L115.114 149.371C113.4 148 111.686 146.971 109.629 146.971C106.2 146.971 103.8 149.714 103.8 153.486C103.8 156.914 106.2 160 109.629 160C112.029 160 113.4 158.971 115.114 157.6L117.857 160.343C115.8 162.743 113.4 164.114 109.629 164.114C103.457 164.114 99 159.314 99 153.486Z" fill="white"/>
<path d="M81.8572 173.714H102.429V177.143H81.8572V173.714Z" fill="white"/>
<rect x="109.731" y="151.634" width="8.12571" height="3.97714" fill="white"/>
<rect x="113.743" y="153.623" width="4.11429" height="6.72" fill="white"/>
</g>
<rect width="448" height="78" transform="translate(138 121)" fill="url(#paint3_linear_983_19167)"/>
<path fill-rule="evenodd" clip-rule="evenodd" d="M138 121H586V199H138V121ZM187.5 144L181 152C181 152 175.5 146.5 169 146.5C160.5 146.5 155.5 152.5 155.5 161C155.5 168.5 161 175.5 169 175.5C177 175.5 181 170 181 170C181 170 187.5 176.843 187.5 177C187.5 177 180 185 169 185C155 185 145 175.275 145 161C145 145.784 155 137 169 137C180.616 137 186.344 142.825 187.41 143.909L187.475 143.975L187.5 144ZM188 166C188 155 197 147 207.5 147C218 147 227 155 227 166C227 177 218 185 207.5 185C197 185 188 177 188 166ZM377 166C377 155 386 147 396.5 147C407 147 416 155 416 166C416 177 407 185 396.5 185C386 185 377 177 377 166ZM269 135H259V152.709C255.86 149.185 251.553 147 247 147C238.021 147 231 153.654 231 166C231 177.624 238.101 185 247 185C251.553 185 255.86 182.217 259 178.407V185H269V135ZM283 169.5C283 169.5 283.627 176.42 291.5 176.5C296.714 176.578 300.196 172.828 300.482 172.519L300.483 172.518L300.5 172.5L306.501 178.091C303.127 182.911 297.686 185 291.5 185C281.458 185 273 177.408 273 166C273 154.913 280.038 147 290 147H292C303.006 147 309 156 309 165.5V167V169.5H283ZM338 166.5V157.5H358V177.5C358 177.5 349.434 185 338.039 185C324.537 185 314 175.205 314 161C314 145.937 324.81 137 338 137C349.941 137 355.72 142.72 356.5 143.5L350 151C350 151 344.634 146.344 338 146.5C329.727 146.656 324.5 153 324.5 161C324.5 169 331 175.5 338 175.5C345 175.5 348 173 348 173V169.75V166.5H338ZM373 135H363V185H373V135ZM434 185C428.08 185 423.2 184.08 418 180L422 173C426 176.28 437.5 179 437.5 175C437.5 172.274 434.872 171.539 431.483 170.592C428.657 169.803 425.301 168.865 422.5 166.5C420.58 164.9 419 162.5 419 158C419 151 425.68 147 432 147C436.8 147 441.52 148.8 446 152L442 159C433.92 154.04 428.5 156 428.5 158C428.5 160.849 429.515 161.162 432.267 162.009C433.378 162.351 434.774 162.781 436.5 163.5C442.5 166 447 169 447 175C447 182.84 441.92 185 434 185ZM466 185C460.08 185 455.2 184.08 450 180L454 173C458 176.28 469.5 179 469.5 175C469.5 172.274 466.872 171.539 463.483 170.592C460.657 169.803 457.301 168.865 454.5 166.5C452.58 164.9 451 162.5 451 158C451 151 457.68 147 464 147C468.8 147 473.52 148.8 478 152L474 159C465.92 154.04 460.5 156 460.5 158C460.5 160.849 461.515 161.162 464.267 162.009C465.378 162.351 466.774 162.781 468.5 163.5C474.5 166 479 169 479 175C479 182.84 473.92 185 466 185ZM498 147C507 147 516 150 516 161V162V185H506V180.5C505.912 180.588 505.814 180.693 505.703 180.811C504.489 182.111 501.791 185 494 185C488.28 185 482 181 482 174C482 167.5 486.174 162 495 162C503.579 162 506 163.5 506 163.5C506 156 498 156 498 156C494.521 156 492.394 156.658 489.912 157.425C489.304 157.613 488.675 157.807 488 158L485 150C487.5 148.5 492.443 147 498 147ZM530 185H520V147H530V155C532 147 542 147 542 147V157C542 157 532 157 530 167V185ZM551 185C551 185 558 190 560 183L545 147H557L565 171L573 147H585L570 183C566 193 564 196 558 196C555.2 196 550.8 195 548 193L551 185Z" fill="#0D1117"/>
<path d="M207.5 176C201.876 176 198 171.624 198 166C198 160.376 201.876 156 207.5 156C213.124 156 217 160.376 217 166C217 171.624 213.124 176 207.5 176Z" fill="#0D1117"/>
<path d="M250 176C245.19 176 241 171.612 241 166C241 160.388 245.19 156 250 156C255.927 156 258.994 160.38 259 165.985L259 166L259 166.013C258.995 171.619 255.607 176 250 176Z" fill="#0D1117"/>
<path d="M291 155C295.499 155 299 159.304 299 163H283C282.92 159.304 286.742 155 291 155Z" fill="#0D1117"/>
<path d="M396.5 176C390.876 176 387 171.624 387 166C387 160.376 390.876 156 396.5 156C402.124 156 406 160.376 406 166C406 171.624 402.124 176 396.5 176Z" fill="#0D1117"/>
<path d="M498 178C495 178 492 177 492 174C492 171 494 168 499 168C502.759 168 506 169.5 506 169.5V172.5C506 172.582 505.355 178 498 178Z" fill="#0D1117"/>
<rect x="40.5" y="40.5" width="559" height="239" rx="5.5" stroke="#30363D"/>
<defs>
<linearGradient id="paint0_linear_983_19167" x1="103.475" y1="154.362" x2="102.954" y2="125.356" gradientUnits="userSpaceOnUse">
<stop offset="0.3737" stop-color="#FEB51A"/>
<stop offset="0.4306" stop-color="#FEAD1A"/>
<stop offset="0.6448" stop-color="#FD941C"/>
<stop offset="0.8406" stop-color="#FC851D"/>
<stop offset="1" stop-color="#FC801D"/>
</linearGradient>
<linearGradient id="paint1_linear_983_19167" x1="125.72" y1="170.843" x2="89.6177" y2="137.054" gradientUnits="userSpaceOnUse">
<stop offset="0.3737" stop-color="#FEB51A"/>
<stop offset="0.417" stop-color="#FEAD1A"/>
<stop offset="0.5802" stop-color="#FD941C"/>
<stop offset="0.7294" stop-color="#FC851D"/>
<stop offset="0.8508" stop-color="#FC801D"/>
<stop offset="0.9836" stop-color="#F26522"/>
</linearGradient>
<linearGradient id="paint2_linear_983_19167" x1="60.2624" y1="134.431" x2="109.627" y2="197.183" gradientUnits="userSpaceOnUse">
<stop offset="0.0417113" stop-color="#7D11EF"/>
<stop offset="0.1162" stop-color="#A019CB"/>
<stop offset="0.2019" stop-color="#C220A8"/>
<stop offset="0.283" stop-color="#DA268F"/>
<stop offset="0.3569" stop-color="#E92980"/>
<stop offset="0.417" stop-color="#EE2A7B"/>
<stop offset="1" stop-color="#F26522"/>
</linearGradient>
<linearGradient id="paint3_linear_983_19167" x1="224" y1="145.5" x2="224" y2="78" gradientUnits="userSpaceOnUse">
<stop stop-color="white"/>
<stop offset="0.482066" stop-color="white" stop-opacity="0.65"/>
<stop offset="1" stop-color="white"/>
<animate attributeName="x1" values="-100%;200%" dur="2s" repeatCount="indefinite"/>
<animate attributeName="y1" values="-100%;200%" dur="2s" repeatCount="indefinite"/>
<animate attributeName="x2" values="-25%;275%" dur="2s" repeatCount="indefinite"/>
<animate attributeName="y2" values="-25%;275%" dur="2s" repeatCount="indefinite"/>
</linearGradient>
<clipPath id="clip0_983_19167">
<rect width="76.8" height="76.8" fill="white" transform="translate(60.6001 121.6)"/>
</clipPath>
</defs>
</svg>

