<svg width="32" height="32" viewBox="0 0 32 32" fill="none" xmlns="http://www.w3.org/2000/svg">
<path d="M0 16C0 24.8366 7.16344 32 16 32C24.8366 32 32 24.8366 32 16C32 7.16344 24.8366 0 16 0C7.16344 0 0 7.16344 0 16Z" fill="#FE2857"/>
<circle cx="15.9996" cy="16" r="14.2222" fill="black"/>
<path d="M6.22266 12.6222C6.22266 9.6 8.53377 7.11111 11.7338 7.11111C13.6893 7.11111 14.9338 7.82222 16.0004 8.71111L14.5782 10.4889C13.6893 9.77778 12.8004 9.24444 11.7338 9.24444C9.95599 9.24444 8.71154 10.6667 8.71154 12.6222C8.71154 14.4 9.95599 16 11.7338 16C12.9782 16 13.6893 15.4667 14.5782 14.7556L16.0004 16.1778C14.9338 17.4222 13.6893 18.1333 11.7338 18.1333C8.53377 18.1333 6.22266 15.6444 6.22266 12.6222Z" fill="white"/>
<path d="M16 12.6222C16 9.6 18.3111 7.11111 21.5111 7.11111C23.4667 7.11111 24.7111 7.82222 25.7778 8.71111L24.3556 10.4889C23.4667 9.77778 22.5778 9.24444 21.5111 9.24444C19.7333 9.24444 18.4889 10.6667 18.4889 12.6222C18.4889 14.4 19.7333 16 21.5111 16C22.7556 16 23.4667 15.4667 24.3556 14.7556L25.7778 16.1778C24.7111 17.4222 23.4667 18.1333 21.5111 18.1333C18.3111 18.1333 16 15.6444 16 12.6222Z" fill="white"/>
<path d="M7.11133 23.1111H17.778V24.8889H7.11133V23.1111Z" fill="white"/>
<rect x="21.5645" y="11.6622" width="4.21333" height="2.06222" fill="white"/>
<rect x="23.6445" y="12.6935" width="2.13333" height="3.48445" fill="white"/>
</svg>
