<svg width="32" height="32" viewBox="0 0 32 32" fill="none" xmlns="http://www.w3.org/2000/svg">
<path fill-rule="evenodd" clip-rule="evenodd" d="M15.9942 2C8.26678 2 2 8.26592 2 15.9959C2 22.1793 6.00974 27.4245 11.5711 29.2752C12.2714 29.4041 12.5265 28.9719 12.5265 28.6007C12.5265 28.2682 12.5145 27.3885 12.5076 26.2208C8.61475 27.0663 7.79338 24.3444 7.79338 24.3444C7.15674 22.7275 6.23914 22.297 6.23914 22.297C4.96843 21.4293 6.33537 21.4464 6.33537 21.4464C7.74011 21.5452 8.479 22.889 8.479 22.889C9.72737 25.0275 11.755 24.4097 12.5523 24.0514C12.6795 23.1476 13.0412 22.5307 13.4407 22.181C10.3331 21.8279 7.06566 20.6268 7.06566 15.2639C7.06566 13.7363 7.61124 12.4862 8.50649 11.5084C8.36215 11.1545 7.88187 9.73081 8.64396 7.80455C8.64396 7.80455 9.81844 7.42823 12.4922 9.23936C13.6082 8.92834 14.8059 8.77369 15.9959 8.76768C17.185 8.77369 18.3818 8.92834 19.4996 9.23936C22.1716 7.42823 23.3443 7.80455 23.3443 7.80455C24.1082 9.73081 23.6279 11.1545 23.4844 11.5084C24.3814 12.4862 24.9226 13.7363 24.9226 15.2639C24.9226 20.6405 21.6501 21.8236 18.533 22.1699C19.0348 22.602 19.4824 23.456 19.4824 24.7611C19.4824 26.6324 19.4652 28.142 19.4652 28.6007C19.4652 28.9753 19.7178 29.4109 20.4275 29.2743C25.9846 27.4194 29.9909 22.1776 29.9909 15.9959C29.9909 8.26592 23.7241 2 15.9942 2Z" fill="#FFFFFE"/>
</svg>
