<svg width="13" height="13" viewBox="0 0 13 13" fill="none" xmlns="http://www.w3.org/2000/svg">
<path d="M4.95625 0.8125V2.03125H8.69375V3.25H7.475C7.00974 4.72434 6.23399 6.08189 5.2 7.23125C5.66785 7.60978 6.15608 7.96239 6.6625 8.2875L6.175 9.425C5.50097 9.03808 4.8739 8.57459 4.30625 8.04375C3.18251 9.05167 1.85116 9.80056 0.40625 10.2375L0.08125 9.01875C1.2979 8.6077 2.42751 7.97401 3.4125 7.15C2.69756 6.34165 2.09619 5.4396 1.625 4.46875H3.00625C3.33656 5.11296 3.74598 5.71343 4.225 6.25625C5.00148 5.37323 5.60755 4.35393 6.0125 3.25H0V2.03125H3.7375V0.8125H4.95625Z" fill="#AFB1B3"/>
<path d="M13 12.1875H11.4643L10.855 10.5625H8.06809L7.49122 12.1875H5.99622L8.71809 5.20813H10.205L13 12.1875ZM10.4081 9.42501L9.44122 6.83313L8.49872 9.42501H10.4081Z" fill="#1E88E5"/>
</svg>
