<svg width="96" height="76" viewBox="0 0 96 76" fill="none" xmlns="http://www.w3.org/2000/svg">
<path d="M83 27H93V29H83V27Z" fill="#AFB1B3"/>
<path d="M63 27H67V23H69V27H73V29H69V33H67V29H63V27Z" fill="#AFB1B3"/>
<path d="M9 13H7V5H5V3H9V13Z" fill="#C4C4C4"/>
<path d="M9 53H6.76393L10.7639 45L3 45V43H13V45L9 53Z" fill="#C4C4C4"/>
<path d="M13 45L9 53C10.3878 50.2243 13 45 13 45Z" fill="#C4C4C4"/>
<path d="M13 33H11V29H3V23H5V27H11V23H13V33Z" fill="#C4C4C4"/>
<path d="M33 9H25V11H33V13H23V7H31V5H23V3H33V9Z" fill="#C4C4C4"/>
<path d="M23 29H31V31H23V33H33V27H25V25H33V23H23V29Z" fill="#C4C4C4"/>
<path fill-rule="evenodd" clip-rule="evenodd" d="M53 23H43V33H53V27H45V25H53V23ZM51 31V29H45V31H51Z" fill="#C4C4C4"/>
<path fill-rule="evenodd" clip-rule="evenodd" d="M43 53H53V43H43V49H51V51H43V53ZM45 45V47H51V45H45Z" fill="#C4C4C4"/>
<path fill-rule="evenodd" clip-rule="evenodd" d="M23 53H33V43H23V49V51V53ZM31 49V51H25V49H31ZM25 45V47H31V45H25Z" fill="#C4C4C4"/>
<path fill-rule="evenodd" clip-rule="evenodd" d="M3 73H13V63H3V73ZM5 65V71H11V65H5Z" fill="#C4C4C4"/>
<path d="M63 13H73V11H65V5H73V3H63V13Z" fill="#C4C4C4"/>
<path d="M82 8L86 4V6.99997L94 6.99997V8.99997H86V12L82 8Z" fill="#C4C4C4"/>
<path d="M49 71C48.4477 71 48 70.5523 48 70V66C48 65.4477 48.4477 65 49 65V65C49.5523 65 50 64.5523 50 64V64C50 63.4477 49.5523 63 49 63H48C46.8954 63 46 63.8954 46 65V71C46 72.1046 46.8954 73 48 73H49C49.5523 73 50 72.5523 50 72V72C50 71.4477 49.5523 71 49 71V71Z" fill="#C4C4C4"/>
<path d="M67 71C67.5523 71 68 70.5523 68 70V66C68 65.4477 67.5523 65 67 65V65C66.4477 65 66 64.5523 66 64V64C66 63.4477 66.4477 63 67 63H68C69.1046 63 70 63.8954 70 65V71C70 72.1046 69.1046 73 68 73H67C66.4477 73 66 72.5523 66 72V72C66 71.4477 66.4477 71 67 71V71Z" fill="#C4C4C4"/>
<path fill-rule="evenodd" clip-rule="evenodd" d="M27 73H29V71H27V73Z" fill="#C4C4C4"/>
<path d="M53 13H43V11H51V9H47V7H51V5H43V3H53V13Z" fill="#C4C4C4"/>
<path d="M63.7574 50.8284L66.5858 48L63.7574 45.1716L65.1716 43.7574L68 46.5858L70.8284 43.7574L72.2427 45.1716L69.4142 48L72.2427 50.8284L70.8284 52.2426L68 49.4142L65.1716 52.2426L63.7574 50.8284Z" fill="#AFB1B3"/>
<path d="M87 43H89V45H87V43Z" fill="#C4C4C4"/>
<path d="M93 47V49H83V47H93Z" fill="#C4C4C4"/>
<path d="M89 53H87V51H89V53Z" fill="#C4C4C4"/>
<path d="M83.7574 65.1716L85.1716 63.7574L86.5858 65.1716L85.1716 66.5858L83.7574 65.1716Z" fill="#C4C4C4"/>
<path d="M90.8284 63.7574L92.2427 65.1716L85.1716 72.2426L83.7574 70.8284L90.8284 63.7574Z" fill="#C4C4C4"/>
<path d="M92.2427 70.8284L90.8284 72.2426L89.4142 70.8284L90.8284 69.4142L92.2427 70.8284Z" fill="#C4C4C4"/>
</svg>
