<svg width="16" height="16" viewBox="0 0 16 16" fill="none" xmlns="http://www.w3.org/2000/svg">
<path d="M0 0H16V16H0V0Z" fill="black"/>
<path d="M2 13H8V14H2V13Z" fill="white"/>
<path fill-rule="evenodd" clip-rule="evenodd" d="M1 6.11111L3.56667 3.07778H4.96667V6.03333H5.58889V7.04444H4.96667V8.05556H3.64444V7.04444H1.23333L1 6.11111ZM2.47778 6.03333L3.64444 4.71111V6.03333H2.47778Z" fill="white"/>
<path fill-rule="evenodd" clip-rule="evenodd" d="M10.4111 6.11111L12.9778 3.07778H14.3778V6.03333H15V7.04444H14.3778V8.05556H13.0556V7.04444H10.6444L10.4111 6.11111ZM11.8889 6.03333L13.0556 4.71111V6.03333H11.8889Z" fill="white"/>
<path fill-rule="evenodd" clip-rule="evenodd" d="M5.82222 5.56667C5.82222 7.04444 6.67778 8.05556 8.07778 8.05556C9.47778 8.05556 10.3333 7.00556 10.3333 5.56667C10.3333 4.12778 9.47778 3 8.07778 3C6.67778 3 5.82222 4.08889 5.82222 5.56667ZM8.07778 4.16667C7.14444 4.16667 7.14444 5.41111 7.14444 5.56667C7.14444 5.72222 7.14444 6.88889 8.07778 6.88889C9.01111 6.88889 9.01111 5.72222 9.01111 5.56667C9.01111 5.41111 9.01111 4.16667 8.07778 4.16667Z" fill="white"/>
</svg>
