<svg width="64" height="64" viewBox="0 0 64 64" fill="none" xmlns="http://www.w3.org/2000/svg">
<path d="M2 40L22 47L42 38L59 32L64 27L52 12L24 6L12 19L2 40Z" fill="url(#paint0_linear)"/>
<path d="M29 58L52 52L59 32L13 21L2 40L29 58Z" fill="url(#paint1_linear)"/>
<path d="M59 32L46 35L41 48L12 40H2L12 23L27.5618 44.2201L24 6L6 15L2 40L22 64L41 48L52 52L59 32Z" fill="url(#paint2_linear)"/>
<path d="M18.8999 47.4999L46.7999 51.9999L51.1999 40.2999L18.8999 47.4999Z" fill="url(#paint3_linear)"/>
<g opacity="0.3">
<path opacity="0.3" d="M46.7 51.9999L41.7 42.7999L19.1 46.9999L17.5 51.9999H46.7Z" fill="url(#paint4_linear)"/>
</g>
<path d="M12 12H52V52H12V12Z" fill="black"/>
<path d="M16.2857 26.5714C16.2857 21.7142 20 17.7142 25.1429 17.7142C28.2857 17.7142 30.2857 18.8571 32 20.2857L29.7143 23.1428C28.2857 21.9999 26.8571 21.1428 25.1429 21.1428C22.2857 21.1428 20.2857 23.4285 20.2857 26.5714C20.2857 29.4285 22.2857 31.9999 25.1429 31.9999C27.1429 31.9999 28.2857 31.1428 29.7143 29.9999L32 32.2857C30.2857 34.2857 28.2857 35.4285 25.1429 35.4285C20 35.4285 16.2857 31.4285 16.2857 26.5714Z" fill="white"/>
<path d="M32 26.5714C32 21.7142 35.7143 17.7142 40.8571 17.7142C44 17.7142 46 18.8571 47.7143 20.2857L45.4286 23.1428C44 21.9999 42.5714 21.1428 40.8571 21.1428C38 21.1428 36 23.4285 36 26.5714C36 29.4285 38 31.9999 40.8571 31.9999C42.8571 31.9999 44 31.1428 45.4286 29.9999L47.7143 32.2857C46 34.2857 44 35.4285 40.8571 35.4285C35.7143 35.4285 32 31.4285 32 26.5714Z" fill="white"/>
<path d="M17.7143 43.4286H34.8571V46.2857H17.7143V43.4286Z" fill="white"/>
<rect x="40.9429" y="25.0286" width="6.77143" height="3.31428" fill="white"/>
<rect x="44.2855" y="26.6859" width="3.42857" height="5.6" fill="white"/>
<defs>
<linearGradient id="paint0_linear" x1="35.7293" y1="27.3016" x2="35.2946" y2="3.1299" gradientUnits="userSpaceOnUse">
<stop offset="0.3737" stop-color="#FEB51A"/>
<stop offset="0.4306" stop-color="#FEAD1A"/>
<stop offset="0.6448" stop-color="#FD941C"/>
<stop offset="0.8406" stop-color="#FC851D"/>
<stop offset="1" stop-color="#FC801D"/>
</linearGradient>
<linearGradient id="paint1_linear" x1="54.267" y1="41.0356" x2="24.1814" y2="12.8786" gradientUnits="userSpaceOnUse">
<stop offset="0.3737" stop-color="#FEB51A"/>
<stop offset="0.417" stop-color="#FEAD1A"/>
<stop offset="0.5802" stop-color="#FD941C"/>
<stop offset="0.7294" stop-color="#FC851D"/>
<stop offset="0.8508" stop-color="#FC801D"/>
<stop offset="0.9836" stop-color="#F26522"/>
</linearGradient>
<linearGradient id="paint2_linear" x1="-0.281301" y1="10.6921" x2="40.8561" y2="62.9854" gradientUnits="userSpaceOnUse">
<stop offset="0.0417113" stop-color="#7D11EF"/>
<stop offset="0.1162" stop-color="#A019CB"/>
<stop offset="0.2019" stop-color="#C220A8"/>
<stop offset="0.283" stop-color="#DA268F"/>
<stop offset="0.3569" stop-color="#E92980"/>
<stop offset="0.417" stop-color="#EE2A7B"/>
<stop offset="1" stop-color="#F26522"/>
</linearGradient>
<linearGradient id="paint3_linear" x1="32.4618" y1="35.9491" x2="39.5045" y2="57.6643" gradientUnits="userSpaceOnUse">
<stop stop-color="#F7941D" stop-opacity="0"/>
<stop offset="0.5473" stop-color="#FB851D" stop-opacity="0.5473"/>
<stop offset="1" stop-color="#FC801D"/>
</linearGradient>
<linearGradient id="paint4_linear" x1="50.8377" y1="43.7494" x2="14.6321" y2="55.4065" gradientUnits="userSpaceOnUse">
<stop offset="0.0794007" stop-color="#70193B"/>
<stop offset="0.23" stop-color="#962D38"/>
<stop offset="0.4689" stop-color="#CE4B33"/>
<stop offset="0.6473" stop-color="#F05D30"/>
<stop offset="0.7435" stop-color="#FD642F"/>
</linearGradient>
</defs>
</svg>
