<svg width="542" height="84" viewBox="0 0 542 84" fill="none" xmlns="http://www.w3.org/2000/svg">
<path d="M120 34L126.5 26C125.716 25.2157 120 19 108 19C94 19 84 27.7843 84 43C84 57.2745 94 67 108 67C119 67 126.5 59 126.5 59C126.5 58.8431 120 52 120 52C120 52 116 57.5 108 57.5C100 57.5 94.5 50.5 94.5 43C94.5 34.5 99.5 28.5 108 28.5C114.5 28.5 120 34 120 34Z" fill="black"/>
<path d="M146.5 29C136 29 127 37 127 48C127 59 136 67 146.5 67C157 67 166 59 166 48C166 37 157 29 146.5 29ZM146.5 58C140.876 58 137 53.6237 137 48C137 42.3763 140.876 38 146.5 38C152.124 38 156 42.3763 156 48C156 53.6237 152.124 58 146.5 58Z" fill="black"/>
<path d="M335.5 29C325 29 316 37 316 48C316 59 325 67 335.5 67C346 67 355 59 355 48C355 37 346 29 335.5 29ZM335.5 58C329.876 58 326 53.6237 326 48C326 42.3763 329.876 38 335.5 38C341.124 38 345 42.3763 345 48C345 53.6237 341.124 58 335.5 58Z" fill="black"/>
<path d="M208 17H198V67H208V17Z" fill="black"/>
<path d="M186 29C177.021 29 170 35.654 170 48C170 59.6245 177.101 67 186 67C194.979 67 203 56.1772 203 48C203 37.4979 194.979 29 186 29ZM189 58C184.19 58 180 53.6118 180 48C180 42.3882 184.19 38 189 38C194.932 38 198 42.3882 198 48C198 53.6118 194.612 58 189 58Z" fill="black"/>
<path d="M230.5 58.5C222.627 58.4197 222 51.5 222 51.5H248C248 50.9376 248 49.9641 248 49C248 47.9556 248 47.5803 248 47.5C248 38 242.006 29 231 29C230.598 29 229.161 29 229 29C219.038 29 212 36.9133 212 48C212 59.408 220.458 67 230.5 67C236.686 67 242.127 64.9112 245.501 60.0909L239.5 54.5C239.42 54.5803 235.883 58.5803 230.5 58.5ZM230 37C234.499 37 238 41.3044 238 45H222C221.92 41.3044 225.742 37 230 37Z" fill="black"/>
<path d="M277 39.5V48.5H287V51.75V55C287 55 284 57.5 277 57.5C270 57.5 263.5 51 263.5 43C263.5 35 268.727 28.6561 277 28.5C283.634 28.3439 289 33 289 33L295.5 25.5C294.72 24.7195 288.941 19 277 19C263.81 19 253 27.9366 253 43C253 57.2049 263.537 67 277.039 67C288.434 67 297 59.5 297 59.5V39.5H277Z" fill="black"/>
<path d="M312 17H302V67H312V17Z" fill="black"/>
<path d="M357 62C362.2 66.08 367.08 67 373 67C380.92 67 386 64.84 386 57C386 51 381.5 48 375.5 45.5C369.5 43 367.5 44 367.5 40C367.5 38 372.92 36.04 381 41L385 34C380.52 30.8 375.8 29 371 29C364.68 29 358 33 358 40C358 44.5 359.58 46.9 361.5 48.5C367.66 53.7 376.5 52 376.5 57C376.5 61 365 58.28 361 55L357 62Z" fill="black"/>
<path d="M389 62C394.2 66.08 399.08 67 405 67C412.92 67 418 64.84 418 57C418 51 413.5 48 407.5 45.5C401.5 43 399.5 44 399.5 40C399.5 38 404.92 36.04 413 41L417 34C412.52 30.8 407.8 29 403 29C396.68 29 390 33 390 40C390 44.5 391.58 46.9 393.5 48.5C399.66 53.7 408.5 52 408.5 57C408.5 61 397 58.28 393 55L389 62Z" fill="black"/>
<path d="M455 43C455 32 446 29 437 29C431.443 29 426.5 30.5 424 32C427 40 424 32 427 40C430.432 39.0194 432.669 38 437 38C437 38 445 38 445 45.5C445 45.5 442.579 44 434 44C425.174 44 421 49.5 421 56C421 63 427.28 67 433 67C441.499 67 443.938 63.5624 445 62.5V67H455V44C455 44 455 43.7355 455 43ZM437 60C434 60 431 59 431 56C431 53 433 50 438 50C441.759 50 445 51.5 445 51.5V54.5C445 54.5817 444.355 60 437 60Z" fill="black"/>
<path d="M459 67C459 67 466.53 67 469 67C469 62.6356 469 49 469 49C471 39 481 39 481 39C481 34.718 481 29.0001 481 29.0001C481 29.0001 471 29 469 37V29H459V67Z" fill="black"/>
<path d="M499 65C497 72 490 67 490 67L487 75C489.8 77 494.2 78 497 78C503 78 505 75 509 65C509 65 509 65 524 29H512L504 53L496 29H484L499 65Z" fill="black"/>
<g clip-path="url(#clip0)">
<path d="M6 52.6L30 61L54 50.2L74.4 43L80.4 37L66 19L32.4 11.8L18 27.4L6 52.6Z" fill="url(#paint0_linear)"/>
<path d="M38.4 74.2L66 67L74.4 43L19.2 29.8L6 52.6L38.4 74.2Z" fill="url(#paint1_linear)"/>
<path d="M74.4 43L58.8 46.6L52.8 62.2L18 52.6H6L18 32.2L36.6741 57.6642L32.4 11.8L10.8 22.6L6 52.6L30 81.4L52.8 62.2L66 67L74.4 43Z" fill="url(#paint2_linear)"/>
<path d="M18 19H66V67H18V19Z" fill="black"/>
<path d="M23.1428 36.4857C23.1428 30.6571 27.6 25.8571 33.7714 25.8571C37.5428 25.8571 39.9429 27.2285 42 28.9428L39.2571 32.3714C37.5428 31 35.8286 29.9714 33.7714 29.9714C30.3428 29.9714 27.9428 32.7143 27.9428 36.4857C27.9428 39.9143 30.3428 43 33.7714 43C36.1714 43 37.5428 41.9714 39.2571 40.6L42 43.3428C39.9429 45.7428 37.5428 47.1143 33.7714 47.1143C27.6 47.1143 23.1428 42.3143 23.1428 36.4857Z" fill="white"/>
<path d="M42 36.4857C42 30.6571 46.4571 25.8571 52.6286 25.8571C56.4 25.8571 58.8 27.2285 60.8571 28.9428L58.1143 32.3714C56.4 31 54.6857 29.9714 52.6286 29.9714C49.2 29.9714 46.8 32.7143 46.8 36.4857C46.8 39.9143 49.2 43 52.6286 43C55.0286 43 56.4 41.9714 58.1143 40.6L60.8571 43.3428C58.8 45.7428 56.4 47.1143 52.6286 47.1143C46.4571 47.1143 42 42.3143 42 36.4857Z" fill="white"/>
<path d="M24.8571 56.7143H45.4286V60.1429H24.8571V56.7143Z" fill="white"/>
<rect x="52.7314" y="34.6343" width="8.12571" height="3.97714" fill="white"/>
<rect x="56.7426" y="36.6231" width="4.11429" height="6.72" fill="white"/>
</g>
<defs>
<linearGradient id="paint0_linear" x1="46.4752" y1="37.3619" x2="45.9535" y2="8.35587" gradientUnits="userSpaceOnUse">
<stop offset="0.3737" stop-color="#FEB51A"/>
<stop offset="0.4306" stop-color="#FEAD1A"/>
<stop offset="0.6448" stop-color="#FD941C"/>
<stop offset="0.8406" stop-color="#FC851D"/>
<stop offset="1" stop-color="#FC801D"/>
</linearGradient>
<linearGradient id="paint1_linear" x1="68.7204" y1="53.8427" x2="32.6177" y2="20.0543" gradientUnits="userSpaceOnUse">
<stop offset="0.3737" stop-color="#FEB51A"/>
<stop offset="0.417" stop-color="#FEAD1A"/>
<stop offset="0.5802" stop-color="#FD941C"/>
<stop offset="0.7294" stop-color="#FC851D"/>
<stop offset="0.8508" stop-color="#FC801D"/>
<stop offset="0.9836" stop-color="#F26522"/>
</linearGradient>
<linearGradient id="paint2_linear" x1="3.26244" y1="17.4305" x2="52.6273" y2="80.1825" gradientUnits="userSpaceOnUse">
<stop offset="0.0417113" stop-color="#7D11EF"/>
<stop offset="0.1162" stop-color="#A019CB"/>
<stop offset="0.2019" stop-color="#C220A8"/>
<stop offset="0.283" stop-color="#DA268F"/>
<stop offset="0.3569" stop-color="#E92980"/>
<stop offset="0.417" stop-color="#EE2A7B"/>
<stop offset="1" stop-color="#F26522"/>
</linearGradient>
<clipPath id="clip0">
<rect width="76.8" height="76.8" fill="white" transform="translate(3.6 4.59998)"/>
</clipPath>
</defs>
</svg>
