<svg width="48" height="48" viewBox="0 0 48 48" fill="none" xmlns="http://www.w3.org/2000/svg">
<path d="M-3.8147e-06 0H48V48H-3.8147e-06V0Z" fill="black"/>
<path d="M5.14285 17.4857C5.14285 11.6571 9.59999 6.85712 15.7714 6.85712C19.5428 6.85712 21.9429 8.22855 24 9.94283L21.2571 13.3714C19.5428 12 17.8286 10.9714 15.7714 10.9714C12.3428 10.9714 9.94285 13.7143 9.94285 17.4857C9.94285 20.9143 12.3428 24 15.7714 24C18.1714 24 19.5428 22.9714 21.2571 21.6L24 24.3428C21.9429 26.7428 19.5428 28.1143 15.7714 28.1143C9.59999 28.1143 5.14285 23.3143 5.14285 17.4857Z" fill="white"/>
<path d="M24 17.4857C24 11.6571 28.4571 6.85712 34.6286 6.85712C38.4 6.85712 40.8 8.22855 42.8571 9.94283L40.1143 13.3714C38.4 12 36.6857 10.9714 34.6286 10.9714C31.2 10.9714 28.8 13.7143 28.8 17.4857C28.8 20.9143 31.2 24 34.6286 24C37.0286 24 38.4 22.9714 40.1143 21.6L42.8571 24.3428C40.8 26.7428 38.4 28.1143 34.6286 28.1143C28.4571 28.1143 24 23.3143 24 17.4857Z" fill="white"/>
<path d="M6.85715 37.7143H27.4286V41.1429H6.85715V37.7143Z" fill="white"/>
<rect x="34.7314" y="15.6343" width="8.12571" height="3.97714" fill="white"/>
<rect x="38.7426" y="17.6231" width="4.11429" height="6.72" fill="white"/>
</svg>
