<svg width="16" height="16" viewBox="0 0 16 16" fill="none" xmlns="http://www.w3.org/2000/svg">
<path fill-rule="evenodd" clip-rule="evenodd" d="M5.768 6.429C6.47776 6.14472 7.23543 5.9991 8 6C8.787 6 9.54 6.152 10.228 6.427L11.63 4L12.496 4.5L11.124 6.876C12.0028 7.41149 12.729 8.16415 13.2327 9.06155C13.7364 9.95896 14.0006 10.9709 14 12H2C1.9994 10.9715 2.26335 9.96018 2.76649 9.06318C3.26963 8.16618 3.99504 7.41368 4.873 6.878L3.5 4.5L4.366 4L5.768 6.429ZM5 9V10H6V9H5ZM10 9V10H11V9H10Z" fill="#3DDC84"/>
</svg>
