<svg width="16" height="16" viewBox="0 0 16 16" fill="none" xmlns="http://www.w3.org/2000/svg">
<path d="M11.7526 1H4.24742C2.45392 1 1 2.45392 1 4.24742V11.7526C1 13.5461 2.45392 15 4.24742 15H11.7526C13.5461 15 15 13.5461 15 11.7526V4.24742C15 2.45392 13.5461 1 11.7526 1Z" fill="url(#paint0_linear_1317_20048)" stroke="#D9D9D9" stroke-width="0.0714286"/>
<path fill-rule="evenodd" clip-rule="evenodd" d="M3.30087 10.8536H2.97156V6.45301H3.30087V10.8536ZM3.13152 5.37429C2.99265 5.37429 2.87781 5.26413 2.87781 5.12525C2.87781 4.98228 2.99207 4.87154 3.13152 4.87154C3.2745 4.87154 3.38817 4.9817 3.38817 5.12525C3.38817 5.26413 3.2745 5.37429 3.13152 5.37429Z" fill="black"/>
<path fill-rule="evenodd" clip-rule="evenodd" d="M6.49941 10.9392C4.88919 10.9392 3.87195 9.76665 3.87195 7.90277C3.87195 6.0482 4.89388 4.87105 6.49941 4.87105C8.10493 4.87105 9.12628 6.04827 9.12628 7.90277C9.12628 9.76672 8.10905 10.9392 6.49941 10.9392ZM6.49941 5.17392C5.09782 5.17392 4.20305 6.23215 4.20305 7.9027C4.20305 9.57447 5.10193 10.6368 6.49941 10.6368C7.90099 10.6368 8.79577 9.57447 8.79577 7.9027C8.79577 6.23157 7.90099 5.17392 6.49941 5.17392Z" fill="black"/>
<path fill-rule="evenodd" clip-rule="evenodd" d="M11.4711 10.9397C10.2623 10.9397 9.39565 10.257 9.34644 9.2808H9.6693C9.71852 10.0813 10.4704 10.6414 11.4958 10.6414C12.4965 10.6414 13.195 10.073 13.195 9.30541C13.195 8.68781 12.7784 8.3327 11.7899 8.08366L11.0914 7.91197C10.001 7.63364 9.5058 7.19242 9.5058 6.45352C9.5058 5.53414 10.3642 4.87202 11.4389 4.87202C12.5499 4.87202 13.3796 5.52595 13.4165 6.39203H13.0937C13.0485 5.68537 12.3583 5.17028 11.4307 5.17028C10.5436 5.17028 9.83682 5.70175 9.83682 6.44529C9.83682 7.03418 10.2699 7.3729 11.2174 7.6096L11.8754 7.77718C13.0151 8.05903 13.526 8.49674 13.526 9.28074C13.526 10.2569 12.7051 10.9396 11.4711 10.9396V10.9397Z" fill="black"/>
<defs>
<linearGradient id="paint0_linear_1317_20048" x1="8" y1="8" x2="8" y2="15" gradientUnits="userSpaceOnUse">
<stop offset="1" stop-color="#E9E5E5"/>
</linearGradient>
</defs>
</svg>
