<svg width="13" height="13" viewBox="0 0 13 13" fill="none" xmlns="http://www.w3.org/2000/svg">
<path fill-rule="evenodd" clip-rule="evenodd" d="M3 1H10C10.5523 1 11 1.44772 11 2V11C11 11.5523 10.5523 12 10 12H3C2.44772 12 2 11.5523 2 11V2C2 1.44772 2.44772 1 3 1ZM4 2C3.44772 2 3 2.44772 3 3V4C3 4.55228 3.44772 5 4 5H9C9.55228 5 10 4.55228 10 4V3C10 2.44772 9.55228 2 9 2H4ZM3.29289 6.29289V7.70711H4.70711V6.29289H3.29289ZM5.79289 6.29289V7.70711H7.20711V6.29289H5.79289ZM8.29289 6.29289V7.70711H9.70711V6.29289H8.29289ZM8.29289 9.29289V10.7071H9.70711V9.29289H8.29289ZM5.79289 9.29289V10.7071H7.20711V9.29289H5.79289ZM3.29289 9.29289V10.7071H4.70711V9.29289H3.29289Z" fill="#C4C4C4"/>
</svg>
