<svg width="16" height="16" viewBox="0 0 16 16" fill="none" xmlns="http://www.w3.org/2000/svg">
<path d="M13.611 4.35406L13.9401 3.54738C13.9401 3.54738 13.5261 3.10159 13.0166 2.59212C12.5072 2.08264 11.4351 2.37983 11.4351 2.37983L10.2145 1H8.07047H5.91581L4.69519 2.39045C4.69519 2.39045 3.62316 2.09325 3.11369 2.60273C2.60421 3.11221 2.19026 3.558 2.19026 3.558L2.5193 4.36467L2.10535 5.55345C2.10535 5.55345 3.33658 10.2024 3.47457 10.7756C3.76115 11.8901 3.9522 12.3252 4.75887 12.8984C5.56554 13.4716 7.01968 14.4481 7.2638 14.5967C7.49731 14.7453 7.80512 15 8.07047 15C8.33582 15 8.63302 14.7453 8.87714 14.5967C9.11065 14.4481 10.5754 13.461 11.3821 12.8984C12.1887 12.3359 12.3798 11.9007 12.6664 10.7756C12.815 10.2024 14.0356 5.55345 14.0356 5.55345L13.611 4.35406Z" fill="url(#paint0_linear_528_19613)"/>
<path d="M11.0955 3.27141C11.0955 3.27141 12.6664 5.17134 12.6664 5.58529C12.6664 5.99924 12.4647 6.09476 12.263 6.30705C12.0614 6.51933 11.191 7.44275 11.0849 7.55951C10.9681 7.67626 10.7452 7.8567 10.8726 8.18574C11.0106 8.50416 11.2122 8.91811 10.9893 9.34268C10.7664 9.75663 10.3843 10.0432 10.1402 9.99014C9.89608 9.94768 9.3123 9.63987 9.10002 9.50189C8.88774 9.36391 8.21905 8.81197 8.21905 8.59969C8.21905 8.38741 8.91958 8.0053 9.04695 7.92039C9.17432 7.83548 9.7581 7.49583 9.76871 7.36846C9.77932 7.24109 9.77932 7.19863 9.59889 6.86959C9.42906 6.54056 9.11064 6.10538 9.16371 5.8188C9.21678 5.53222 9.71564 5.38362 10.0765 5.24564C10.4374 5.10765 11.1273 4.85291 11.2122 4.81046C11.2971 4.768 11.2759 4.73616 11.0106 4.70432C10.7452 4.68309 10.0128 4.57695 9.67318 4.67247C9.33353 4.768 8.77099 4.90598 8.71791 4.98028C8.67546 5.05458 8.633 5.05458 8.67546 5.31993C8.71791 5.57467 8.97265 6.82714 8.99388 7.05003C9.01511 7.27293 9.06818 7.42153 8.82406 7.4746C8.59055 7.52767 8.18721 7.62319 8.04923 7.62319C7.91124 7.62319 7.50791 7.52767 7.2744 7.4746C7.04089 7.42153 7.08334 7.27293 7.10457 7.05003C7.1258 6.82714 7.36992 5.58529 7.42299 5.31993C7.46545 5.0652 7.43361 5.05458 7.38054 4.98028C7.33808 4.90598 6.76492 4.768 6.42527 4.67247C6.08562 4.57695 5.35324 4.67247 5.08789 4.70432C4.82254 4.72554 4.80131 4.768 4.88622 4.81046C4.97114 4.85291 5.66105 5.10765 6.02193 5.24564C6.38281 5.38362 6.88168 5.53222 6.93475 5.8188C6.98782 6.10538 6.68001 6.54056 6.49957 6.86959C6.32974 7.19863 6.31913 7.23047 6.32974 7.36846C6.34036 7.49583 6.92413 7.83548 7.0515 7.92039C7.17887 8.0053 7.8794 8.38741 7.8794 8.59969C7.8794 8.81197 7.21071 9.36391 6.99843 9.50189C6.78615 9.63987 6.21299 9.93707 5.95825 9.99014C5.71412 10.0326 5.33202 9.75663 5.10912 9.34268C4.88622 8.92873 5.08789 8.51478 5.22588 8.18574C5.36386 7.86732 5.13035 7.68688 5.01359 7.55951C4.92868 7.43214 4.06894 6.50871 3.86727 6.30705C3.6656 6.09476 3.47455 5.98862 3.47455 5.58529C3.47455 5.18195 5.04544 3.27141 5.04544 3.27141C5.04544 3.27141 6.3722 3.52615 6.55264 3.52615C6.73308 3.52615 7.11519 3.37755 7.47606 3.2608C7.83694 3.14404 8.07045 3.14404 8.07045 3.14404C8.07045 3.14404 8.30396 3.14404 8.66484 3.2608C9.02572 3.37755 9.40783 3.52615 9.58827 3.52615C9.76871 3.52615 11.0955 3.27141 11.0955 3.27141ZM9.91731 10.5421C10.0128 10.6058 9.95976 10.7225 9.86424 10.7756C9.77932 10.8393 8.57993 11.7627 8.47379 11.8688C8.35704 11.975 8.18721 12.1342 8.07045 12.1342C7.9537 12.1342 7.78387 11.9644 7.66712 11.8688C7.55036 11.7627 6.36158 10.8393 6.27667 10.7756C6.19176 10.7119 6.12807 10.5951 6.2236 10.5421C6.31913 10.4784 6.62694 10.3298 7.04089 10.1069C7.46545 9.884 7.98554 9.70356 8.07045 9.70356C8.15537 9.70356 8.67546 9.884 9.10002 10.1069C9.51397 10.3298 9.81117 10.489 9.91731 10.5421Z" fill="white"/>
<path d="M11.4352 2.39045L10.2145 1H8.07049H5.91583L4.69521 2.39045C4.69521 2.39045 3.62319 2.09325 3.11371 2.60273C3.11371 2.60273 4.54661 2.47536 5.03486 3.27142C5.03486 3.27142 6.36162 3.52616 6.54206 3.52616C6.7225 3.52616 7.10461 3.37756 7.46549 3.2608C7.82637 3.14405 8.05988 3.14405 8.05988 3.14405C8.05988 3.14405 8.29339 3.14405 8.65427 3.2608C9.01515 3.37756 9.39726 3.52616 9.5777 3.52616C9.75814 3.52616 11.0849 3.27142 11.0849 3.27142C11.5731 2.47536 13.0061 2.60273 13.0061 2.60273C12.5072 2.09325 11.4352 2.39045 11.4352 2.39045Z" fill="url(#paint1_linear_528_19613)"/>
<defs>
<linearGradient id="paint0_linear_528_19613" x1="2.10512" y1="7.99964" x2="14.0356" y2="7.99964" gradientUnits="userSpaceOnUse">
<stop stop-color="#FF5500"/>
<stop offset="0.4099" stop-color="#FF5500"/>
<stop offset="0.582" stop-color="#FF2000"/>
<stop offset="1" stop-color="#FF2000"/>
</linearGradient>
<linearGradient id="paint1_linear_528_19613" x1="3.33067" y1="2.2631" x2="13.0133" y2="2.2631" gradientUnits="userSpaceOnUse">
<stop stop-color="#FF452A"/>
<stop offset="1" stop-color="#FF2000"/>
</linearGradient>
</defs>
</svg>
