<svg width="16" height="16" viewBox="0 0 16 16" fill="none" xmlns="http://www.w3.org/2000/svg">
<path d="M13.6359 11.4195C13.4492 11.5171 13.2567 11.6031 13.0595 11.6771C12.4317 11.912 11.7666 12.0316 11.0963 12.0303C8.50868 12.0303 6.2546 10.2504 6.2546 7.9662C6.25792 7.65984 6.34293 7.35992 6.50087 7.09739C6.65881 6.83486 6.88396 6.61923 7.15306 6.47278C4.81258 6.57121 4.21106 9.01012 4.21106 10.439C4.21106 14.4791 7.9345 14.8887 8.73671 14.8887C9.16926 14.8887 9.82165 14.7629 10.2132 14.6393L10.2848 14.6152C11.7915 14.0944 13.0759 13.0761 13.9268 11.7279C13.9528 11.6869 13.9645 11.6383 13.9598 11.5899C13.9552 11.5415 13.9346 11.496 13.9012 11.4606C13.8678 11.4252 13.8236 11.402 13.7756 11.3945C13.7275 11.3871 13.6784 11.3959 13.6359 11.4195Z" fill="url(#paint0_linear_528_19556)"/>
<path opacity="0.35" d="M13.6359 11.4195C13.4492 11.5171 13.2567 11.6031 13.0595 11.6771C12.4317 11.912 11.7666 12.0316 11.0963 12.0303C8.50868 12.0303 6.2546 10.2504 6.2546 7.9662C6.25792 7.65984 6.34293 7.35992 6.50087 7.09739C6.65881 6.83486 6.88396 6.61923 7.15306 6.47278C4.81258 6.57121 4.21106 9.01012 4.21106 10.439C4.21106 14.4791 7.9345 14.8887 8.73671 14.8887C9.16926 14.8887 9.82165 14.7629 10.2132 14.6393L10.2848 14.6152C11.7915 14.0944 13.0759 13.0761 13.9268 11.7279C13.9528 11.6869 13.9645 11.6383 13.9598 11.5899C13.9552 11.5415 13.9346 11.496 13.9012 11.4606C13.8678 11.4252 13.8236 11.402 13.7756 11.3945C13.7275 11.3871 13.6784 11.3959 13.6359 11.4195Z" fill="url(#paint1_radial_528_19556)"/>
<path d="M6.78175 14.2018C6.29401 13.8991 5.87131 13.5024 5.53824 13.0349C5.15861 12.5148 4.89738 11.9179 4.77286 11.2861C4.64834 10.6544 4.66354 10.003 4.81741 9.37777C4.97127 8.75251 5.26008 8.16848 5.66356 7.66665C6.06704 7.16483 6.57542 6.75735 7.15306 6.4728C7.32367 6.39242 7.61514 6.24696 8.00285 6.25407C8.276 6.25606 8.54498 6.32127 8.78871 6.44461C9.03245 6.56795 9.2443 6.74605 9.40768 6.96496C9.62851 7.25981 9.75027 7.61703 9.75548 7.98537C9.75548 7.97388 11.093 3.63251 5.38075 3.63251C2.98012 3.63251 1.00602 5.91065 1.00602 7.90935C0.996555 8.96664 1.22277 10.0127 1.66825 10.9716C2.39627 12.525 3.66939 13.7569 5.24584 14.4334C6.82229 15.1099 8.5923 15.184 10.2197 14.6415C9.64991 14.8212 9.04789 14.8751 8.45519 14.7996C7.8625 14.724 7.29324 14.5208 6.78668 14.204L6.78175 14.2018Z" fill="url(#paint2_linear_528_19556)"/>
<path opacity="0.41" d="M6.78175 14.2018C6.29401 13.8991 5.87131 13.5024 5.53824 13.0349C5.15861 12.5148 4.89738 11.9179 4.77286 11.2861C4.64834 10.6544 4.66354 10.003 4.81741 9.37777C4.97127 8.75251 5.26008 8.16848 5.66356 7.66665C6.06704 7.16483 6.57542 6.75735 7.15306 6.4728C7.32367 6.39242 7.61514 6.24696 8.00285 6.25407C8.276 6.25606 8.54498 6.32127 8.78871 6.44461C9.03245 6.56795 9.2443 6.74605 9.40768 6.96496C9.62851 7.25981 9.75027 7.61703 9.75548 7.98537C9.75548 7.97388 11.093 3.63251 5.38075 3.63251C2.98012 3.63251 1.00602 5.91065 1.00602 7.90935C0.996555 8.96664 1.22277 10.0127 1.66825 10.9716C2.39627 12.525 3.66939 13.7569 5.24584 14.4334C6.82229 15.1099 8.5923 15.184 10.2197 14.6415C9.64991 14.8212 9.04789 14.8751 8.45519 14.7996C7.8625 14.724 7.29324 14.5208 6.78668 14.204L6.78175 14.2018Z" fill="url(#paint3_radial_528_19556)"/>
<path d="M9.33003 9.14027C9.28573 9.19769 9.14957 9.27698 9.14957 9.44978C9.14957 9.59251 9.24253 9.72977 9.40768 9.84515C10.194 10.392 11.6765 10.3198 11.6803 10.3198C12.263 10.3184 12.8347 10.1607 13.3356 9.86319C13.841 9.5681 14.2605 9.14599 14.5524 8.63874C14.8443 8.13149 14.9985 7.55674 14.9997 6.9715C15.0139 5.74603 14.5622 4.93124 14.3796 4.57032C13.2208 2.30367 10.7195 1 7.99956 1C6.16009 0.999818 4.39448 1.72374 3.0846 3.0152C1.77472 4.30666 1.02587 6.06184 1 7.90113C1.02625 5.90297 3.01237 4.28925 5.37473 4.28925C5.56612 4.28925 6.65762 4.30784 7.67146 4.83992C8.565 5.3091 9.03309 5.87563 9.35846 6.43724C9.69641 7.02072 9.75656 7.75786 9.75656 8.05151C9.75656 8.34516 9.60673 8.78045 9.33003 9.14027Z" fill="url(#paint4_radial_528_19556)"/>
<path d="M9.33003 9.14027C9.28573 9.19769 9.14957 9.27698 9.14957 9.44978C9.14957 9.59251 9.24253 9.72977 9.40768 9.84515C10.194 10.392 11.6765 10.3198 11.6803 10.3198C12.263 10.3184 12.8347 10.1607 13.3356 9.86319C13.841 9.5681 14.2605 9.14599 14.5524 8.63874C14.8443 8.13149 14.9985 7.55674 14.9997 6.9715C15.0139 5.74603 14.5622 4.93124 14.3796 4.57032C13.2208 2.30367 10.7195 1 7.99956 1C6.16009 0.999818 4.39448 1.72374 3.0846 3.0152C1.77472 4.30666 1.02587 6.06184 1 7.90113C1.02625 5.90297 3.01237 4.28925 5.37473 4.28925C5.56612 4.28925 6.65762 4.30784 7.67146 4.83992C8.565 5.3091 9.03309 5.87563 9.35846 6.43724C9.69641 7.02072 9.75656 7.75786 9.75656 8.05151C9.75656 8.34516 9.60673 8.78045 9.33003 9.14027Z" fill="url(#paint5_radial_528_19556)"/>
<defs>
<linearGradient id="paint0_linear_528_19556" x1="4.21106" y1="10.6818" x2="13.9634" y2="10.6818" gradientUnits="userSpaceOnUse">
<stop stop-color="#0C59A4"/>
<stop offset="1" stop-color="#114A8B"/>
</linearGradient>
<radialGradient id="paint1_radial_528_19556" cx="0" cy="0" r="1" gradientUnits="userSpaceOnUse" gradientTransform="translate(9.59744 10.7587) scale(5.21577 4.95498)">
<stop offset="0.72" stop-opacity="0"/>
<stop offset="0.95" stop-opacity="0.53"/>
<stop offset="1"/>
</radialGradient>
<linearGradient id="paint2_linear_528_19556" x1="9.35245" y1="6.45148" x2="3.26119" y2="13.0863" gradientUnits="userSpaceOnUse">
<stop stop-color="#1B9DE2"/>
<stop offset="0.16" stop-color="#1595DF"/>
<stop offset="0.67" stop-color="#0680D7"/>
<stop offset="1" stop-color="#0078D4"/>
</linearGradient>
<radialGradient id="paint3_radial_528_19556" cx="0" cy="0" r="1" gradientUnits="userSpaceOnUse" gradientTransform="translate(4.8604 11.8826) rotate(-81.3844) scale(7.84312 6.33646)">
<stop offset="0.76" stop-opacity="0"/>
<stop offset="0.95" stop-opacity="0.5"/>
<stop offset="1"/>
</radialGradient>
<radialGradient id="paint4_radial_528_19556" cx="0" cy="0" r="1" gradientUnits="userSpaceOnUse" gradientTransform="translate(2.41427 3.59076) rotate(92.2906) scale(11.0786 23.595)">
<stop stop-color="#35C1F1"/>
<stop offset="0.11" stop-color="#34C1ED"/>
<stop offset="0.23" stop-color="#2FC2DF"/>
<stop offset="0.31" stop-color="#2BC3D2"/>
<stop offset="0.67" stop-color="#36C752"/>
</radialGradient>
<radialGradient id="paint5_radial_528_19556" cx="0" cy="0" r="1" gradientUnits="userSpaceOnUse" gradientTransform="translate(14.1281 5.23288) rotate(73.7398) scale(5.32295 4.32862)">
<stop stop-color="#66EB6E"/>
<stop offset="1" stop-color="#66EB6E" stop-opacity="0"/>
</radialGradient>
</defs>
</svg>
