<svg width="16" height="16" viewBox="0 0 16 16" fill="none" xmlns="http://www.w3.org/2000/svg">
<path d="M12.124 2.67714C11.7836 2.33692 11.3704 2.16676 10.8842 2.16676C10.3983 2.16676 9.98506 2.33682 9.64474 2.67714C9.30454 3.01737 9.13445 3.43051 9.13445 3.91672C9.13445 4.23268 9.21321 4.52588 9.3712 4.79626C9.52917 5.06666 9.74166 5.27787 10.0092 5.42971C10.0092 5.74567 9.98352 6.02377 9.93197 6.26375C9.88018 6.50373 9.7952 6.71478 9.67676 6.8972C9.558 7.07953 9.43521 7.23436 9.30751 7.36203C9.17978 7.4897 9.00052 7.60961 8.76964 7.72208C8.53879 7.83449 8.32445 7.92857 8.12703 8.00464C7.9296 8.08047 7.66367 8.17008 7.32948 8.27342C6.72176 8.46187 6.25396 8.63491 5.9258 8.793V4.26292C6.19317 4.11111 6.40586 3.89993 6.56382 3.62953C6.72176 3.35912 6.80074 3.06589 6.80074 2.74993C6.80074 2.26388 6.63067 1.85064 6.29035 1.51042C5.95016 1.17022 5.53702 1 5.05084 1C4.56462 1 4.15148 1.1701 3.81116 1.51042C3.47097 1.85064 3.30078 2.26388 3.30078 2.74993C3.30078 3.06589 3.37976 3.35912 3.53769 3.62953C3.69566 3.89993 3.90831 4.11111 4.17571 4.26292V11.7371C3.90831 11.8888 3.69566 12.1002 3.53769 12.3705C3.37976 12.641 3.30078 12.9343 3.30078 13.2501C3.30078 13.7362 3.47084 14.1494 3.81116 14.4896C4.15148 14.8298 4.56472 15 5.05084 15C5.53693 15 5.95016 14.8298 6.29035 14.4896C6.63058 14.1494 6.80074 13.7362 6.80074 13.2501C6.80074 12.9343 6.72176 12.641 6.56382 12.3705C6.40583 12.1002 6.19317 11.8888 5.9258 11.7371V11.5001C5.9258 11.0809 6.05188 10.7772 6.30402 10.5888C6.55616 10.4003 7.07114 10.1846 7.84902 9.94163C8.66946 9.68029 9.28632 9.43405 9.69949 9.20307C11.0606 8.43155 11.7472 7.17367 11.7593 5.42968C12.0269 5.27787 12.2394 5.06663 12.3973 4.79622C12.5552 4.52582 12.6343 4.23265 12.6343 3.91669C12.6344 3.4306 12.4642 3.01746 12.124 2.67714Z" fill="#AFB1B3"/>
</svg>
