<svg width="118" height="118" viewBox="0 0 118 118" fill="none" xmlns="http://www.w3.org/2000/svg">
    <g clip-path="url(#clip0_604_5206)">
        <path d="M56.9436 64.5238C53.8821 65.4208 50.8206 66.3293 47.7592 67.2148C47.3895 67.3183 47.0198 67.4103 46.6386 67.4563C44.4089 67.6748 42.5836 68.4797 40.7467 69.9287C37.1422 72.7577 35.8252 76.4836 35.1783 80.7271C34.5313 84.959 32.2092 88.248 28.651 90.709C29.3904 89.605 30.1875 88.547 30.8576 87.4085C32.6598 84.384 33.3183 81.0491 33.8266 77.5991C34.1154 75.6672 35.1436 73.8387 35.9061 71.9872C36.6917 70.0897 37.5928 68.2382 38.3553 66.3293C39.3141 63.9603 41.2665 62.6953 43.45 61.7753C47.5512 60.0388 51.6986 58.4519 55.823 56.7844C59.0115 55.4849 64.0947 56.0139 65.9085 58.2564C68.2999 61.2118 68.4732 63.1553 65.5041 65.6048C61.9343 68.5372 58.7227 71.9182 55.4417 75.1842C54.3211 76.2996 53.4431 77.6566 52.4496 78.8986C52.5073 79.0481 52.5651 79.1976 52.6229 79.3586C53.5355 79.1976 54.4482 79.0711 55.3493 78.8526C57.9487 78.2201 60.0281 78.8411 61.195 80.6466C62.1538 82.1186 61.7264 83.5101 60.005 83.7745C58.249 84.0505 56.4353 83.9585 54.6446 84.039C53.0041 84.108 51.3521 84.1771 49.7116 84.3035C49.3534 84.3265 48.926 84.4875 48.6834 84.7405C44.2934 88.9955 39.9149 93.2734 35.5595 97.5514C35.3516 97.7584 35.2707 98.0919 35.2245 98.1724C37.7661 98.1724 40.4001 98.5404 42.8724 98.0804C46.523 97.4019 49.9657 97.9309 53.4084 98.8854C56.3313 99.7019 56.4468 99.5984 57.8909 96.8959C59.1039 94.6304 60.5711 92.4914 62.0383 90.3755C64.0254 87.512 65.2269 84.4875 65.2153 80.9226C65.2153 78.8296 65.481 76.5986 66.2435 74.6667C67.3872 71.7572 69.0624 69.0432 70.5411 66.2603C71.9967 63.5118 73.8567 60.9128 74.8734 58.0264C76.3868 53.7484 79.2172 51.368 83.4455 50.1605C85.6058 49.5395 87.6969 49.1485 89.8688 49.85C91.8212 50.4825 93.2537 51.9084 94.0278 53.6794C95.0213 55.9564 95.83 58.3714 96.2459 60.8093C96.7311 63.7418 95.6682 66.4903 93.8891 68.8247C92.2371 70.9982 90.1576 72.8612 88.5518 75.0692C87.2463 76.8631 86.403 78.9791 85.2824 80.9111C84.7509 81.8311 84.1733 82.7626 83.4339 83.5101C81.9552 84.9935 80.2685 84.4415 79.7948 82.3946C79.1017 79.3931 80.0721 76.6791 81.5508 74.2067C83.2375 71.3892 85.2708 68.7902 87.1077 66.0533C88.7713 63.5693 88.9215 60.8323 88.1705 58.0264C87.951 57.1984 87.385 57.0259 86.4376 57.0834C84.1733 57.2214 82.5906 58.2334 81.5277 60.1423C79.3212 64.1098 75.8322 67.0193 72.9787 70.4462C71.6617 72.0332 70.3447 73.6777 69.3974 75.4947C68.866 76.5181 68.6234 78.1281 69.0624 79.1171C71.0379 83.6251 70.3909 87.8685 68.4963 92.1579C67.9417 93.3999 67.5836 94.7569 67.3295 96.0909C67.2024 96.7349 67.5259 97.4594 67.6183 98.0344C70.2061 95.9874 72.5282 94.0209 75.0005 92.2499C76.0864 91.4795 77.415 90.916 78.7204 90.617C79.4829 90.4445 80.4071 90.962 81.262 91.169C80.9848 92.0659 80.9616 93.2044 80.384 93.8024C77.6229 96.6544 74.677 99.3339 71.8466 102.117C70.6451 103.301 69.2588 103.899 67.676 103.37C65.8045 102.749 64.8456 101.151 64.9034 99.2994C64.9611 97.2409 65.3308 95.1709 65.8392 93.1699C66.4283 90.87 67.3064 88.639 68.0919 86.2815C67.7338 86.3045 67.5721 86.27 67.5374 86.3275C65.5157 89.628 63.4708 92.9169 61.4953 96.2519C60.8022 97.4249 60.3401 98.7474 59.6469 99.9318C59.3119 100.507 58.5032 101.415 58.2144 101.312C56.5854 100.737 55.5457 102.381 54.0901 102.197C52.6229 102.013 51.1326 101.921 49.6769 101.668C45.1367 100.886 40.6312 101.875 36.1025 101.921C34.7739 101.933 33.4685 102.956 32.1168 103.382C31.0193 103.715 29.7947 103.934 29.0322 102.692C28.2351 101.392 28.6163 100.024 29.4481 99.0234C31.0886 97.0569 32.9486 95.2744 34.7393 93.4229C37.1422 90.939 39.5452 88.4665 41.9366 85.971C42.1792 85.718 42.2947 85.327 42.5258 84.913C41.2088 84.913 40.0189 85.005 38.8636 84.867C38.4708 84.821 37.974 84.223 37.8701 83.7861C37.8123 83.5331 38.3668 82.9696 38.7596 82.8086C39.8109 82.3601 40.92 81.8196 42.029 81.7506C43.7157 81.6586 44.3511 80.8421 44.7901 79.3586C45.7952 75.9317 48.4292 73.6087 50.8206 71.1707C52.9232 69.0317 55.1298 66.9963 57.2902 64.9148C57.1515 64.7998 57.0475 64.6618 56.9436 64.5238Z" fill="white"/>
        <path d="M8.78015 86.7185C8.05233 87.075 7.48625 87.3625 6.49272 87.857C6.88551 87.121 7.02414 86.73 7.26675 86.4425C8.82636 84.614 9.90077 82.7625 9.56574 80.1291C9.11518 76.5296 10.825 73.3327 12.1998 70.1242C13.4474 67.2262 14.8684 64.3858 15.9197 61.4073C16.6938 59.2108 16.8902 56.8189 17.5371 54.5649C18.831 50.0569 21.4766 46.3655 24.9308 43.2375C26.5251 41.7886 28.2118 40.4316 29.9332 39.1321C32.1051 37.4876 36.0445 38.0626 37.6157 40.3166C38.4937 41.5701 38.6208 43.088 37.9276 44.491C37.0034 46.354 35.7673 48.0675 35.0164 49.9879C33.8495 52.9779 32.9022 56.0599 32.0011 59.1418C30.8112 63.2243 28.2349 66.3292 25.2197 69.1582C22.9207 71.3202 20.5177 73.3672 18.2649 75.5866C17.0981 76.7251 16.0121 78.0131 15.1804 79.4046C14.6605 80.2786 14.6374 81.463 14.4756 82.521C14.233 84.0965 14.0482 85.672 13.8056 87.5465C14.4063 86.5 14.9493 85.6375 15.3999 84.7405C16.9133 81.716 18.0108 78.4041 19.9863 75.7131C21.9965 72.9877 24.8153 70.8487 27.3338 68.5027C28.2349 67.6632 29.6443 67.8472 30.0949 69.0432C30.5917 70.3542 30.7881 71.8607 30.7419 73.2752C30.6494 76.2651 30.5686 79.3011 30.0025 82.2335C29.5635 84.453 28.5468 86.6035 27.4724 88.6275C26.3172 90.8009 24.7922 92.7789 23.66 95.0674C24.7113 94.3199 25.7742 93.5724 26.8255 92.8249C26.9526 92.8939 27.0796 92.9744 27.2067 93.0434C25.0348 96.4474 22.9207 99.8858 20.6448 103.221C19.7783 104.486 18.5769 105.636 16.74 104.934C15.3883 104.405 14.6027 102.588 14.8107 100.633C15.1457 97.6548 16.5551 95.1134 18.3342 92.8134C21.3611 88.892 23.2441 84.614 23.3712 79.5886C23.4174 77.6221 23.972 75.6786 24.3185 73.6086C24.0066 73.8616 23.4868 74.1261 23.1864 74.5286C21.4881 76.8056 19.8476 79.1056 18.1725 81.4055C18.0801 81.5435 17.953 81.647 17.8606 81.7965C14.6605 86.8795 11.3564 91.8934 8.3296 97.0799C6.96638 99.4143 6.15769 102.082 5.1295 104.601C4.7367 105.555 4.08975 106.487 3.09622 105.923C2.35684 105.509 1.58281 104.348 1.59437 103.531C1.67524 99.7248 3.05001 96.3094 5.22192 93.1814C6.43495 91.4334 7.4747 89.5819 8.5722 87.7535C8.72239 87.512 8.69928 87.167 8.78015 86.7185ZM18.1956 69.2732C18.3458 69.3767 18.4844 69.4802 18.6346 69.5837C20.3098 67.6172 22.1235 65.7542 23.6023 63.6613C24.5265 62.3618 25.2543 60.7748 25.5316 59.2223C26.3865 54.4959 27.7728 50.0339 30.6725 46.1355C30.9614 45.7445 31.1346 45.25 31.5737 44.4105C30.8112 44.951 30.4761 45.227 30.1065 45.4455C26.2247 47.688 24.0297 51.1839 22.8976 55.3814C21.6961 59.8203 21.1647 64.4778 18.4267 68.3992C18.2649 68.6177 18.2649 68.9742 18.1956 69.2732Z" fill="white"/>
        <path d="M61.0792 53.7254C56.7932 53.1849 52.484 52.7364 48.2211 52.0579C45.2058 51.5749 42.9646 49.6199 42.4216 46.7334C41.8093 43.5135 43.2303 40.765 46.0954 38.856C47.8629 37.6831 49.5959 36.4641 51.2132 35.1071C53.2119 33.4281 55.5339 33.1061 57.9831 33.1061C60.9753 33.1061 64.0945 32.5656 66.9249 33.2441C70.1943 34.0261 73.5677 35.2681 75.8205 38.1316C77.4494 40.19 76.687 42.444 75.5663 44.284C72.528 49.3324 67.699 51.9544 62.1074 53.3459C61.7955 53.4264 61.4489 53.3574 61.1139 53.3574C61.1024 53.4839 61.0908 53.5989 61.0792 53.7254ZM48.741 40.397C47.8976 41.455 46.8348 42.3635 46.3611 43.5135C45.8643 44.7095 47.3315 46.6759 49.0875 46.8254C53.2812 47.1934 57.5441 47.5844 61.7146 47.2394C65.0649 46.6184 67.7683 45.1005 68.7502 44.3875C70.7604 43.226 70.564 41.777 68.577 40.535C68.0224 40.19 67.4563 39.868 66.8903 39.523C64.649 41.662 61.8879 42.5475 59.0229 43.203C55.2798 44.054 51.814 43.801 48.741 40.397ZM64.0598 38.0166C63.5977 37.7866 63.3782 37.5796 63.1472 37.5566C60.6402 37.3841 58.1333 37.1426 55.6264 37.1311C54.6906 37.1196 53.6971 37.5451 52.8306 37.9706C52.3223 38.2235 52.0104 38.879 51.606 39.3505C52.0797 39.6495 52.5187 40.098 53.0386 40.2245C56.9318 41.202 60.5363 40.581 64.0598 38.0166Z" fill="white"/>
        <path d="M100.127 76.38C100.798 76.2305 101.456 76.035 102.138 75.9545C103.917 75.7475 105.707 75.4025 107.475 75.4715C109.589 75.552 110.536 77.5185 109.185 79.094C106.297 82.4519 103.27 85.6949 100.162 88.8458C98.3945 90.6398 96.3728 92.1578 94.4666 93.8023C94.3511 93.6873 94.2356 93.5838 94.1316 93.4688C95.0558 92.5603 96.0031 91.6748 96.8927 90.7433C99.0184 88.5238 101.225 86.3619 103.177 83.9814C104.09 82.8774 104.494 81.3479 105.28 79.6575C102.727 80.1174 100.694 80.3819 98.7065 80.8649C97.3317 81.1984 96.2342 80.5889 95.7143 79.6689C95.2291 78.8065 95.0096 77.2425 95.4948 76.518C96.5577 74.908 98.0249 73.5165 99.5036 72.24C101.907 70.1816 104.471 68.2956 106.955 66.3291C107.244 66.0991 107.452 65.7771 107.949 65.2021C105.95 64.9606 104.229 64.6156 102.496 64.5581C100.543 64.5006 98.7758 63.7071 98.1866 62.0857C97.505 60.2112 98.2328 58.5437 99.3996 57.1062C101.329 54.7143 103.293 52.3453 105.338 50.0453C107.348 47.8028 109.485 45.6639 112.385 44.5829C113.066 44.3299 114.106 44.2839 114.661 44.6404C115.077 44.9164 115.054 45.9744 115.088 46.6874C115.181 48.5733 113.887 49.8153 112.708 50.9653C111.022 52.6098 110.074 54.5993 109.289 56.7267C109.115 57.1982 108.711 57.5892 108.191 58.3137C108.988 58.3137 109.485 58.2792 109.97 58.3252C111.588 58.4747 113.309 58.3482 114.788 58.8887C116.613 59.5557 116.948 61.2577 115.55 62.5802C112.974 65.0066 110.201 67.2261 107.498 69.5261C104.968 71.6766 102.415 73.8155 99.8733 75.9545C99.9542 76.0925 100.047 76.242 100.127 76.38Z" fill="white"/>
        <path d="M12.1997 115.618C14.7413 114.824 17.2945 114.031 19.836 113.226C23.6022 112.03 27.3338 110.742 31.123 109.638C36.8185 107.97 42.6989 107.568 48.5907 107.28C50.8204 107.165 53.0385 106.51 55.2451 106.567C58.2141 106.636 61.1832 107.154 64.1522 107.464C64.9725 107.556 65.7927 107.602 66.613 107.66C68.7733 107.809 69.8708 108.879 69.9055 110.914C69.9401 112.605 68.4614 114.077 66.7631 114.468C63.8403 115.158 61.137 113.996 58.3297 113.766C55.453 113.525 52.5418 113.663 49.642 113.571C46.4188 113.467 43.1956 113.249 39.984 113.18C38.2973 113.145 36.599 113.318 34.9123 113.364C30.1873 113.49 25.4969 113.594 20.8642 114.974C18.1378 115.79 15.1341 115.675 12.2575 115.974C12.2459 115.848 12.2228 115.733 12.1997 115.618Z" fill="white"/>
        <path d="M80.788 106.889C80.118 104.555 81.2039 102.818 83.8842 102.519C87.4077 102.117 91.9364 103.336 93.7848 107.05C94.8939 109.27 94.2816 112.283 92.4794 114.387C89.0598 118.401 82.8444 118.918 78.4544 116.71C76.0861 115.514 75.4045 113.295 76.5713 110.88C77.7728 108.407 78.6739 107.545 80.788 106.889ZM81.2963 107.614C80.7534 108.419 79.9447 109.27 79.5981 110.27C79.3208 111.052 79.2746 112.513 79.7252 112.835C81.7238 114.284 85.2243 113.755 86.8416 111.949C87.3038 111.432 87.8698 110.535 87.7081 110.029C87.5348 109.477 86.6221 109.017 85.9405 108.798C84.4618 108.315 82.9253 108.016 81.2963 107.614Z" fill="white"/>
        <path d="M59.7622 23.5498C60.2474 22.3538 60.6518 21.1118 61.2525 19.9618C62.685 17.2133 63.3898 14.5569 62.2345 11.3944C60.5709 6.86347 63.332 1.84954 68.0108 0.182059C69.4434 -0.323934 70.2059 0.239559 69.9401 1.68854C69.8131 2.37853 69.7091 3.20652 69.2701 3.68952C67.3061 5.85149 67.1791 8.40445 67.5141 11.0609C67.93 14.3154 66.8671 17.0178 64.6375 19.3638C63.1934 20.8818 61.807 22.4688 60.3976 24.0328L59.7622 23.5498Z" fill="white"/>
        <path d="M69.2009 23.4348C70.8068 21.1234 72.505 18.8809 73.9838 16.4889C75.0928 14.6949 75.9131 12.74 76.8373 10.8425C77.6575 9.14051 78.9861 8.42752 80.1876 9.08301C81.5277 9.819 82.4519 12.7515 81.5854 13.844C78.5355 17.6964 75.1159 21.1464 70.7374 23.5268C70.541 23.6303 70.3446 23.7338 70.1367 23.7913C69.9865 23.8373 69.8132 23.8028 69.663 23.8028C69.5128 23.6763 69.3511 23.5613 69.2009 23.4348Z" fill="white"/>
        <path d="M49.8843 28.5752C50.0229 26.2637 49.7803 23.8488 50.381 21.6638C51.259 18.5128 51.3053 15.4424 50.9125 12.2684C50.8316 11.6474 51.028 10.5664 51.3977 10.4054C51.9869 10.1524 52.9342 10.3134 53.558 10.6354C55.9725 11.9004 56.8968 14.3499 55.8339 16.8799C54.8057 19.3293 53.5811 21.6983 52.4374 24.0903C51.7212 25.5852 51.0049 27.0802 50.2886 28.5752C50.1615 28.5867 50.0229 28.5867 49.8843 28.5752Z" fill="white"/>
    </g>
    <defs>
        <clipPath id="clip0_604_5206">
            <rect width="118" height="118" fill="white"/>
        </clipPath>
    </defs>
</svg>
