<svg width="16" height="16" viewBox="0 0 16 16" fill="none" xmlns="http://www.w3.org/2000/svg">
<path fill-rule="evenodd" clip-rule="evenodd" d="M7.5 1C9.775 1 11.6687 2.61875 12.0938 4.775C13.7188 4.8875 15 6.225 15 7.875C15 8.10026 14.9761 8.31998 14.9308 8.53176C14.2177 8.06822 13.3679 7.8 12.4556 7.8C10.4116 7.8 8.68206 9.14609 8.10504 11.0001L3.75 11C1.68125 11 0 9.31875 0 7.25C0 5.31875 1.4625 3.725 3.34375 3.525C4.125 2.025 5.69375 1 7.5 1ZM8.125 7.83333H6.875V9H8.125V7.83333ZM7.5 2C6.11875 2 5 3.04417 5 4.33333H6.25C6.25 3.69167 6.8125 3.16667 7.5 3.16667C8.1875 3.16667 8.75 3.69167 8.75 4.33333C8.75 5.5 6.875 5.35417 6.875 7.25H8.125C8.125 5.9375 10 5.79167 10 4.33333C10 3.04417 8.88125 2 7.5 2Z" fill="#AFB1B3"/>
<path fill-rule="evenodd" clip-rule="evenodd" d="M12.4883 8.88892C12.7387 8.88892 12.983 8.91537 13.2186 8.96565L13.3161 9.94618C13.6441 10.0576 13.9425 10.2334 14.1966 10.4586L15.09 10.054C15.4157 10.4175 15.6671 10.8497 15.8203 11.3263L15.0242 11.9014C15.0567 12.0661 15.0737 12.2364 15.0737 12.4107C15.0737 12.5849 15.0567 12.7551 15.0242 12.9198L15.8203 13.4951C15.667 13.9721 15.4152 14.4046 15.0891 14.7683L14.1966 14.3628C13.9425 14.588 13.6441 14.7638 13.3161 14.8752L13.2186 15.8557C12.983 15.906 12.7387 15.9325 12.4883 15.9325C12.2378 15.9325 11.9935 15.906 11.7579 15.8557L11.6604 14.8752C11.3325 14.7638 11.034 14.588 10.7799 14.3628L9.88738 14.7683C9.56131 14.4046 9.30957 13.9721 9.15625 13.4951L9.95252 12.9208C9.91991 12.7558 9.90281 12.5853 9.90281 12.4107C9.90281 12.2364 9.91985 12.0661 9.95235 11.9014L9.15625 11.3263C9.30943 10.8497 9.56086 10.4175 9.88651 10.054L10.7799 10.4586C11.034 10.2334 11.3325 10.0576 11.6604 9.94618L11.7579 8.96565C11.9935 8.91537 12.2378 8.88892 12.4883 8.88892ZM12.4883 11.1645C11.8041 11.1645 11.2494 11.7225 11.2494 12.4108C11.2494 13.0991 11.8041 13.6571 12.4883 13.6571C13.1725 13.6571 13.7271 13.0991 13.7271 12.4108C13.7271 11.7225 13.1725 11.1645 12.4883 11.1645Z" fill="#AFB1B3"/>
</svg>
