<svg width="16" height="16" viewBox="0 0 16 16" fill="none" xmlns="http://www.w3.org/2000/svg">
<mask id="mask0_528_19506" style="mask-type:alpha" maskUnits="userSpaceOnUse" x="1" y="1" width="14" height="14">
<path d="M8 15C11.866 15 15 11.866 15 8C15 4.13401 11.866 1 8 1C4.13401 1 1 4.13401 1 8C1 11.866 4.13401 15 8 15Z" fill="white"/>
</mask>
<g mask="url(#mask0_528_19506)">
<path d="M1.55402 0.442993V10.894H5.02402L8.07602 5.08799H15.828V0.442993H1.55402Z" fill="#DB4437"/>
<path d="M1.55402 0.442993V10.894H5.02402L8.07602 5.08799H15.828V0.442993H1.55402Z" fill="url(#paint0_linear_528_19506)"/>
</g>
<mask id="mask1_528_19506" style="mask-type:alpha" maskUnits="userSpaceOnUse" x="1" y="1" width="14" height="14">
<path d="M8 15C11.866 15 15 11.866 15 8C15 4.13401 11.866 1 8 1C4.13401 1 1 4.13401 1 8C1 11.866 4.13401 15 8 15Z" fill="white"/>
</mask>
<g mask="url(#mask1_528_19506)">
<path d="M0.442993 15.227H7.62999L10.966 11.615V8.91H5.02099L0.442993 0.408997V15.227Z" fill="#0F9D58"/>
<path d="M0.442993 15.227H7.62999L10.966 11.615V8.91H5.02099L0.442993 0.408997V15.227Z" fill="url(#paint1_linear_528_19506)"/>
</g>
<mask id="mask2_528_19506" style="mask-type:alpha" maskUnits="userSpaceOnUse" x="1" y="1" width="14" height="14">
<path d="M8 15C11.866 15 15 11.866 15 8C15 4.13401 11.866 1 8 1C4.13401 1 1 4.13401 1 8C1 11.866 4.13401 15 8 15Z" fill="white"/>
</mask>
<g mask="url(#mask2_528_19506)">
<path d="M7.72201 4.89801L10.65 9.74501L7.36401 15.239H15.159V4.89801H7.72201Z" fill="#FFCD40"/>
<path d="M7.77601 4.89801L11.153 9.74501L7.36401 15.239H16.353V4.89801H7.77601Z" fill="url(#paint2_linear_528_19506)"/>
</g>
<mask id="mask3_528_19506" style="mask-type:alpha" maskUnits="userSpaceOnUse" x="1" y="1" width="14" height="14">
<path d="M8 15C11.866 15 15 11.866 15 8C15 4.13401 11.866 1 8 1C4.13401 1 1 4.13401 1 8C1 11.866 4.13401 15 8 15Z" fill="white"/>
</mask>
<g mask="url(#mask3_528_19506)">
<path d="M8.52002 4.88098V6.54698L14.757 4.88098H8.52002Z" fill="url(#paint3_radial_528_19506)"/>
</g>
<mask id="mask4_528_19506" style="mask-type:alpha" maskUnits="userSpaceOnUse" x="1" y="1" width="14" height="14">
<path d="M8 15C11.866 15 15 11.866 15 8C15 4.13401 11.866 1 8 1C4.13401 1 1 4.13401 1 8C1 11.866 4.13401 15 8 15Z" fill="white"/>
</mask>
<g mask="url(#mask4_528_19506)">
<path d="M2.19714 3.69415L6.58947 8.40331L5.14072 9.17322L2.19714 3.69415Z" fill="url(#paint4_radial_528_19506)"/>
</g>
<mask id="mask5_528_19506" style="mask-type:alpha" maskUnits="userSpaceOnUse" x="1" y="1" width="14" height="14">
<path d="M8 15C11.866 15 15 11.866 15 8C15 4.13401 11.866 1 8 1C4.13401 1 1 4.13401 1 8C1 11.866 4.13401 15 8 15Z" fill="white"/>
</mask>
<g mask="url(#mask5_528_19506)">
<path d="M7.46198 15.238L9.12998 9.01801L10.55 9.83801L7.46198 15.238Z" fill="url(#paint5_radial_528_19506)"/>
</g>
<mask id="mask6_528_19506" style="mask-type:alpha" maskUnits="userSpaceOnUse" x="1" y="1" width="14" height="14">
<path d="M8 15C11.866 15 15 11.866 15 8C15 4.13401 11.866 1 8 1C4.13401 1 1 4.13401 1 8C1 11.866 4.13401 15 8 15Z" fill="white"/>
</mask>
<g mask="url(#mask6_528_19506)">
<path d="M7.99999 11.182C9.75736 11.182 11.182 9.75736 11.182 7.99999C11.182 6.24262 9.75736 4.81799 7.99999 4.81799C6.24262 4.81799 4.81799 6.24262 4.81799 7.99999C4.81799 9.75736 6.24262 11.182 7.99999 11.182Z" fill="#F1F1F1"/>
<path d="M8.00002 10.545C9.40558 10.545 10.545 9.40558 10.545 8.00002C10.545 6.59445 9.40558 5.45502 8.00002 5.45502C6.59445 5.45502 5.45502 6.59445 5.45502 8.00002C5.45502 9.40558 6.59445 10.545 8.00002 10.545Z" fill="#4285F4"/>
<path d="M8 15C11.866 15 15 11.866 15 8C15 4.13401 11.866 1 8 1C4.13401 1 1 4.13401 1 8C1 11.866 4.13401 15 8 15Z" fill="url(#paint6_radial_528_19506)"/>
</g>
<defs>
<linearGradient id="paint0_linear_528_19506" x1="2.20306" y1="6.92847" x2="5.56436" y2="2.9052" gradientUnits="userSpaceOnUse">
<stop stop-color="#A52714" stop-opacity="0.6"/>
<stop offset="0.66" stop-color="#A52714" stop-opacity="0"/>
</linearGradient>
<linearGradient id="paint1_linear_528_19506" x1="9.26895" y1="13.4156" x2="3.80767" y2="11.6688" gradientUnits="userSpaceOnUse">
<stop stop-color="#055524" stop-opacity="0.4"/>
<stop offset="0.33" stop-color="#055524" stop-opacity="0"/>
</linearGradient>
<linearGradient id="paint2_linear_528_19506" x1="10.2967" y1="4.3974" x2="12.1372" y2="9.44524" gradientUnits="userSpaceOnUse">
<stop stop-color="#EA6100" stop-opacity="0.3"/>
<stop offset="0.66" stop-color="#EA6100" stop-opacity="0"/>
</linearGradient>
<radialGradient id="paint3_radial_528_19506" cx="0" cy="0" r="1" gradientUnits="userSpaceOnUse" gradientTransform="translate(2.89231 4.87685) scale(6.68872 6.68611)">
<stop stop-color="#3E2723" stop-opacity="0.2"/>
<stop offset="1" stop-color="#3E2723" stop-opacity="0"/>
</radialGradient>
<radialGradient id="paint4_radial_528_19506" cx="0" cy="0" r="1" gradientUnits="userSpaceOnUse" gradientTransform="translate(2.20458 3.27622) rotate(2) scale(6.20806 6.20768)">
<stop stop-color="#3E2723" stop-opacity="0.2"/>
<stop offset="1" stop-color="#3E2723" stop-opacity="0"/>
</radialGradient>
<radialGradient id="paint5_radial_528_19506" cx="0" cy="0" r="1" gradientUnits="userSpaceOnUse" gradientTransform="translate(7.78097 4.54113) scale(6.98975 6.98914)">
<stop stop-color="#263238" stop-opacity="0.2"/>
<stop offset="1" stop-color="#263238" stop-opacity="0"/>
</radialGradient>
<radialGradient id="paint6_radial_528_19506" cx="0" cy="0" r="1" gradientUnits="userSpaceOnUse" gradientTransform="translate(3.0909 2.91016) scale(14.0596)">
<stop stop-color="white" stop-opacity="0.1"/>
<stop offset="1" stop-color="white" stop-opacity="0"/>
</radialGradient>
</defs>
</svg>
