<svg width="16" height="16" viewBox="0 0 16 16" fill="none" xmlns="http://www.w3.org/2000/svg">
<path d="M14.9997 8.03486C14.9997 6.95297 14.7136 5.93655 14.2118 5.05334C16.3506 0.321446 11.9201 1.01453 11.6734 1.06171C10.7348 1.24126 9.86638 1.52953 9.06535 1.89494C8.94723 1.88844 8.82839 1.88487 8.70864 1.88487C5.71921 1.88487 3.21687 3.92318 2.57643 6.65565C4.15206 4.92767 5.25474 4.23044 5.91508 3.95142C5.80967 4.04349 5.70649 4.13658 5.605 4.23038C5.57121 4.26155 5.53867 4.29318 5.50534 4.32455C5.43841 4.38748 5.37163 4.45048 5.3064 4.51405C5.26759 4.55186 5.22983 4.58999 5.19161 4.62805C5.13375 4.68563 5.07603 4.74314 5.01954 4.80104C4.97943 4.84216 4.9403 4.88342 4.9009 4.9246C4.84813 4.97982 4.79569 5.0351 4.74423 5.09057C4.70425 5.13368 4.66492 5.17678 4.62565 5.22001C4.57686 5.2737 4.52853 5.32738 4.48085 5.3812C4.44133 5.42583 4.40213 5.47046 4.36338 5.51516C4.31818 5.56732 4.27357 5.61947 4.22941 5.67163C4.19034 5.71779 4.15141 5.76389 4.11318 5.80999C4.07183 5.85985 4.03139 5.90965 3.99102 5.95938C3.95188 6.00758 3.91275 6.05572 3.87453 6.10386C3.83813 6.14971 3.80278 6.19536 3.76717 6.24108C3.72699 6.29272 3.68649 6.34437 3.64735 6.39576C3.61937 6.43255 3.5925 6.46896 3.56504 6.50562C3.31647 6.83718 3.08935 7.16236 2.88422 7.47472C2.8837 7.47549 2.88318 7.47625 2.88272 7.47702C2.82872 7.55927 2.7766 7.64031 2.72553 7.72065C2.72279 7.72499 2.71992 7.72939 2.71718 7.73378C2.66605 7.81444 2.61667 7.8937 2.56854 7.97212C2.56684 7.97486 2.56508 7.97767 2.56338 7.98041C2.43398 8.19152 2.31397 8.39505 2.20589 8.58652C1.63928 9.59031 1.36345 10.2916 1.35151 10.3333C-0.437725 16.5864 5.14654 13.9458 5.92577 13.5516C6.76482 13.9568 7.7094 14.1849 8.70864 14.1849C11.4442 14.1849 13.7716 12.4779 14.6379 10.0942H11.3323C10.8432 10.902 9.90153 11.4491 8.81972 11.4491C7.2347 11.4491 5.94984 10.2752 5.94984 8.82697H14.9482C14.9823 8.56759 15 8.30323 15 8.03486H14.9997ZM13.8245 1.98293C14.3663 2.34037 14.8008 2.90172 14.0546 4.79217C13.3389 3.66698 12.2621 2.78434 10.9822 2.29918C11.5644 2.02431 13.0062 1.44294 13.8245 1.98293ZM2.3111 13.539C1.86985 13.0966 1.79184 12.0192 2.76552 10.0558C3.25692 11.437 4.2375 12.5942 5.50494 13.3287C4.87461 13.6678 3.20121 14.4314 2.3111 13.539ZM5.93569 7.14502C5.98597 5.73749 7.23907 4.61052 8.77869 4.61052C10.3183 4.61052 11.5714 5.73749 11.6217 7.14502H5.93569Z" fill="#1EBBEE"/>
<path d="M14.9997 8.03486C14.9997 6.95297 14.7136 5.93655 14.2118 5.05334C16.3506 0.321446 11.9201 1.01453 11.6734 1.06171C10.7348 1.24126 9.86638 1.52953 9.06535 1.89494C8.94723 1.88844 8.82839 1.88487 8.70864 1.88487C5.71921 1.88487 3.21687 3.92318 2.57643 6.65565C4.15206 4.92767 5.25474 4.23044 5.91508 3.95142C5.80967 4.04349 5.70649 4.13658 5.605 4.23038C5.57121 4.26155 5.53867 4.29318 5.50534 4.32455C5.43841 4.38748 5.37163 4.45048 5.3064 4.51405C5.26759 4.55186 5.22983 4.58999 5.19161 4.62805C5.13375 4.68563 5.07603 4.74314 5.01954 4.80104C4.97943 4.84216 4.9403 4.88342 4.9009 4.9246C4.84813 4.97982 4.79569 5.0351 4.74423 5.09057C4.70425 5.13368 4.66492 5.17678 4.62565 5.22001C4.57686 5.2737 4.52853 5.32738 4.48085 5.3812C4.44133 5.42583 4.40213 5.47046 4.36338 5.51516C4.31818 5.56732 4.27357 5.61947 4.22941 5.67163C4.19034 5.71779 4.15141 5.76389 4.11318 5.80999C4.07183 5.85985 4.03139 5.90965 3.99102 5.95938C3.95188 6.00758 3.91275 6.05572 3.87453 6.10386C3.83813 6.14971 3.80278 6.19536 3.76717 6.24108C3.72699 6.29272 3.68649 6.34437 3.64735 6.39576C3.61937 6.43255 3.5925 6.46896 3.56504 6.50562C3.31647 6.83718 3.08935 7.16236 2.88422 7.47472C2.8837 7.47549 2.88318 7.47625 2.88272 7.47702C2.82872 7.55927 2.7766 7.64031 2.72553 7.72065C2.72279 7.72499 2.71992 7.72939 2.71718 7.73378C2.66605 7.81444 2.61667 7.8937 2.56854 7.97212C2.56684 7.97486 2.56508 7.97767 2.56338 7.98041C2.43398 8.19152 2.31397 8.39505 2.20589 8.58652C1.63928 9.59031 1.36345 10.2916 1.35151 10.3333C-0.437725 16.5864 5.14654 13.9458 5.92577 13.5516C6.76482 13.9568 7.7094 14.1849 8.70864 14.1849C11.4442 14.1849 13.7716 12.4779 14.6379 10.0942H11.3323C10.8432 10.902 9.90153 11.4491 8.81972 11.4491C7.2347 11.4491 5.94984 10.2752 5.94984 8.82697H14.9482C14.9823 8.56759 15 8.30323 15 8.03486H14.9997ZM13.8245 1.98293C14.3663 2.34037 14.8008 2.90172 14.0546 4.79217C13.3389 3.66698 12.2621 2.78434 10.9822 2.29918C11.5644 2.02431 13.0062 1.44294 13.8245 1.98293ZM2.3111 13.539C1.86985 13.0966 1.79184 12.0192 2.76552 10.0558C3.25692 11.437 4.2375 12.5942 5.50494 13.3287C4.87461 13.6678 3.20121 14.4314 2.3111 13.539ZM5.93569 7.14502C5.98597 5.73749 7.23907 4.61052 8.77869 4.61052C10.3183 4.61052 11.5714 5.73749 11.6217 7.14502H5.93569Z" fill="#1EBBEE"/>
</svg>
