<svg width="16" height="16" viewBox="0 0 16 16" fill="none" xmlns="http://www.w3.org/2000/svg">
<path d="M14.9609 5.19922C14.6328 4.41406 13.9727 3.56641 13.4531 3.29688C13.875 4.125 14.1211 4.95703 14.2148 5.57812C14.2148 5.57812 14.2148 5.58203 14.2148 5.58984C13.3672 3.47266 11.9258 2.62109 10.75 0.761719C10.6914 0.667969 10.6328 0.574219 10.5742 0.472656C10.543 0.421875 10.5156 0.371094 10.4922 0.316406C10.4414 0.222656 10.4023 0.125 10.3789 0.0195312C10.3789 0.0117188 10.3711 0.00390625 10.3594 0C10.3555 0 10.3516 0 10.3477 0L10.3438 0.00390625C10.3398 0.00390625 10.3398 0.00390625 10.3359 0.0078125C10.3398 0.00390625 10.3398 0.00390625 10.3398 0C8.45312 1.10547 7.8125 3.15234 7.75391 4.17188C7.00391 4.22656 6.28125 4.50391 5.6875 4.96875C5.625 4.91797 5.5625 4.86719 5.49219 4.82422C5.32422 4.22266 5.31641 3.58984 5.47266 2.98828C4.70312 3.33984 4.10156 3.89453 3.66406 4.38281H3.66016C3.36328 4.00781 3.38672 2.76172 3.40234 2.50391C3.39844 2.48828 3.17969 2.61719 3.15234 2.63672C2.88672 2.82422 2.64453 3.03516 2.41797 3.26562C2.16016 3.52734 1.92578 3.80859 1.71484 4.10547C1.71484 4.10547 1.71484 4.10547 1.71484 4.10938C1.71484 4.10547 1.71484 4.10547 1.71484 4.10547C1.23438 4.78906 0.890625 5.5625 0.707031 6.38281C0.703125 6.39844 0.703125 6.41406 0.699219 6.42969C0.683594 6.49609 0.632812 6.82812 0.625 6.89844C0.625 6.90625 0.625 6.91016 0.621094 6.91797C0.558594 7.25781 0.515625 7.60547 0.5 7.95312C0.5 7.96484 0.5 7.97656 0.5 7.99219C0.5 12.1367 3.86328 15.5 8.01172 15.5C11.7266 15.5 14.8086 12.8047 15.4141 9.26172C15.4258 9.16406 15.4375 9.07031 15.4453 8.97266C15.5977 7.68359 15.4297 6.33203 14.9609 5.19922ZM6.30469 11.0781C6.33984 11.0938 6.37109 11.1133 6.40625 11.1289C6.41016 11.1289 6.41016 11.1289 6.41406 11.1289C6.375 11.1133 6.33984 11.0938 6.30469 11.0781ZM14.2148 5.58984V5.58594C14.2148 5.58594 14.2148 5.58984 14.2148 5.59375V5.58984Z" fill="url(#paint0_linear_528_19542)"/>
<path d="M14.9609 5.19922C14.6328 4.41406 13.9727 3.56641 13.4531 3.29688C13.875 4.125 14.1211 4.95703 14.2148 5.57812C14.2148 5.57422 14.2148 5.57812 14.2148 5.58594C14.2148 5.58594 14.2148 5.58984 14.2148 5.59375C14.9258 7.51172 14.5391 9.46484 13.9805 10.6602C13.1211 12.5078 11.0391 14.3984 7.77734 14.3086C4.25391 14.207 1.14844 11.5937 0.570312 8.16797C0.464844 7.62891 0.570312 7.35547 0.621094 6.91797C0.558594 7.25391 0.535156 7.35156 0.5 7.95312C0.5 7.96484 0.5 7.97656 0.5 7.99219C0.5 12.1367 3.86328 15.5 8.01172 15.5C11.7266 15.5 14.8086 12.8047 15.4141 9.26172C15.4258 9.16406 15.4375 9.07031 15.4453 8.97266C15.5977 7.68359 15.4297 6.33203 14.9609 5.19922Z" fill="url(#paint1_radial_528_19542)"/>
<path d="M14.9609 5.19922C14.6328 4.41406 13.9727 3.56641 13.4531 3.29688C13.875 4.125 14.1211 4.95703 14.2148 5.57812C14.2148 5.57422 14.2148 5.57812 14.2148 5.58594C14.2148 5.58594 14.2148 5.58984 14.2148 5.59375C14.9258 7.51172 14.5391 9.46484 13.9805 10.6602C13.1211 12.5078 11.0391 14.3984 7.77734 14.3086C4.25391 14.207 1.14844 11.5937 0.570312 8.16797C0.464844 7.62891 0.570312 7.35547 0.621094 6.91797C0.558594 7.25391 0.535156 7.35156 0.5 7.95312C0.5 7.96484 0.5 7.97656 0.5 7.99219C0.5 12.1367 3.86328 15.5 8.01172 15.5C11.7266 15.5 14.8086 12.8047 15.4141 9.26172C15.4258 9.16406 15.4375 9.07031 15.4453 8.97266C15.5977 7.68359 15.4297 6.33203 14.9609 5.19922Z" fill="url(#paint2_radial_528_19542)"/>
<path d="M11.3086 6.08203C11.3281 6.09375 11.3398 6.10547 11.3555 6.11719C11.168 5.78125 10.9336 5.47656 10.6602 5.20703C8.32422 2.87109 10.0469 0.144531 10.3359 0.0078125C10.3398 0.00390625 10.3398 0.00390625 10.3398 0C8.45313 1.10547 7.8125 3.15234 7.75391 4.17188C7.84375 4.16797 7.92969 4.16016 8.01953 4.16016C9.42578 4.16016 10.6523 4.93359 11.3086 6.08203Z" fill="url(#paint3_radial_528_19542)"/>
<path d="M8.02344 6.54688C8.01172 6.73438 7.35156 7.37891 7.12109 7.37891C4.98438 7.37891 4.64062 8.67188 4.64062 8.67188C4.73438 9.75781 5.49219 10.6523 6.40625 11.1289C6.44922 11.1484 6.49219 11.168 6.53516 11.1875C6.60547 11.2188 6.67969 11.25 6.75391 11.2773C7.07031 11.3906 7.39844 11.4531 7.73047 11.4648C11.4766 11.6406 12.1992 6.99219 9.5 5.64063C10.1914 5.51953 10.9102 5.80078 11.3086 6.08203C10.6523 4.93359 9.42578 4.16016 8.01953 4.16016C7.92969 4.16016 7.84375 4.16797 7.75391 4.17188C7.00391 4.22656 6.28125 4.50391 5.6875 4.96875C5.80469 5.06641 5.93359 5.19531 6.20312 5.46484C6.71484 5.96484 8.01953 6.48438 8.02344 6.54688Z" fill="url(#paint4_radial_528_19542)"/>
<path d="M8.02344 6.54688C8.01172 6.73438 7.35156 7.37891 7.12109 7.37891C4.98438 7.37891 4.64062 8.67188 4.64062 8.67188C4.73438 9.75781 5.49219 10.6523 6.40625 11.1289C6.44922 11.1484 6.49219 11.168 6.53516 11.1875C6.60547 11.2188 6.67969 11.25 6.75391 11.2773C7.07031 11.3906 7.39844 11.4531 7.73047 11.4648C11.4766 11.6406 12.1992 6.99219 9.5 5.64063C10.1914 5.51953 10.9102 5.80078 11.3086 6.08203C10.6523 4.93359 9.42578 4.16016 8.01953 4.16016C7.92969 4.16016 7.84375 4.16797 7.75391 4.17188C7.00391 4.22656 6.28125 4.50391 5.6875 4.96875C5.80469 5.06641 5.93359 5.19531 6.20312 5.46484C6.71484 5.96484 8.01953 6.48438 8.02344 6.54688Z" fill="url(#paint5_radial_528_19542)"/>
<path d="M5.33984 4.71875C5.39063 4.75391 5.44141 4.78906 5.49219 4.82422C5.32422 4.22266 5.31641 3.58984 5.47266 2.98828C4.70313 3.33984 4.10156 3.89453 3.66406 4.38281C3.70313 4.38281 4.78906 4.36328 5.33984 4.71875Z" fill="url(#paint6_radial_528_19542)"/>
<path d="M0.570298 8.168C1.14842 11.5938 4.25389 14.2071 7.77733 14.3086C11.039 14.3985 13.1211 12.5078 13.9805 10.6602C14.539 9.46487 14.9258 7.51175 14.2148 5.59378V5.58597C14.2148 5.57815 14.2148 5.57425 14.2148 5.57815C14.2148 5.57815 14.2148 5.58206 14.2148 5.58987C14.4805 7.32815 13.5976 9.01565 12.2148 10.1524L12.2109 10.1641C9.51561 12.3594 6.93358 11.4883 6.41405 11.1328C6.37499 11.1133 6.33983 11.0938 6.30467 11.0782C4.73046 10.3242 4.08202 8.89456 4.22264 7.668C2.89452 7.668 2.44139 6.5469 2.44139 6.5469C2.44139 6.5469 3.6328 5.69925 5.20311 6.43753C6.66014 7.12112 8.02342 6.5469 8.02342 6.5469C8.01952 6.48831 6.71483 5.96487 6.20311 5.46487C5.93358 5.19534 5.80467 5.06643 5.68749 4.96878C5.62499 4.918 5.56249 4.86722 5.49217 4.82425C5.44139 4.78909 5.39061 4.75393 5.33983 4.71878C4.78905 4.36331 3.70311 4.38284 3.66405 4.38284H3.66014C3.36327 4.00784 3.38671 2.76175 3.40233 2.50393C3.39842 2.48831 3.17967 2.61722 3.15233 2.63675C2.88671 2.82425 2.64452 3.03518 2.41796 3.26565C2.16014 3.52737 1.92577 3.80862 1.71483 4.1055C1.71483 4.1055 1.71483 4.1055 1.71483 4.1094C1.71483 4.1055 1.71483 4.1055 1.71483 4.1055C1.23436 4.78909 0.890611 5.56253 0.707017 6.38284C0.703111 6.39847 0.437486 7.56253 0.570298 8.168Z" fill="url(#paint7_radial_528_19542)"/>
<path d="M10.6602 5.20703C10.9336 5.47656 11.168 5.78125 11.3555 6.11719C11.3984 6.14844 11.4375 6.17578 11.4688 6.20703C13.1719 7.77734 12.2813 9.99609 12.2148 10.1523C13.5977 9.01562 14.4805 7.32813 14.2148 5.58984C13.3672 3.47266 11.9258 2.62109 10.75 0.761719C10.6914 0.667969 10.6328 0.574219 10.5742 0.472656C10.543 0.421875 10.5156 0.371094 10.4922 0.316406C10.4414 0.222656 10.4023 0.125 10.3789 0.0195312C10.3789 0.0117188 10.3711 0.00390625 10.3594 0C10.3555 0 10.3516 0 10.3477 0L10.3438 0.00390625C10.3398 0.00390625 10.3398 0.00390625 10.3359 0.0078125C10.0469 0.144531 8.32422 2.87109 10.6602 5.20703Z" fill="url(#paint8_radial_528_19542)"/>
<path d="M11.4688 6.20705C11.4375 6.1758 11.3984 6.14846 11.3555 6.11721C11.3398 6.10549 11.3281 6.09377 11.3086 6.08205C10.9102 5.8008 10.1914 5.51955 9.5 5.64064C12.1992 6.99221 11.4766 11.6406 7.73047 11.4688C7.39844 11.4531 7.07031 11.3906 6.75391 11.2774C6.67969 11.25 6.60547 11.2188 6.53516 11.1875C6.49219 11.168 6.44922 11.1485 6.40625 11.1289C6.41016 11.1289 6.41016 11.1289 6.41406 11.1328C6.93359 11.4883 9.51563 12.3594 12.2109 10.1641L12.2148 10.1524C12.2812 9.99611 13.1719 7.77736 11.4688 6.20705Z" fill="url(#paint9_radial_528_19542)"/>
<path d="M4.64063 8.67186C4.64063 8.67186 4.98438 7.37889 7.12109 7.37889C7.35156 7.37889 8.01172 6.73436 8.02344 6.54686C8.03516 6.35936 6.66016 7.12108 5.20313 6.43748C3.63281 5.6992 2.44141 6.54686 2.44141 6.54686C2.44141 6.54686 2.89453 7.66795 4.22266 7.66795C4.08203 8.89452 4.73047 10.3242 6.30469 11.0781C6.33984 11.0937 6.37109 11.1133 6.40625 11.1289C5.49219 10.6523 4.73438 9.7578 4.64063 8.67186Z" fill="url(#paint10_radial_528_19542)"/>
<path d="M14.9609 5.19922C14.6328 4.41406 13.9727 3.56641 13.4531 3.29688C13.875 4.125 14.1211 4.95703 14.2148 5.57812C14.2148 5.57812 14.2148 5.58203 14.2148 5.58984C13.3672 3.47266 11.9258 2.62109 10.75 0.761719C10.6914 0.667969 10.6328 0.574219 10.5742 0.472656C10.543 0.421875 10.5156 0.371094 10.4922 0.316406C10.4414 0.222656 10.4023 0.125 10.3789 0.0195312C10.3789 0.0117188 10.3711 0.00390625 10.3594 0C10.3555 0 10.3516 0 10.3477 0L10.3438 0.00390625C10.3398 0.00390625 10.3398 0.00390625 10.3359 0.0078125C10.3398 0.00390625 10.3398 0.00390625 10.3398 0C8.45312 1.10547 7.8125 3.15234 7.75391 4.17188C7.84375 4.16797 7.92969 4.16016 8.01953 4.16016C9.42578 4.16016 10.6523 4.93359 11.3086 6.08203C10.9102 5.80078 10.1914 5.51953 9.5 5.64062C12.1992 6.99219 11.4766 11.6406 7.73047 11.4688C7.39844 11.4531 7.07031 11.3906 6.75391 11.2773C6.67969 11.25 6.60547 11.2188 6.53516 11.1875C6.49219 11.168 6.44922 11.1484 6.40625 11.1289C6.41016 11.1289 6.41016 11.1289 6.41406 11.1328C6.375 11.1133 6.33984 11.0938 6.30469 11.0781C6.33984 11.0938 6.37109 11.1133 6.40625 11.1289C5.49219 10.6523 4.73438 9.75781 4.63672 8.67188C4.63672 8.67188 4.98438 7.37891 7.12109 7.37891C7.35156 7.37891 8.01172 6.73438 8.02344 6.54688C8.01953 6.48828 6.71484 5.96484 6.20312 5.46484C5.93359 5.19531 5.80469 5.06641 5.6875 4.96875C5.625 4.91797 5.5625 4.86719 5.49219 4.82422C5.32422 4.22266 5.31641 3.58984 5.47266 2.98828C4.70312 3.33984 4.10156 3.89453 3.66406 4.38281H3.66016C3.36328 4.00781 3.38281 2.76172 3.40234 2.50391C3.39844 2.48828 3.17969 2.61719 3.15234 2.63672C2.88672 2.82422 2.64453 3.03516 2.41797 3.26562C2.16016 3.52734 1.92578 3.80859 1.71484 4.10547C1.71484 4.10547 1.71484 4.10547 1.71484 4.10938C1.71484 4.10547 1.71484 4.10547 1.71484 4.10547C1.23438 4.78906 0.890625 5.5625 0.707031 6.38281C0.703125 6.39844 0.703125 6.41406 0.699219 6.42969C0.683594 6.49609 0.621094 6.83203 0.613281 6.90625C0.609375 6.91016 0.613281 6.89844 0.613281 6.90625C0.554688 7.25 0.515625 7.60156 0.5 7.95312C0.5 7.96484 0.5 7.97656 0.5 7.99219C0.5 12.1367 3.86328 15.5 8.01172 15.5C11.7266 15.5 14.8086 12.8047 15.4141 9.26172C15.4258 9.16406 15.4375 9.07031 15.4453 8.97266C15.5977 7.68359 15.4297 6.33203 14.9609 5.19922ZM14.2148 5.58594C14.2148 5.58594 14.2148 5.58984 14.2148 5.59375V5.58594Z" fill="url(#paint11_linear_528_19542)"/>
<defs>
<linearGradient id="paint0_linear_528_19542" x1="13.5398" y1="2.4025" x2="1.48246" y2="13.991" gradientUnits="userSpaceOnUse">
<stop offset="0.05" stop-color="#FFF44F"/>
<stop offset="0.37" stop-color="#FF980E"/>
<stop offset="0.53" stop-color="#FF3647"/>
<stop offset="0.7" stop-color="#E31587"/>
</linearGradient>
<radialGradient id="paint1_radial_528_19542" cx="0" cy="0" r="1" gradientUnits="userSpaceOnUse" gradientTransform="translate(13.5622 1.72267) scale(19.13 15.62)">
<stop offset="0.13" stop-color="#FFBD4F"/>
<stop offset="0.28" stop-color="#FF980E"/>
<stop offset="0.47" stop-color="#FF3750"/>
<stop offset="0.78" stop-color="#EB0878"/>
<stop offset="0.86" stop-color="#E50080"/>
</radialGradient>
<radialGradient id="paint2_radial_528_19542" cx="0" cy="0" r="1" gradientUnits="userSpaceOnUse" gradientTransform="translate(7.8232 8.17813) scale(19.13 15.62)">
<stop offset="0.3" stop-color="#960E18"/>
<stop offset="0.35" stop-color="#B11927" stop-opacity="0.741176"/>
<stop offset="0.43" stop-color="#DB293D" stop-opacity="0.341176"/>
<stop offset="0.5" stop-color="#F5334B" stop-opacity="0.0901961"/>
<stop offset="0.53" stop-color="#FF3750" stop-opacity="0"/>
</radialGradient>
<radialGradient id="paint3_radial_528_19542" cx="0" cy="0" r="1" gradientUnits="userSpaceOnUse" gradientTransform="translate(9.48266 -0.734063) scale(5.04219 8.56406)">
<stop offset="0.13" stop-color="#FFF44F"/>
<stop offset="0.53" stop-color="#FF980E"/>
</radialGradient>
<radialGradient id="paint4_radial_528_19542" cx="0" cy="0" r="1" gradientUnits="userSpaceOnUse" gradientTransform="translate(6.15825 12.2033) scale(6.66797 7.30469)">
<stop offset="0.35" stop-color="#3A8EE6"/>
<stop offset="0.67" stop-color="#9059FF"/>
<stop offset="1" stop-color="#C139E6"/>
</radialGradient>
<radialGradient id="paint5_radial_528_19542" cx="0" cy="0" r="1" gradientUnits="userSpaceOnUse" gradientTransform="translate(7.76123 6.5707) scale(3.54069 4.30977)">
<stop offset="0.21" stop-color="#9059FF" stop-opacity="0"/>
<stop offset="0.97" stop-color="#6E008B" stop-opacity="0.6"/>
</radialGradient>
<radialGradient id="paint6_radial_528_19542" cx="0" cy="0" r="1" gradientUnits="userSpaceOnUse" gradientTransform="translate(7.50312 1.15234) scale(5.30156 5.32422)">
<stop offset="0.1" stop-color="#FFE226"/>
<stop offset="0.79" stop-color="#FF7139"/>
</radialGradient>
<radialGradient id="paint7_radial_528_19542" cx="0" cy="0" r="1" gradientUnits="userSpaceOnUse" gradientTransform="translate(12.0317 -2.33599) scale(24.5602 21.2484)">
<stop offset="0.11" stop-color="#FFF44F"/>
<stop offset="0.46" stop-color="#FF980E"/>
<stop offset="0.72" stop-color="#FF3647"/>
<stop offset="0.9" stop-color="#E31587"/>
</radialGradient>
<radialGradient id="paint8_radial_528_19542" cx="0" cy="0" r="1" gradientUnits="userSpaceOnUse" gradientTransform="translate(10.2689 -1.88833) scale(16.4045 35.4114)">
<stop stop-color="#FFF44F"/>
<stop offset="0.3" stop-color="#FF980E"/>
<stop offset="0.57" stop-color="#FF3647"/>
<stop offset="0.74" stop-color="#E31587"/>
</radialGradient>
<radialGradient id="paint9_radial_528_19542" cx="0" cy="0" r="1" gradientUnits="userSpaceOnUse" gradientTransform="translate(7.55871 3.10724) scale(14.5368 14.2109)">
<stop offset="0.14" stop-color="#FFF44F"/>
<stop offset="0.48" stop-color="#FF980E"/>
<stop offset="0.66" stop-color="#FF3647"/>
<stop offset="0.9" stop-color="#E31587"/>
</radialGradient>
<radialGradient id="paint10_radial_528_19542" cx="0" cy="0" r="1" gradientUnits="userSpaceOnUse" gradientTransform="translate(11.3336 4.33949) scale(17.4773 14.6888)">
<stop offset="0.09" stop-color="#FFF44F"/>
<stop offset="0.63" stop-color="#FF980E"/>
</radialGradient>
<linearGradient id="paint11_linear_528_19542" x1="12.4563" y1="2.17" x2="2.81019" y2="12.671" gradientUnits="userSpaceOnUse">
<stop offset="0.17" stop-color="#FFF44F" stop-opacity="0.8"/>
<stop offset="0.6" stop-color="#FFF44F" stop-opacity="0"/>
</linearGradient>
</defs>
</svg>
