<svg width="16" height="16" viewBox="0 0 16 16" fill="none" xmlns="http://www.w3.org/2000/svg">
<path d="M7.9476 1C4.1101 1 1 4.13433 1 8C1 11.7542 3.93447 14.8175 7.61847 14.9916C7.7291 14.9972 7.83835 15 7.94898 15C9.72875 15 11.3509 14.3258 12.5802 13.2183C11.7657 13.763 10.8129 14.075 9.79512 14.075C8.13982 14.075 6.65875 13.2476 5.66169 11.9437C4.89281 11.0312 4.39497 9.68 4.36178 8.16438C4.36178 8.1602 4.36178 7.83841 4.36178 7.83423C4.39497 6.32 4.89281 4.96876 5.66031 4.05493C6.65737 2.75104 8.13982 1.92498 9.79512 1.92498C10.8129 1.92498 11.7657 2.23841 12.5802 2.78308C11.3564 1.6798 9.74396 1.00697 7.97387 1C7.96557 1 7.95589 1 7.9476 1Z" fill="url(#paint0_linear_528_19609)"/>
<path d="M5.66669 4.00989C6.30221 3.24648 7.12068 2.78618 8.01618 2.78618C10.0287 2.78618 11.6601 5.11431 11.6601 7.98412C11.6601 10.8553 10.0287 13.1821 8.01618 13.1821C7.12068 13.1821 6.30221 12.7218 5.66806 11.9584C6.65986 13.2719 8.1331 14.1054 9.77967 14.1054C10.7921 14.1054 11.7399 13.7897 12.5501 13.2424C13.9642 11.9499 14.8542 10.0737 14.8542 7.98412C14.8542 5.89596 13.9642 4.01831 12.5487 2.72724C11.7385 2.17854 10.7921 1.8642 9.77967 1.8642C8.1331 1.8642 6.65986 2.69778 5.66806 4.01129" fill="url(#paint1_linear_528_19609)"/>
<defs>
<linearGradient id="paint0_linear_528_19609" x1="6.78943" y1="1.22834" x2="6.78943" y2="14.796" gradientUnits="userSpaceOnUse">
<stop stop-color="#FF1B2D"/>
<stop offset="0.3" stop-color="#FF1B2D"/>
<stop offset="0.61" stop-color="#FF1B2D"/>
<stop offset="1" stop-color="#A70014"/>
</linearGradient>
<linearGradient id="paint1_linear_528_19609" x1="10.2609" y1="1.968" x2="10.2609" y2="14.0567" gradientUnits="userSpaceOnUse">
<stop stop-color="#9C0000"/>
<stop offset="0.7" stop-color="#FF4B4B"/>
<stop offset="1" stop-color="#FF4B4B"/>
</linearGradient>
</defs>
</svg>
