<svg width="16" height="16" viewBox="0 0 16 16" fill="none" xmlns="http://www.w3.org/2000/svg">
<path d="M8 15C11.866 15 15 11.866 15 8C15 4.13401 11.866 1 8 1C4.13401 1 1 4.13401 1 8C1 11.866 4.13401 15 8 15Z" fill="url(#paint0_linear_528_19567)"/>
<path d="M7.99999 14.364C11.5147 14.364 14.364 11.5147 14.364 7.99999C14.364 4.48525 11.5147 1.63599 7.99999 1.63599C4.48525 1.63599 1.63599 4.48525 1.63599 7.99999C1.63599 11.5147 4.48525 14.364 7.99999 14.364Z" fill="url(#paint1_radial_528_19567)"/>
<path d="M8 2C7.94882 2 7.90762 2.04116 7.90762 2.09229V3.15682C7.90762 3.20795 7.94882 3.24911 8 3.24911C8.05118 3.24911 8.09238 3.20795 8.09238 3.15682V2.09229C8.09238 2.04116 8.05118 2 8 2ZM7.39565 2.03816C7.38953 2.0375 7.38323 2.0375 7.37686 2.03824C7.32596 2.04354 7.28926 2.08875 7.29457 2.13961L7.34114 2.58496C7.34645 2.63581 7.39171 2.67248 7.44261 2.66717C7.49351 2.66187 7.53022 2.61666 7.5249 2.5658L7.47837 2.12045C7.47372 2.07595 7.43848 2.04231 7.39564 2.03816H7.39565ZM8.60857 2.0386C8.56574 2.04272 8.53049 2.07636 8.5258 2.12085L8.47892 2.56616C8.47356 2.61701 8.51027 2.66227 8.56117 2.66761C8.61207 2.67296 8.65732 2.63633 8.66268 2.58548L8.70957 2.14013C8.71492 2.08928 8.67821 2.04406 8.62731 2.03872C8.62095 2.03806 8.61469 2.03806 8.60857 2.0386L8.60857 2.0386ZM6.77483 2.1281C6.76869 2.12815 6.76243 2.12876 6.75618 2.13007C6.70611 2.14066 6.67433 2.18947 6.68493 2.23949L6.90561 3.28092C6.91621 3.33094 6.96506 3.36268 7.01513 3.3521C7.0652 3.34151 7.09698 3.29274 7.08638 3.24272L6.8657 2.20125C6.85642 2.15748 6.81787 2.12771 6.77484 2.12804L6.77483 2.1281ZM9.22935 2.12898C9.18632 2.12854 9.14775 2.15834 9.13845 2.2021L8.91701 3.24341C8.90637 3.29342 8.93812 3.34224 8.98818 3.35287C9.03824 3.3635 9.08711 3.33177 9.09774 3.28177L9.31918 2.24046C9.32982 2.19045 9.29807 2.14163 9.24801 2.131C9.24176 2.12969 9.2355 2.12903 9.22936 2.12903L9.22935 2.12898ZM6.18236 2.29499C6.1704 2.29389 6.15805 2.29521 6.14588 2.29924C6.09721 2.31505 6.07074 2.36688 6.08656 2.41551L6.22507 2.84139C6.24089 2.89002 6.29281 2.91646 6.34149 2.90066C6.39016 2.88485 6.41659 2.83298 6.40077 2.78435L6.26227 2.35847C6.25041 2.322 6.21824 2.29803 6.18236 2.29498V2.29499ZM9.81847 2.29521C9.78259 2.29826 9.75044 2.32223 9.73857 2.3587L9.59998 2.78454C9.58416 2.83316 9.6106 2.88504 9.65927 2.90084C9.70794 2.91665 9.75987 2.89023 9.77569 2.84161L9.91428 2.41574C9.9301 2.36711 9.90366 2.31524 9.85499 2.29943C9.84283 2.29549 9.83043 2.29419 9.81847 2.2952V2.29521ZM5.59647 2.50918C5.58447 2.5094 5.57232 2.51203 5.56063 2.51723C5.51389 2.53799 5.49296 2.59231 5.51374 2.63903L5.94653 3.61179C5.96732 3.65851 6.02169 3.6794 6.06846 3.65863C6.1152 3.63787 6.13617 3.58355 6.11538 3.53683L5.68255 2.56407C5.66697 2.52903 5.63248 2.50849 5.59647 2.50918V2.50918ZM10.411 2.51245C10.375 2.51179 10.3405 2.5322 10.3248 2.56722L9.89071 3.53938C9.86986 3.58607 9.89071 3.64043 9.93744 3.66126C9.98418 3.68209 10.0386 3.66127 10.0594 3.61458L10.4936 2.64242C10.5144 2.59573 10.4936 2.54137 10.4468 2.52054C10.4351 2.51534 10.423 2.51271 10.411 2.51244V2.51245ZM5.05265 2.79665C5.03491 2.79533 5.01664 2.79928 5.00002 2.80888C4.95569 2.83445 4.94062 2.89067 4.96621 2.93495L5.19032 3.32274C5.21591 3.36702 5.27218 3.38209 5.31651 3.35652C5.36083 3.33095 5.37591 3.27473 5.35032 3.23045L5.12621 2.84266C5.11021 2.81498 5.08221 2.79872 5.05265 2.79665V2.79665ZM10.9473 2.79665C10.9178 2.79862 10.8898 2.81498 10.8738 2.84265L10.6497 3.23045C10.6241 3.27473 10.6392 3.33095 10.6835 3.35651C10.7279 3.38208 10.7841 3.36702 10.8097 3.32274L11.0338 2.93494C11.0594 2.89066 11.0443 2.83444 11 2.80887C10.9834 2.79929 10.9651 2.79541 10.9473 2.79664V2.79665ZM4.52457 3.12569C4.50679 3.12635 4.48899 3.13205 4.47345 3.1433C4.43203 3.17332 4.42287 3.2308 4.45293 3.27219L5.07861 4.13386C5.10867 4.17525 5.16625 4.1844 5.20767 4.15438C5.2491 4.12436 5.25826 4.06687 5.22819 4.02549L4.60247 3.16382C4.58369 3.13795 4.55418 3.12469 4.52457 3.1257V3.12569ZM11.482 3.13038C11.4524 3.12929 11.4229 3.14255 11.4041 3.16838L10.7772 4.02921C10.7471 4.07056 10.7562 4.12807 10.7976 4.15815C10.839 4.18823 10.8965 4.17918 10.9267 4.13785L11.5535 3.27701C11.5836 3.23567 11.5745 3.17816 11.5331 3.14808C11.5176 3.13681 11.4998 3.13102 11.482 3.13038L11.482 3.13038ZM4.05255 3.52117C4.02897 3.51985 4.0049 3.52772 3.98588 3.54483C3.94785 3.57903 3.94479 3.63715 3.97904 3.67515L4.27894 4.00798C4.31318 4.04599 4.37136 4.04904 4.40939 4.01483C4.44743 3.98062 4.45049 3.92246 4.41624 3.88446L4.11638 3.55167C4.09926 3.53266 4.07613 3.52239 4.05255 3.52116V3.52117ZM11.9481 3.52182C11.9245 3.52314 11.9014 3.53333 11.8843 3.55233L11.5844 3.88508C11.5501 3.92308 11.5532 3.98124 11.5912 4.01545C11.6293 4.04966 11.6874 4.0466 11.7217 4.00861L12.0216 3.67586C12.0559 3.63786 12.0528 3.57971 12.0148 3.5455C11.9957 3.52839 11.9717 3.5206 11.9481 3.52183L11.9481 3.52182ZM3.60014 3.95531C3.57656 3.95662 3.55347 3.96682 3.53635 3.98582C3.50211 4.02382 3.50517 4.08194 3.5432 4.11615L4.33514 4.82837C4.37317 4.86258 4.43135 4.85952 4.46559 4.82153C4.49983 4.78353 4.49681 4.72541 4.45876 4.6912L3.66679 3.97898C3.64776 3.96187 3.62371 3.95408 3.60012 3.95532L3.60014 3.95531ZM12.4027 3.95842C12.3791 3.9571 12.3551 3.96495 12.336 3.98204L11.5436 4.69371C11.5055 4.72789 11.5024 4.78601 11.5366 4.82403C11.5708 4.86206 11.6291 4.86514 11.6671 4.83096L12.4596 4.1193C12.4976 4.08511 12.5007 4.02699 12.4665 3.98897C12.4494 3.96996 12.4263 3.95967 12.4027 3.95842H12.4027ZM3.22393 4.43859C3.19431 4.43749 3.16478 4.45082 3.14598 4.47667C3.1159 4.51803 3.12502 4.57551 3.16644 4.60556L3.52906 4.86876C3.57046 4.89882 3.62799 4.88975 3.65807 4.84837C3.68816 4.80701 3.67906 4.74949 3.63766 4.71944L3.27505 4.45623C3.25953 4.44497 3.2417 4.43922 3.22393 4.43858L3.22393 4.43859ZM12.7786 4.44194C12.7608 4.4426 12.743 4.44828 12.7275 4.45955L12.3647 4.72252C12.3233 4.75254 12.3141 4.81006 12.3441 4.85145C12.3742 4.89283 12.4317 4.90195 12.4732 4.87193L12.836 4.60896C12.8774 4.57894 12.8865 4.52145 12.8565 4.48007C12.8377 4.4542 12.8082 4.44094 12.7786 4.44195V4.44194ZM2.87236 4.95409C2.84279 4.95607 2.81483 4.97242 2.79883 5.0001C2.77324 5.04438 2.78832 5.1006 2.83264 5.12616L3.75544 5.65843C3.79976 5.68399 3.85603 5.66893 3.88162 5.62465C3.90721 5.58037 3.89214 5.52415 3.84782 5.49858L2.92502 4.96632C2.90841 4.95674 2.89009 4.95286 2.87236 4.95408V4.95409ZM13.1276 4.95409C13.1099 4.95278 13.0916 4.95672 13.075 4.96633L12.1522 5.49859C12.1079 5.52416 12.0928 5.58038 12.1184 5.62466C12.144 5.66894 12.2002 5.684 12.2446 5.65844L13.1674 5.12617C13.2117 5.10061 13.2268 5.04438 13.2012 5.00011C13.1852 4.97243 13.1572 4.95616 13.1276 4.9541V4.95409ZM2.60654 5.50356C2.57054 5.50269 2.53602 5.52327 2.52038 5.55829C2.49953 5.60499 2.52037 5.65935 2.56711 5.68017L2.97649 5.8626C3.02324 5.88343 3.07765 5.86262 3.0985 5.81592C3.11935 5.76922 3.09847 5.71486 3.05173 5.69404L2.64239 5.51161C2.63071 5.50639 2.61854 5.5038 2.60654 5.50356ZM13.3953 5.50736C13.3832 5.50758 13.3711 5.51021 13.3594 5.5154L12.9499 5.69751C12.9031 5.71832 12.8822 5.77264 12.9031 5.81935C12.9239 5.86607 12.9783 5.88695 13.0251 5.86616L13.4345 5.68401C13.4813 5.66322 13.5021 5.60887 13.4813 5.56216C13.4657 5.52713 13.4313 5.50664 13.3953 5.50736ZM2.36963 6.07786C2.33375 6.08086 2.30159 6.10481 2.28969 6.14127C2.27385 6.18989 2.30023 6.24178 2.3489 6.25762L3.36204 6.58742C3.4107 6.60325 3.46264 6.57687 3.4785 6.52827C3.49435 6.47966 3.46796 6.42776 3.41929 6.41192L2.40616 6.08212C2.394 6.07815 2.38159 6.07686 2.36963 6.07787V6.07786ZM13.6317 6.08181C13.6198 6.08071 13.6074 6.08203 13.5952 6.08606L12.5819 6.41515C12.5332 6.43096 12.5068 6.48283 12.5226 6.53145C12.5384 6.58008 12.5903 6.60649 12.639 6.59068L13.6523 6.2616C13.701 6.24579 13.7275 6.19391 13.7117 6.14529C13.6998 6.10882 13.6676 6.08484 13.6317 6.0818V6.08181ZM2.22204 6.68071C2.179 6.68027 2.1404 6.71012 2.13109 6.75388C2.12045 6.80389 2.1522 6.8527 2.20226 6.86334L2.64071 6.95642C2.69077 6.96706 2.73963 6.93533 2.75027 6.88532C2.76092 6.83531 2.72916 6.7865 2.6791 6.77587L2.24069 6.68278C2.23444 6.68147 2.22818 6.68081 2.22204 6.68081L2.22204 6.68071ZM13.7782 6.68159C13.772 6.68164 13.7658 6.68247 13.7596 6.68356L13.3211 6.77661C13.271 6.78724 13.2393 6.83601 13.2499 6.88603C13.2606 6.93604 13.3094 6.96779 13.3595 6.95716L13.7979 6.86412C13.848 6.85348 13.8797 6.80467 13.8691 6.75466C13.8598 6.7109 13.8212 6.68113 13.7782 6.68149L13.7782 6.68159ZM2.11032 7.2871C2.06748 7.2912 2.03222 7.32478 2.02751 7.36927C2.02213 7.42012 2.05875 7.46539 2.10964 7.47076L3.16931 7.58269C3.2202 7.58806 3.26552 7.55145 3.2709 7.5006C3.27627 7.44975 3.23962 7.40448 3.18872 7.39911L2.12906 7.28718C2.12269 7.28652 2.11644 7.28652 2.11032 7.28711L2.11032 7.2871ZM13.8907 7.29506C13.8846 7.2944 13.8783 7.2944 13.8719 7.29514L12.8121 7.40563C12.7612 7.41094 12.7245 7.45615 12.7298 7.507C12.7351 7.55785 12.7804 7.59452 12.8313 7.58921L13.8911 7.47872C13.942 7.47341 13.9787 7.4282 13.9734 7.37735C13.9687 7.33285 13.9335 7.29922 13.8907 7.29506L13.8907 7.29506ZM2.09238 7.90783C2.0412 7.90783 2 7.94898 2 8.00011C2 8.05124 2.0412 8.0924 2.09238 8.0924H2.5406C2.59178 8.0924 2.63302 8.05124 2.63302 8.00011C2.63302 7.94898 2.59178 7.90783 2.5406 7.90783H2.09238ZM13.4594 7.90783C13.4082 7.90783 13.367 7.94898 13.367 8.00011C13.367 8.05124 13.4082 8.0924 13.4594 8.0924H13.9076C13.9588 8.0924 14 8.05124 14 8.00011C14 7.94898 13.9588 7.90783 13.9076 7.90783H13.4594ZM3.18749 8.41093C3.18137 8.41028 3.17511 8.41028 3.16875 8.41101L2.10892 8.5215C2.05801 8.52681 2.02132 8.57202 2.02663 8.62287C2.03194 8.67373 2.07719 8.7104 2.1281 8.70508L3.18792 8.59459C3.23883 8.58929 3.27552 8.54408 3.27021 8.49322C3.26556 8.44873 3.23032 8.41509 3.18748 8.41093L3.18749 8.41093ZM12.812 8.41747C12.7691 8.42157 12.7338 8.45515 12.7291 8.49964C12.7238 8.55049 12.7604 8.59576 12.8113 8.60113L13.8709 8.71306C13.9218 8.71843 13.9671 8.68181 13.9725 8.63097C13.9779 8.58012 13.9413 8.53485 13.8904 8.52948L12.8307 8.41755C12.8244 8.41689 12.8181 8.41689 12.8119 8.41747L12.812 8.41747ZM2.65921 9.04095C2.65306 9.041 2.64681 9.0416 2.64055 9.04292L2.2021 9.13596C2.15204 9.1466 2.1203 9.19541 2.13094 9.24542C2.14158 9.29544 2.19044 9.32714 2.2405 9.31652L2.67895 9.22351C2.72901 9.21288 2.76075 9.16407 2.75012 9.11406C2.74081 9.07029 2.70225 9.04053 2.65921 9.04089L2.65921 9.04095ZM13.3407 9.04182C13.2976 9.04138 13.2591 9.07119 13.2498 9.11495C13.2391 9.16496 13.2708 9.21378 13.3209 9.22441L13.7593 9.3175C13.8094 9.32813 13.8583 9.29645 13.8689 9.24644C13.8796 9.19642 13.8478 9.14757 13.7977 9.13694L13.3593 9.04385C13.3531 9.04254 13.3468 9.04188 13.3407 9.04188L13.3407 9.04182ZM3.39752 9.40532C3.38556 9.40423 3.37321 9.40554 3.36104 9.40958L2.34767 9.73866C2.29899 9.75447 2.27256 9.80634 2.28838 9.85497C2.3042 9.90359 2.35613 9.93 2.4048 9.9142L3.41814 9.58511C3.46681 9.5693 3.49329 9.51743 3.47746 9.4688C3.46559 9.43234 3.4334 9.40836 3.39752 9.40531V9.40532ZM12.6015 9.40859C12.5656 9.41159 12.5334 9.43554 12.5215 9.472C12.5057 9.52062 12.5321 9.57251 12.5807 9.58835L13.5939 9.91815C13.6425 9.93398 13.6945 9.9076 13.7103 9.859C13.7262 9.81039 13.6998 9.7585 13.6511 9.74265L12.638 9.41285C12.6258 9.40888 12.6134 9.40759 12.6015 9.4086V9.40859ZM3.01082 10.1261C2.99882 10.1263 2.98667 10.1289 2.97498 10.1341L2.56548 10.3163C2.51872 10.337 2.49785 10.3914 2.51867 10.4381C2.5395 10.4848 2.59388 10.5057 2.64063 10.4849L3.05014 10.3028C3.09689 10.282 3.11776 10.2276 3.09694 10.1809C3.08134 10.1459 3.04682 10.1254 3.01082 10.1261V10.1261ZM12.9877 10.1296C12.9517 10.1287 12.9172 10.1493 12.9015 10.1843C12.8807 10.231 12.9015 10.2854 12.9483 10.3062L13.3576 10.4887C13.4044 10.5095 13.4588 10.4887 13.4796 10.442C13.5005 10.3953 13.4796 10.3409 13.4329 10.3201L13.0235 10.1377C13.0119 10.1324 12.9997 10.1299 12.9877 10.1296V10.1296ZM3.8081 10.3296C3.79037 10.3283 3.77206 10.3322 3.75544 10.3418L2.83264 10.8741C2.78832 10.8997 2.77324 10.9559 2.79883 11.0002C2.82443 11.0445 2.8807 11.0595 2.92502 11.034L3.84782 10.5017C3.89214 10.4762 3.90721 10.4199 3.88162 10.3756C3.86563 10.3479 3.83766 10.3317 3.8081 10.3296V10.3296ZM12.1919 10.3296C12.1624 10.3316 12.1344 10.3479 12.1184 10.3756C12.0928 10.4199 12.1079 10.4762 12.1522 10.5017L13.075 11.0339C13.1193 11.0595 13.1756 11.0444 13.2012 11.0002C13.2268 10.9559 13.2117 10.8997 13.1674 10.8741L12.2446 10.3418C12.2279 10.3323 12.2097 10.3284 12.1919 10.3296V10.3296ZM3.57793 11.1107C3.56016 11.1114 3.54236 11.1171 3.52682 11.1284L3.16404 11.3913C3.12262 11.4213 3.11346 11.4788 3.1435 11.5202C3.17356 11.5616 3.2311 11.5707 3.27252 11.5407L3.63534 11.2777C3.67677 11.2477 3.68593 11.1902 3.65588 11.1489C3.63709 11.123 3.60755 11.1097 3.57793 11.1107L3.57793 11.1107ZM12.4199 11.1138C12.3903 11.1127 12.3607 11.126 12.3419 11.1519C12.3118 11.1933 12.321 11.2508 12.3624 11.2808L12.725 11.544C12.7664 11.5741 12.8239 11.565 12.854 11.5236C12.8841 11.4822 12.875 11.4248 12.8336 11.3947L12.471 11.1315C12.4555 11.1202 12.4376 11.1144 12.4199 11.1138L12.4199 11.1138ZM4.39957 11.1457C4.376 11.1444 4.35195 11.1522 4.33291 11.1693L3.54046 11.881C3.5024 11.9151 3.4993 11.9733 3.53352 12.0113C3.56774 12.0493 3.62591 12.0524 3.66398 12.0182L4.45643 11.3066C4.49449 11.2724 4.49759 11.2143 4.46337 11.1762C4.44627 11.1572 4.42316 11.1469 4.39957 11.1457ZM11.5982 11.1482C11.5746 11.1495 11.5515 11.1597 11.5344 11.1787C11.5002 11.2167 11.5032 11.2749 11.5412 11.3091L12.3332 12.0213C12.3712 12.0555 12.4294 12.0524 12.4637 12.0144C12.4979 11.9764 12.4949 11.9183 12.4568 11.8841L11.6649 11.1719C11.6458 11.1548 11.6218 11.147 11.5982 11.1482V11.1482ZM5.15137 11.8243C5.12175 11.8232 5.0922 11.8365 5.07338 11.8623L4.44654 12.7231C4.41643 12.7645 4.4255 12.822 4.46687 12.8521C4.50825 12.8822 4.56582 12.8731 4.59593 12.8318L5.22276 11.9709C5.25287 11.9296 5.24381 11.8721 5.20244 11.842C5.18692 11.8307 5.16913 11.8249 5.15137 11.8243ZM10.8435 11.8282C10.8257 11.8288 10.8079 11.8345 10.7924 11.8458C10.7509 11.8758 10.7418 11.9333 10.7718 11.9747L11.3975 12.8363C11.4276 12.8777 11.4851 12.8869 11.5265 12.8569C11.568 12.8268 11.5771 12.7694 11.5471 12.728L10.9214 11.8663C10.9026 11.8404 10.8731 11.8272 10.8435 11.8282L10.8435 11.8282ZM4.34216 11.9611C4.31858 11.9624 4.29546 11.9726 4.27833 11.9916L3.97843 12.3244C3.94418 12.3624 3.94721 12.4205 3.98525 12.4548C4.02329 12.489 4.08146 12.4859 4.11571 12.4479L4.41565 12.1152C4.4499 12.0772 4.44683 12.019 4.4088 11.9848C4.38977 11.9677 4.36576 11.9599 4.34218 11.9611L4.34216 11.9611ZM11.6573 11.9616C11.6337 11.9603 11.6097 11.9681 11.5907 11.9852C11.5526 12.0194 11.5496 12.0776 11.5838 12.1156L11.8836 12.4484C11.9179 12.4864 11.9761 12.4894 12.0141 12.4552C12.0521 12.421 12.0552 12.3629 12.021 12.3249L11.7211 11.9921C11.704 11.9731 11.6808 11.9628 11.6573 11.9616L11.6573 11.9616ZM6.02671 12.3307C5.99071 12.3298 5.95623 12.3504 5.94059 12.3855L5.50645 13.3576C5.4856 13.4043 5.50644 13.4587 5.55318 13.4795C5.59992 13.5003 5.65433 13.4795 5.67518 13.4328L6.10932 12.4607C6.13017 12.414 6.10933 12.3596 6.06259 12.3388C6.05092 12.3336 6.03871 12.331 6.02671 12.3307ZM9.96743 12.3334C9.95542 12.3336 9.94323 12.3362 9.93154 12.3414C9.8848 12.3622 9.86387 12.4165 9.88466 12.4632L10.3174 13.436C10.3382 13.4827 10.3926 13.5036 10.4394 13.4828C10.4861 13.462 10.5071 13.4077 10.4863 13.361L10.0535 12.3882C10.0379 12.3532 10.0034 12.3327 9.96743 12.3334V12.3334ZM5.26384 12.6313C5.23428 12.6333 5.20631 12.6496 5.19032 12.6773L4.96621 13.0651C4.94062 13.1094 4.95569 13.1656 5.00002 13.1912C5.04434 13.2167 5.10062 13.2017 5.12621 13.1574L5.35032 12.7696C5.37591 12.7253 5.36083 12.6691 5.31651 12.6435C5.29989 12.6339 5.28158 12.6301 5.26384 12.6313V12.6313ZM10.7362 12.6313C10.7184 12.63 10.7002 12.634 10.6835 12.6435C10.6392 12.6691 10.6241 12.7253 10.6497 12.7696L10.8738 13.1574C10.8994 13.2017 10.9557 13.2167 11 13.1912C11.0443 13.1656 11.0594 13.1094 11.0338 13.0651L10.8097 12.6773C10.7937 12.6496 10.7657 12.6334 10.7362 12.6313V12.6313ZM6.9932 12.6452C6.95016 12.6448 6.9116 12.6746 6.9023 12.7183L6.68086 13.7596C6.67021 13.8097 6.70197 13.8585 6.75203 13.8691C6.80209 13.8797 6.85096 13.848 6.86159 13.798L7.08303 12.7567C7.09367 12.7067 7.06191 12.6579 7.01186 12.6472C7.0056 12.6459 6.99935 12.6453 6.99321 12.6453L6.9932 12.6452ZM9.00353 12.6459C8.99738 12.6459 8.99117 12.6465 8.98492 12.6478C8.93485 12.6584 8.90307 12.7072 8.91366 12.7572L9.13435 13.7987C9.14495 13.8487 9.1938 13.8804 9.24387 13.8699C9.29394 13.8593 9.32572 13.8105 9.31512 13.7604L9.0944 12.719C9.08511 12.6753 9.04657 12.6455 9.00353 12.6458L9.00353 12.6459ZM8 12.7509C7.94882 12.7509 7.90762 12.7921 7.90762 12.8432V13.9077C7.90762 13.9588 7.94882 14 8 14C8.05118 14 8.09238 13.9588 8.09238 13.9077V12.8432C8.09238 12.7921 8.05118 12.7509 8 12.7509ZM6.30425 13.0949C6.26837 13.0979 6.23617 13.1219 6.22431 13.1584L6.08576 13.5842C6.06993 13.6329 6.09638 13.6847 6.14505 13.7006C6.19372 13.7164 6.24564 13.6899 6.26147 13.6413L6.40001 13.2154C6.41584 13.1668 6.38939 13.1149 6.34073 13.0991C6.32857 13.0952 6.31621 13.0939 6.30425 13.0949V13.0949ZM9.69503 13.0951C9.68307 13.094 9.67072 13.0953 9.65855 13.0993C9.60988 13.1151 9.58341 13.167 9.59922 13.2156L9.73773 13.6415C9.75356 13.6901 9.80548 13.7165 9.85415 13.7007C9.90283 13.6849 9.9293 13.6331 9.91348 13.5845L9.77493 13.1586C9.76306 13.1221 9.73091 13.0982 9.69503 13.0951V13.0951ZM7.42013 13.3323C7.37729 13.3364 7.342 13.37 7.33732 13.4145L7.29047 13.8599C7.28512 13.9107 7.32178 13.9559 7.37268 13.9613C7.42358 13.9666 7.46888 13.93 7.47423 13.8791L7.52108 13.4338C7.52643 13.383 7.48977 13.3377 7.43887 13.3324C7.43251 13.3317 7.42625 13.3317 7.42013 13.3323L7.42013 13.3323ZM8.57616 13.3327C8.57004 13.3321 8.56374 13.3321 8.55737 13.3328C8.50647 13.3381 8.46977 13.3833 8.47508 13.4342L8.52165 13.8796C8.52696 13.9304 8.57222 13.967 8.62312 13.9617C8.67402 13.9564 8.71073 13.9112 8.70541 13.8604L8.65888 13.415C8.65423 13.3705 8.61899 13.3369 8.57615 13.3327L8.57616 13.3327Z" fill="#F4F2F3"/>
<path fill-rule="evenodd" clip-rule="evenodd" d="M8.74168 8.92815L3.47486 12.3593L7.43776 7.48L12.7046 4.04884L8.74168 8.92815Z" fill="url(#paint2_linear_528_19567)"/>
<mask id="mask0_528_19567" style="mask-type:alpha" maskUnits="userSpaceOnUse" x="7" y="3" width="6" height="6">
<path d="M12.5053 3.97574L8.72498 8.82479L7.28835 7.22926L12.5053 3.97574Z" fill="white"/>
</mask>
<g mask="url(#mask0_528_19567)">
<path d="M12.5053 3.97574L8.72498 8.82479L7.28835 7.22926L12.5053 3.97574Z" fill="#FE504D"/>
<path d="M13.9762 5.60635L11.5406 2.90131L7.04233 6.95155L9.47797 9.6566L13.9762 5.60635Z" fill="#FE504D"/>
<g style="mix-blend-mode:multiply">
<path d="M19.8243 2.65922L17.2014 -0.253906L7.9715 8.0567L10.5945 10.9698L19.8243 2.65922Z" fill="black" fill-opacity="0.25"/>
</g>
</g>
<mask id="mask1_528_19567" style="mask-type:alpha" maskUnits="userSpaceOnUse" x="3" y="7" width="6" height="6">
<path d="M3.5073 12.0776L7.28766 7.22855L8.72428 8.82408L3.5073 12.0776Z" fill="white"/>
</mask>
<g mask="url(#mask1_528_19567)">
<path d="M3.5073 12.0776L7.28766 7.22855L8.72428 8.82408L3.5073 12.0776Z" fill="#EEEEEE"/>
<path d="M2.03641 10.447L4.47205 13.152L8.9703 9.10179L6.53467 6.39674L2.03641 10.447Z" fill="#EEEEEE"/>
<g style="mix-blend-mode:multiply">
<path d="M-1.17951 16.2936L1.44348 19.2067L10.6733 10.8961L8.05035 7.983L-1.17951 16.2936Z" fill="black" fill-opacity="0.25"/>
</g>
</g>
<defs>
<linearGradient id="paint0_linear_528_19567" x1="8" y1="15" x2="8" y2="1" gradientUnits="userSpaceOnUse">
<stop offset="0.25" stop-color="#DBDBDA"/>
<stop offset="1" stop-color="white"/>
</linearGradient>
<radialGradient id="paint1_radial_528_19567" cx="0" cy="0" r="1" gradientUnits="userSpaceOnUse" gradientTransform="translate(8.89413 6.60207) scale(7.76815)">
<stop stop-color="#2ABCE1"/>
<stop offset="0.11363" stop-color="#2ABBE1"/>
<stop offset="1" stop-color="#3375F8"/>
</radialGradient>
<linearGradient id="paint2_linear_528_19567" x1="12.7046" y1="4.04884" x2="3.47486" y2="12.3593" gradientUnits="userSpaceOnUse">
<stop stop-color="#676767" stop-opacity="0.387"/>
<stop offset="1" stop-opacity="0.387"/>
</linearGradient>
</defs>
</svg>
