<svg width="16" height="16" viewBox="0 0 16 16" fill="none" xmlns="http://www.w3.org/2000/svg">
<path fill-rule="evenodd" clip-rule="evenodd" d="M15 8C15 11.866 11.866 15 8 15C4.134 15 1 11.866 1 8C1 4.134 4.134 1 8 1C11.866 1 15 4.134 15 8ZM6 4C6.5 4 8.5 4 8.5 8C8.5 11 9.5 11 10 11C10.5 11 11.5 11 11.5 8C11.5 6.23166 11.8896 5.24508 12.3689 4.69465C12.7291 5.0197 12.8804 5.19221 13 5.45451C12.7167 5.85258 12.5 6.59929 12.5 8C12.5 12 10.5 12 10 12C9.5 12 7.5 12 7.5 8C7.5 5 6.5 5 6 5C5.5 5 4.5 5 4.5 8C4.5 9.76834 4.11044 10.7549 3.63109 11.3054C3.27089 10.9803 3.11957 10.8078 3 10.5455C3.28332 10.1474 3.50132 9.40071 3.50132 8C3.50132 4 5.5 4 6 4Z" fill="#F4AF3D"/>
</svg>
