<svg width="16" height="16" viewBox="0 0 16 16" fill="none" xmlns="http://www.w3.org/2000/svg">
<path fill-rule="evenodd" clip-rule="evenodd" d="M15 8C15 11.866 11.866 15 8 15C4.134 15 1 11.866 1 8C1 4.134 4.134 1 8 1C11.866 1 15 4.134 15 8Z" fill="#62B543"/>
<path fill-rule="evenodd" clip-rule="evenodd" d="M10.9498 9.38462V9.73077C10.9498 9.971 10.9069 10.2002 10.8458 10.4231H12V11.4615H10.2902C9.75636 12.0888 8.95055 12.5 8.04073 12.5C7.13091 12.5 6.32509 12.0888 5.79127 11.4615H4V10.4231H5.23564C5.17455 10.2002 5.13164 9.971 5.13164 9.73077V9.38462H4V8.34615H5.13164V7.65385C5.13164 7.53546 5.15345 7.42262 5.16873 7.30769H4V6.26923H5.53818C5.816 5.81715 6.22182 5.44954 6.71127 5.20654L5.68945 4.23454L6.46109 3.5L7.92727 4.89569C7.96582 4.89431 7.96145 4.88877 8 4.88877C8.01382 4.88877 8.06618 4.89431 8.08 4.895L9.53891 3.5L10.3105 4.23454L9.31782 5.17954C9.83055 5.42115 10.2553 5.80054 10.5433 6.26923H12V7.30769H10.9127C10.928 7.42262 10.9498 7.53546 10.9498 7.65385V8.34615H12V9.38462H10.9498ZM6.8 7.35714V8.32143H9.2V7.35714H6.8ZM6.8 9.28571V10.25H9.2V9.28571H6.8Z" fill="#231F20" fill-opacity="0.7"/>
</svg>
