<svg width="16" height="16" viewBox="0 0 16 16" fill="none" xmlns="http://www.w3.org/2000/svg">
<path fill-rule="evenodd" clip-rule="evenodd" d="M15 8C15 11.866 11.866 15 8 15C4.134 15 1 11.866 1 8C1 4.134 4.134 1 8 1C11.866 1 15 4.134 15 8Z" fill="#40B6E0"/>
<path fill-rule="evenodd" clip-rule="evenodd" d="M6 8.0004V6.0004L8.53666 6.0004C9.30266 6.0004 9.99966 6.313 9.99966 6.954C9.99966 7.595 9.28466 8.0004 8.54666 8.0004L6 8.0004ZM9.35966 8.828C10.1747 8.59 10.9997 8.10987 10.9997 6.913C10.9997 5.71614 9.94851 5 8.62166 5L5 5V11H6V9.0004L8.32766 9.0004L9.77266 11H10.9997L9.35966 8.828Z" fill="#231F20" fill-opacity="0.7"/>
</svg>
