<svg width="600" height="442" viewBox="0 0 600 442" fill="none" xmlns="http://www.w3.org/2000/svg">
<g clip-path="url(#clip0_915_19146)">
<path d="M554.58 82.7518C553.909 79.1404 553.338 76.1793 552.767 73.2182L550.954 63.6846C551.625 67.296 552.196 70.2571 552.767 73.2182L554.58 82.7518Z" fill="url(#paint0_radial_915_19146)"/>
<path d="M0 172.177C0 190.664 6.16668 207.711 16.5569 221.378C5.82921 254.999 0.763359 291.117 0.763359 328.719C0.763359 346.12 2.00465 363.203 4.39635 379.868C4.9187 383.508 5.49593 387.128 6.12708 390.726C13.3337 420.147 39.8976 441.978 71.5649 441.978C103.859 441.978 130.845 419.274 137.408 388.971L137.63 387.9L151.908 319.258C164.385 330.362 180.832 337.108 198.855 337.108C219.789 337.108 238.596 328.006 251.527 313.546H348.473C361.404 328.006 380.211 337.108 401.145 337.108C418.894 337.108 435.114 330.565 447.519 319.762L462.544 388.745L462.676 389.352C469.381 419.465 496.277 441.978 528.435 441.978C560.102 441.978 586.666 420.147 593.873 390.726C594.504 387.128 595.604 379.868 595.604 379.868C595.604 379.868 599.237 346.12 599.237 328.719C599.237 291.117 594.171 254.999 583.443 221.378C593.833 207.711 600 190.664 600 172.177C600 146.919 588.488 124.346 570.42 109.413C562.645 100.233 559.565 94.0952 554.58 82.7518L552.767 73.2182C552.196 70.2571 551.625 67.296 550.954 63.6846C550.162 60.0754 548.39 58.4293 545.992 56.4391C527.56 40.6804 538.72 33.4178 491.412 33.7491L452.672 40.0413C452.057 42.2783 451.552 44.2843 450.954 46.1428C447.668 56.3654 444.164 67.2425 436.26 69.2141L320.992 66.926H279.008L163.74 69.2141C155.836 67.2425 152.332 56.3654 149.046 46.1428C148.448 44.2843 147.943 42.2783 147.328 40.0413L108.588 33.7491C61.2803 33.4178 72.44 40.6804 54.0076 56.4391C51.6095 58.4293 49.8378 60.0754 49.0458 63.6846C48.3751 67.296 47.8039 70.2571 47.2328 73.2182L45.4198 82.7518C39.9993 96.2126 36.4486 102.41 28.8168 110.052C11.1885 124.986 0 147.276 0 172.177Z" fill="url(#paint1_radial_915_19146)"/>
<g opacity="0.33">
<path fill-rule="evenodd" clip-rule="evenodd" d="M16.5569 221.383C6.16668 207.716 0 190.668 0 172.182C0 147.281 11.1885 124.991 28.8168 110.057L116.603 98.9638C116.603 98.9638 137.469 116.296 149.134 129.09C166.554 148.196 187.214 183.241 187.214 183.241C186.058 188.407 184.888 193.364 183.698 198.113C197.992 192.277 234.683 201.029 253.244 231.1C274.046 264.929 260.707 293.536 254.05 307.813C252.98 310.109 252.082 312.035 251.527 313.552C238.596 328.011 219.789 337.113 198.855 337.113C180.832 337.113 164.385 330.367 151.908 319.263L181.037 208.251C157.701 293.067 125.467 303.192 45.6107 253.98L16.5569 221.383ZM151.908 319.263L137.63 387.905L137.408 388.976C130.845 419.279 103.859 441.983 71.5649 441.983C41.6892 441.983 16.3558 422.552 7.53357 395.65C8.21772 395.494 12.1297 397.193 17.9699 399.729C40.6778 409.59 92.5361 432.11 97.1374 407.471C102.459 356.099 105.725 328.006 126.336 315.186C132.016 311.307 135.875 310.64 143.702 311.563L151.908 319.263ZM348.473 313.552C361.404 328.011 380.211 337.113 401.145 337.113C418.894 337.113 435.114 330.57 447.519 319.767L462.544 388.75L462.544 388.752C462.56 388.827 462.576 388.902 462.592 388.976C462.601 389.018 462.611 389.061 462.62 389.103L462.635 389.17C462.648 389.231 462.661 389.292 462.675 389.353L462.676 389.358C469.381 419.47 496.277 441.983 528.435 441.983C558.311 441.983 583.644 422.552 592.466 395.65C591.782 395.494 587.87 397.193 582.03 399.729C559.322 409.59 507.464 432.11 502.863 407.471C497.541 356.099 494.275 328.006 473.664 315.186C467.984 311.307 464.125 310.64 456.298 311.563L448.092 319.263L418.963 208.251C442.299 293.067 474.533 303.192 554.389 253.98L583.443 221.383C593.833 207.716 600 190.668 600 172.182C600 147.281 588.811 124.991 571.183 110.057L483.397 98.9638L451.145 126.421L412.786 183.241C413.942 188.407 415.112 193.364 416.302 198.113C402.008 192.277 365.317 201.029 346.756 231.1C325.954 264.929 339.293 293.536 345.95 307.813C347.02 310.109 347.918 312.035 348.473 313.552Z" fill="url(#paint2_linear_915_19146)"/>
<path fill-rule="evenodd" clip-rule="evenodd" d="M16.5569 221.383C6.16668 207.716 0 190.668 0 172.182C0 147.281 11.1885 124.991 28.8168 110.057L116.603 98.9638C116.603 98.9638 137.469 116.296 149.134 129.09C166.554 148.196 187.214 183.241 187.214 183.241C186.058 188.407 184.888 193.364 183.698 198.113C197.992 192.277 234.683 201.029 253.244 231.1C274.046 264.929 260.707 293.536 254.05 307.813C252.98 310.109 252.082 312.035 251.527 313.552C238.596 328.011 219.789 337.113 198.855 337.113C180.832 337.113 164.385 330.367 151.908 319.263L181.037 208.251C157.701 293.067 125.467 303.192 45.6107 253.98L16.5569 221.383ZM151.908 319.263L137.63 387.905L137.408 388.976C130.845 419.279 103.859 441.983 71.5649 441.983C41.6892 441.983 16.3558 422.552 7.53357 395.65C8.21772 395.494 12.1297 397.193 17.9699 399.729C40.6778 409.59 92.5361 432.11 97.1374 407.471C102.459 356.099 105.725 328.006 126.336 315.186C132.016 311.307 135.875 310.64 143.702 311.563L151.908 319.263ZM348.473 313.552C361.404 328.011 380.211 337.113 401.145 337.113C418.894 337.113 435.114 330.57 447.519 319.767L462.544 388.75L462.544 388.752C462.56 388.827 462.576 388.902 462.592 388.976C462.601 389.018 462.611 389.061 462.62 389.103L462.635 389.17C462.648 389.231 462.661 389.292 462.675 389.353L462.676 389.358C469.381 419.47 496.277 441.983 528.435 441.983C558.311 441.983 583.644 422.552 592.466 395.65C591.782 395.494 587.87 397.193 582.03 399.729C559.322 409.59 507.464 432.11 502.863 407.471C497.541 356.099 494.275 328.006 473.664 315.186C467.984 311.307 464.125 310.64 456.298 311.563L448.092 319.263L418.963 208.251C442.299 293.067 474.533 303.192 554.389 253.98L583.443 221.383C593.833 207.716 600 190.668 600 172.182C600 147.281 588.811 124.991 571.183 110.057L483.397 98.9638L451.145 126.421L412.786 183.241C413.942 188.407 415.112 193.364 416.302 198.113C402.008 192.277 365.317 201.029 346.756 231.1C325.954 264.929 339.293 293.536 345.95 307.813C347.02 310.109 347.918 312.035 348.473 313.552Z" fill="url(#paint3_linear_915_19146)"/>
<path fill-rule="evenodd" clip-rule="evenodd" d="M16.5569 221.383C6.16668 207.716 0 190.668 0 172.182C0 147.281 11.1885 124.991 28.8168 110.057L116.603 98.9638C116.603 98.9638 137.469 116.296 149.134 129.09C166.554 148.196 187.214 183.241 187.214 183.241C186.058 188.407 184.888 193.364 183.698 198.113C197.992 192.277 234.683 201.029 253.244 231.1C274.046 264.929 260.707 293.536 254.05 307.813C252.98 310.109 252.082 312.035 251.527 313.552C238.596 328.011 219.789 337.113 198.855 337.113C180.832 337.113 164.385 330.367 151.908 319.263L181.037 208.251C157.701 293.067 125.467 303.192 45.6107 253.98L16.5569 221.383ZM151.908 319.263L137.63 387.905L137.408 388.976C130.845 419.279 103.859 441.983 71.5649 441.983C41.6892 441.983 16.3558 422.552 7.53357 395.65C8.21772 395.494 12.1297 397.193 17.9699 399.729C40.6778 409.59 92.5361 432.11 97.1374 407.471C102.459 356.099 105.725 328.006 126.336 315.186C132.016 311.307 135.875 310.64 143.702 311.563L151.908 319.263ZM348.473 313.552C361.404 328.011 380.211 337.113 401.145 337.113C418.894 337.113 435.114 330.57 447.519 319.767L462.544 388.75L462.544 388.752C462.56 388.827 462.576 388.902 462.592 388.976C462.601 389.018 462.611 389.061 462.62 389.103L462.635 389.17C462.648 389.231 462.661 389.292 462.675 389.353L462.676 389.358C469.381 419.47 496.277 441.983 528.435 441.983C558.311 441.983 583.644 422.552 592.466 395.65C591.782 395.494 587.87 397.193 582.03 399.729C559.322 409.59 507.464 432.11 502.863 407.471C497.541 356.099 494.275 328.006 473.664 315.186C467.984 311.307 464.125 310.64 456.298 311.563L448.092 319.263L418.963 208.251C442.299 293.067 474.533 303.192 554.389 253.98L583.443 221.383C593.833 207.716 600 190.668 600 172.182C600 147.281 588.811 124.991 571.183 110.057L483.397 98.9638L451.145 126.421L412.786 183.241C413.942 188.407 415.112 193.364 416.302 198.113C402.008 192.277 365.317 201.029 346.756 231.1C325.954 264.929 339.293 293.536 345.95 307.813C347.02 310.109 347.918 312.035 348.473 313.552Z" fill="url(#paint4_linear_915_19146)"/>
<path fill-rule="evenodd" clip-rule="evenodd" d="M16.5569 221.383C6.16668 207.716 0 190.668 0 172.182C0 147.281 11.1885 124.991 28.8168 110.057L116.603 98.9638C116.603 98.9638 137.469 116.296 149.134 129.09C166.554 148.196 187.214 183.241 187.214 183.241C186.058 188.407 184.888 193.364 183.698 198.113C197.992 192.277 234.683 201.029 253.244 231.1C274.046 264.929 260.707 293.536 254.05 307.813C252.98 310.109 252.082 312.035 251.527 313.552C238.596 328.011 219.789 337.113 198.855 337.113C180.832 337.113 164.385 330.367 151.908 319.263L181.037 208.251C157.701 293.067 125.467 303.192 45.6107 253.98L16.5569 221.383ZM151.908 319.263L137.63 387.905L137.408 388.976C130.845 419.279 103.859 441.983 71.5649 441.983C41.6892 441.983 16.3558 422.552 7.53357 395.65C8.21772 395.494 12.1297 397.193 17.9699 399.729C40.6778 409.59 92.5361 432.11 97.1374 407.471C102.459 356.099 105.725 328.006 126.336 315.186C132.016 311.307 135.875 310.64 143.702 311.563L151.908 319.263ZM348.473 313.552C361.404 328.011 380.211 337.113 401.145 337.113C418.894 337.113 435.114 330.57 447.519 319.767L462.544 388.75L462.544 388.752C462.56 388.827 462.576 388.902 462.592 388.976C462.601 389.018 462.611 389.061 462.62 389.103L462.635 389.17C462.648 389.231 462.661 389.292 462.675 389.353L462.676 389.358C469.381 419.47 496.277 441.983 528.435 441.983C558.311 441.983 583.644 422.552 592.466 395.65C591.782 395.494 587.87 397.193 582.03 399.729C559.322 409.59 507.464 432.11 502.863 407.471C497.541 356.099 494.275 328.006 473.664 315.186C467.984 311.307 464.125 310.64 456.298 311.563L448.092 319.263L418.963 208.251C442.299 293.067 474.533 303.192 554.389 253.98L583.443 221.383C593.833 207.716 600 190.668 600 172.182C600 147.281 588.811 124.991 571.183 110.057L483.397 98.9638L451.145 126.421L412.786 183.241C413.942 188.407 415.112 193.364 416.302 198.113C402.008 192.277 365.317 201.029 346.756 231.1C325.954 264.929 339.293 293.536 345.95 307.813C347.02 310.109 347.918 312.035 348.473 313.552Z" fill="url(#paint5_linear_915_19146)"/>
<path d="M53.0534 57.2067C50.6553 59.1969 49.6469 60.6523 48.855 64.2616C50.1131 71.8936 51.5234 75.934 68.7023 78.1806C83.9178 79.3244 93.9395 78.9165 111.56 78.1995L112.023 78.1806C132.31 75.2109 140.923 71.2351 149.134 58.1601C150.57 56.2576 150.712 53.5618 149.134 46.1812C148.537 44.3228 147.943 42.2832 147.328 40.0462L107.824 34.326C60.517 33.9947 71.4858 41.4481 53.0534 57.2067Z" fill="url(#paint6_linear_915_19146)"/>
<path d="M53.0534 57.2067C50.6553 59.1969 49.6469 60.6523 48.855 64.2616C50.1131 71.8936 51.5234 75.934 68.7023 78.1806C83.9178 79.3244 93.9395 78.9165 111.56 78.1995L112.023 78.1806C132.31 75.2109 140.923 71.2351 149.134 58.1601C150.57 56.2576 150.712 53.5618 149.134 46.1812C148.537 44.3228 147.943 42.2832 147.328 40.0462L107.824 34.326C60.517 33.9947 71.4858 41.4481 53.0534 57.2067Z" fill="url(#paint7_linear_915_19146)"/>
<path d="M53.0534 57.2067C50.6553 59.1969 49.6469 60.6523 48.855 64.2616C50.1131 71.8936 51.5234 75.934 68.7023 78.1806C83.9178 79.3244 93.9395 78.9165 111.56 78.1995L112.023 78.1806C132.31 75.2109 140.923 71.2351 149.134 58.1601C150.57 56.2576 150.712 53.5618 149.134 46.1812C148.537 44.3228 147.943 42.2832 147.328 40.0462L107.824 34.326C60.517 33.9947 71.4858 41.4481 53.0534 57.2067Z" fill="url(#paint8_linear_915_19146)"/>
<path d="M53.0534 57.2067C50.6553 59.1969 49.6469 60.6523 48.855 64.2616C50.1131 71.8936 51.5234 75.934 68.7023 78.1806C83.9178 79.3244 93.9395 78.9165 111.56 78.1995L112.023 78.1806C132.31 75.2109 140.923 71.2351 149.134 58.1601C150.57 56.2576 150.712 53.5618 149.134 46.1812C148.537 44.3228 147.943 42.2832 147.328 40.0462L107.824 34.326C60.517 33.9947 71.4858 41.4481 53.0534 57.2067Z" fill="url(#paint9_linear_915_19146)"/>
<path d="M551.145 64.2616C550.353 60.6523 549.345 59.1969 546.947 57.2067C528.514 41.4481 537.956 33.2269 490.649 33.5582L471.947 37.3768L452.672 40.0462C452.057 42.2832 451.463 44.3228 450.866 46.1813C449.288 53.5618 449.43 56.2577 450.866 58.1601C459.077 71.2352 467.69 75.2109 487.977 78.1807L488.44 78.1995C506.061 78.9166 516.082 79.3244 531.298 78.1807C548.477 75.9341 549.887 71.8936 551.145 64.2616Z" fill="url(#paint10_linear_915_19146)"/>
<path d="M551.145 64.2616C550.353 60.6523 549.345 59.1969 546.947 57.2067C528.514 41.4481 537.956 33.2269 490.649 33.5582L471.947 37.3768L452.672 40.0462C452.057 42.2832 451.463 44.3228 450.866 46.1813C449.288 53.5618 449.43 56.2577 450.866 58.1601C459.077 71.2352 467.69 75.2109 487.977 78.1807L488.44 78.1995C506.061 78.9166 516.082 79.3244 531.298 78.1807C548.477 75.9341 549.887 71.8936 551.145 64.2616Z" fill="url(#paint11_linear_915_19146)"/>
<path d="M551.145 64.2616C550.353 60.6523 549.345 59.1969 546.947 57.2067C528.514 41.4481 537.956 33.2269 490.649 33.5582L471.947 37.3768L452.672 40.0462C452.057 42.2832 451.463 44.3228 450.866 46.1813C449.288 53.5618 449.43 56.2577 450.866 58.1601C459.077 71.2352 467.69 75.2109 487.977 78.1807L488.44 78.1995C506.061 78.9166 516.082 79.3244 531.298 78.1807C548.477 75.9341 549.887 71.8936 551.145 64.2616Z" fill="url(#paint12_linear_915_19146)"/>
<path d="M551.145 64.2616C550.353 60.6523 549.345 59.1969 546.947 57.2067C528.514 41.4481 537.956 33.2269 490.649 33.5582L471.947 37.3768L452.672 40.0462C452.057 42.2832 451.463 44.3228 450.866 46.1813C449.288 53.5618 449.43 56.2577 450.866 58.1601C459.077 71.2352 467.69 75.2109 487.977 78.1807L488.44 78.1995C506.061 78.9166 516.082 79.3244 531.298 78.1807C548.477 75.9341 549.887 71.8936 551.145 64.2616Z" fill="url(#paint13_linear_915_19146)"/>
</g>
<ellipse rx="81.4885" ry="81.417" transform="matrix(-1 0 0 1 518.511 172.177)" fill="#C4C4C4"/>
<path d="M303.817 202.875C303.817 204.77 302.279 206.307 300.382 206.307C298.485 206.307 296.947 204.77 296.947 202.875C296.947 200.979 298.485 199.443 300.382 199.443C302.279 199.443 303.817 200.979 303.817 202.875Z" fill="url(#paint14_radial_915_19146)"/>
<path d="M277.099 202.875C277.099 204.77 275.561 206.307 273.664 206.307C271.767 206.307 270.229 204.77 270.229 202.875C270.229 200.979 271.767 199.443 273.664 199.443C275.561 199.443 277.099 200.979 277.099 202.875Z" fill="url(#paint15_radial_915_19146)"/>
<path d="M283.969 212.027C283.969 213.923 282.432 215.459 280.534 215.459C278.637 215.459 277.099 213.923 277.099 212.027C277.099 210.132 278.637 208.595 280.534 208.595C282.432 208.595 283.969 210.132 283.969 212.027Z" fill="url(#paint16_radial_915_19146)"/>
<path d="M290.84 220.798C290.84 222.694 289.302 224.23 287.405 224.23C285.507 224.23 283.969 222.694 283.969 220.798C283.969 218.903 285.507 217.366 287.405 217.366C289.302 217.366 290.84 218.903 290.84 220.798Z" fill="url(#paint17_radial_915_19146)"/>
<path d="M296.947 212.027C296.947 213.923 295.409 215.459 293.511 215.459C291.614 215.459 290.076 213.923 290.076 212.027C290.076 210.132 291.614 208.595 293.511 208.595C295.409 208.595 296.947 210.132 296.947 212.027Z" fill="url(#paint18_radial_915_19146)"/>
<path d="M290.076 202.875C290.076 204.77 288.538 206.307 286.641 206.307C284.744 206.307 283.206 204.77 283.206 202.875C283.206 200.979 284.744 199.443 286.641 199.443C288.538 199.443 290.076 200.979 290.076 202.875Z" fill="url(#paint19_radial_915_19146)"/>
<path d="M323.282 202.875C323.282 204.77 324.82 206.307 326.718 206.307C328.615 206.307 330.153 204.77 330.153 202.875C330.153 200.979 328.615 199.443 326.718 199.443C324.82 199.443 323.282 200.979 323.282 202.875Z" fill="url(#paint20_radial_915_19146)"/>
<path d="M316.412 212.027C316.412 213.923 317.95 215.459 319.847 215.459C321.744 215.459 323.282 213.923 323.282 212.027C323.282 210.132 321.744 208.595 319.847 208.595C317.95 208.595 316.412 210.132 316.412 212.027Z" fill="url(#paint21_radial_915_19146)"/>
<path d="M309.542 220.798C309.542 222.694 311.08 224.23 312.977 224.23C314.874 224.23 316.412 222.694 316.412 220.798C316.412 218.903 314.874 217.366 312.977 217.366C311.08 217.366 309.542 218.903 309.542 220.798Z" fill="url(#paint22_radial_915_19146)"/>
<path d="M303.435 212.027C303.435 213.923 304.973 215.459 306.87 215.459C308.767 215.459 310.305 213.923 310.305 212.027C310.305 210.132 308.767 208.595 306.87 208.595C304.973 208.595 303.435 210.132 303.435 212.027Z" fill="url(#paint23_radial_915_19146)"/>
<path d="M310.305 202.875C310.305 204.77 311.843 206.307 313.74 206.307C315.638 206.307 317.176 204.77 317.176 202.875C317.176 200.979 315.638 199.443 313.74 199.443C311.843 199.443 310.305 200.979 310.305 202.875Z" fill="url(#paint24_radial_915_19146)"/>
<path d="M303.817 220.798C303.817 222.694 302.279 224.23 300.382 224.23C298.485 224.23 296.947 222.694 296.947 220.798C296.947 218.903 298.485 217.366 300.382 217.366C302.279 217.366 303.817 218.903 303.817 220.798Z" fill="url(#paint25_radial_915_19146)"/>
<ellipse cx="81.4885" cy="172.177" rx="81.4885" ry="81.417" fill="#C4C4C4"/>
<path d="M475.954 265.034C475.954 302.102 445.879 332.151 408.779 332.151C371.679 332.151 341.603 302.102 341.603 265.034C341.603 227.967 371.679 197.918 408.779 197.918C445.879 197.918 475.954 227.967 475.954 265.034Z" fill="url(#paint26_radial_915_19146)"/>
<path d="M258.397 265.034C258.397 302.102 228.322 332.151 191.221 332.151C154.121 332.151 124.046 302.102 124.046 265.034C124.046 227.967 154.121 197.918 191.221 197.918C228.322 197.918 258.397 227.967 258.397 265.034Z" fill="url(#paint27_radial_915_19146)"/>
<path d="M82.2497 97.624L92.1481 110.842H71.7802L82.2497 97.624Z" fill="#474747"/>
<path d="M6.48877 171.796L19.2425 162.477V182.256L6.48877 171.796Z" fill="#474747"/>
<path d="M156.107 171.606L142.973 161.906V181.686L156.107 171.606Z" fill="#474747"/>
<path d="M80.3462 246.348L90.8156 233.416H70.4477L80.3462 246.348Z" fill="#474747"/>
<path d="M86.7234 172.15C86.5203 169.459 93.9351 162.987 103.308 153.982C124.994 149.441 133.588 150.65 135.564 153.982C141.106 169.374 141.036 175.32 135.564 189.591C130.429 193.858 128.092 194.678 103.308 191.045C92.8899 181.131 85.7898 174.763 86.7234 172.15Z" fill="black"/>
<path d="M81.2708 166.947C78.5534 167.15 72.0166 159.741 62.9232 150.377C58.3363 128.709 59.5581 120.123 62.9232 118.149C78.4675 112.612 84.4718 112.681 98.8844 118.149C103.194 123.279 104.022 125.614 100.352 150.377C90.3407 160.786 83.9098 167.879 81.2708 166.947Z" fill="black"/>
<path d="M81.3249 177.408C84.0423 177.204 90.5791 184.665 99.6725 194.097C104.259 215.92 103.038 224.568 99.6725 226.557C84.1282 232.134 78.1239 232.064 63.7113 226.557C59.402 221.39 58.574 219.038 62.2435 194.097C72.255 183.613 78.6859 176.468 81.3249 177.408Z" fill="black"/>
<ellipse cx="191.794" cy="265.988" rx="41.4122" ry="41.3758" fill="black"/>
<ellipse cx="408.588" cy="265.988" rx="41.4122" ry="41.3758" fill="black"/>
<path d="M75.4904 172.013C75.6936 174.728 68.2788 181.259 58.9064 190.345C37.2196 194.928 28.6261 193.707 26.6495 190.345C21.1078 174.814 21.1776 168.815 26.6495 154.415C31.7844 150.11 34.1215 149.282 58.9064 152.949C69.324 162.951 76.4241 169.377 75.4904 172.013Z" fill="black"/>
<ellipse cx="519.084" cy="221.561" rx="25.1908" ry="25.1687" fill="#0B0A0A"/>
<ellipse cx="469.466" cy="170.842" rx="25.1908" ry="25.1687" fill="#0B0A0A"/>
<ellipse cx="519.084" cy="119.742" rx="25.1908" ry="25.1687" fill="#0B0A0A"/>
<ellipse cx="570.229" cy="170.842" rx="25.1908" ry="25.1687" fill="#0B0A0A"/>
<ellipse cx="299.619" cy="267.704" rx="20.6107" ry="20.5926" fill="black"/>
<path d="M187.023 83.1331H412.214L414.504 163.978H185.115L187.023 83.1331Z" fill="black"/>
<path d="M414.504 163.978H185.115C187.735 175.631 193.7 178.694 203.435 179.613H395.42C407.398 177.885 412.166 174.73 414.504 163.978Z" fill="black"/>
<path d="M187.023 83.1331H412.214C410.318 72.9579 411.052 68.5914 404.39 66.5447H195.611C190.701 68.359 188.37 73.9094 187.023 83.1331Z" fill="black"/>
<path d="M148.855 93.8107L148.092 117.645C148.092 123.365 154.008 128.132 159.16 128.132C164.313 128.132 170.802 123.937 170.802 117.645L171.183 93.8107C171.183 90.1879 166.741 85.6443 160.306 85.4211C154.263 85.4261 148.855 89.9973 148.855 93.8107Z" fill="black"/>
<path d="M450.573 93.8107L451.336 117.645C451.336 123.365 445.42 128.132 440.267 128.132C435.115 128.132 428.626 123.937 428.626 117.645L428.244 93.8107C428.244 90.1879 432.687 85.6443 439.122 85.4211C445.165 85.4261 450.573 89.9973 450.573 93.8107Z" fill="black"/>
</g>
<defs>
<radialGradient id="paint0_radial_915_19146" cx="0" cy="0" r="1" gradientUnits="userSpaceOnUse" gradientTransform="translate(300 240.992) rotate(90) scale(346.659 266.634)">
<stop stop-color="#D0D0D0"/>
<stop offset="0.536458" stop-color="#DBDBDB"/>
<stop offset="1" stop-color="#AAAAAA"/>
</radialGradient>
<radialGradient id="paint1_radial_915_19146" cx="0" cy="0" r="1" gradientUnits="userSpaceOnUse" gradientTransform="translate(300 240.992) rotate(90) scale(346.659 266.634)">
<stop stop-color="#D0D0D0"/>
<stop offset="0.536458" stop-color="#DBDBDB"/>
<stop offset="1" stop-color="#AAAAAA"/>
</radialGradient>
<linearGradient id="paint2_linear_915_19146" x1="78.2442" y1="168.75" x2="154.51" y2="248.518" gradientUnits="userSpaceOnUse">
<stop/>
<stop offset="0.65625" stop-opacity="0.5"/>
<stop offset="1" stop-color="#C4C4C4" stop-opacity="0"/>
</linearGradient>
<linearGradient id="paint3_linear_915_19146" x1="522.71" y1="168.75" x2="449.3" y2="241.079" gradientUnits="userSpaceOnUse">
<stop/>
<stop offset="0.726409" stop-opacity="0.49"/>
<stop offset="1" stop-color="#C4C4C4" stop-opacity="0"/>
</linearGradient>
<linearGradient id="paint4_linear_915_19146" x1="175.572" y1="251.311" x2="270.128" y2="368.846" gradientUnits="userSpaceOnUse">
<stop stop-opacity="0"/>
<stop offset="0.0001"/>
<stop offset="0.48379" stop-opacity="0.49"/>
<stop offset="1" stop-color="#C4C4C4" stop-opacity="0"/>
</linearGradient>
<linearGradient id="paint5_linear_915_19146" x1="416.794" y1="249.976" x2="337.491" y2="351.863" gradientUnits="userSpaceOnUse">
<stop stop-opacity="0"/>
<stop offset="0.0001"/>
<stop offset="0.48379" stop-opacity="0.49"/>
<stop offset="1" stop-color="#C4C4C4" stop-opacity="0"/>
</linearGradient>
<linearGradient id="paint6_linear_915_19146" x1="78.2442" y1="168.75" x2="154.51" y2="248.518" gradientUnits="userSpaceOnUse">
<stop/>
<stop offset="0.65625" stop-opacity="0.5"/>
<stop offset="1" stop-color="#C4C4C4" stop-opacity="0"/>
</linearGradient>
<linearGradient id="paint7_linear_915_19146" x1="522.71" y1="168.75" x2="449.3" y2="241.079" gradientUnits="userSpaceOnUse">
<stop/>
<stop offset="0.726409" stop-opacity="0.49"/>
<stop offset="1" stop-color="#C4C4C4" stop-opacity="0"/>
</linearGradient>
<linearGradient id="paint8_linear_915_19146" x1="175.572" y1="251.311" x2="270.128" y2="368.846" gradientUnits="userSpaceOnUse">
<stop stop-opacity="0"/>
<stop offset="0.0001"/>
<stop offset="0.48379" stop-opacity="0.49"/>
<stop offset="1" stop-color="#C4C4C4" stop-opacity="0"/>
</linearGradient>
<linearGradient id="paint9_linear_915_19146" x1="416.794" y1="249.976" x2="337.491" y2="351.863" gradientUnits="userSpaceOnUse">
<stop stop-opacity="0"/>
<stop offset="0.0001"/>
<stop offset="0.48379" stop-opacity="0.49"/>
<stop offset="1" stop-color="#C4C4C4" stop-opacity="0"/>
</linearGradient>
<linearGradient id="paint10_linear_915_19146" x1="78.2442" y1="168.75" x2="154.51" y2="248.518" gradientUnits="userSpaceOnUse">
<stop/>
<stop offset="0.65625" stop-opacity="0.5"/>
<stop offset="1" stop-color="#C4C4C4" stop-opacity="0"/>
</linearGradient>
<linearGradient id="paint11_linear_915_19146" x1="522.71" y1="168.75" x2="449.3" y2="241.079" gradientUnits="userSpaceOnUse">
<stop/>
<stop offset="0.726409" stop-opacity="0.49"/>
<stop offset="1" stop-color="#C4C4C4" stop-opacity="0"/>
</linearGradient>
<linearGradient id="paint12_linear_915_19146" x1="175.572" y1="251.311" x2="270.128" y2="368.846" gradientUnits="userSpaceOnUse">
<stop stop-opacity="0"/>
<stop offset="0.0001"/>
<stop offset="0.48379" stop-opacity="0.49"/>
<stop offset="1" stop-color="#C4C4C4" stop-opacity="0"/>
</linearGradient>
<linearGradient id="paint13_linear_915_19146" x1="416.794" y1="249.976" x2="337.491" y2="351.863" gradientUnits="userSpaceOnUse">
<stop stop-opacity="0"/>
<stop offset="0.0001"/>
<stop offset="0.48379" stop-opacity="0.49"/>
<stop offset="1" stop-color="#C4C4C4" stop-opacity="0"/>
</linearGradient>
<radialGradient id="paint14_radial_915_19146" cx="0" cy="0" r="1" gradientUnits="userSpaceOnUse" gradientTransform="translate(300 208.786) rotate(90) scale(54.1509 63.4268)">
<stop stop-color="#303030"/>
<stop offset="1" stop-color="#2F2F2F" stop-opacity="0"/>
</radialGradient>
<radialGradient id="paint15_radial_915_19146" cx="0" cy="0" r="1" gradientUnits="userSpaceOnUse" gradientTransform="translate(300 208.786) rotate(90) scale(54.1509 63.4268)">
<stop stop-color="#303030"/>
<stop offset="1" stop-color="#2F2F2F" stop-opacity="0"/>
</radialGradient>
<radialGradient id="paint16_radial_915_19146" cx="0" cy="0" r="1" gradientUnits="userSpaceOnUse" gradientTransform="translate(300 208.786) rotate(90) scale(54.1509 63.4268)">
<stop stop-color="#303030"/>
<stop offset="1" stop-color="#2F2F2F" stop-opacity="0"/>
</radialGradient>
<radialGradient id="paint17_radial_915_19146" cx="0" cy="0" r="1" gradientUnits="userSpaceOnUse" gradientTransform="translate(300 208.786) rotate(90) scale(54.1509 63.4268)">
<stop stop-color="#303030"/>
<stop offset="1" stop-color="#2F2F2F" stop-opacity="0"/>
</radialGradient>
<radialGradient id="paint18_radial_915_19146" cx="0" cy="0" r="1" gradientUnits="userSpaceOnUse" gradientTransform="translate(300 208.786) rotate(90) scale(54.1509 63.4268)">
<stop stop-color="#303030"/>
<stop offset="1" stop-color="#2F2F2F" stop-opacity="0"/>
</radialGradient>
<radialGradient id="paint19_radial_915_19146" cx="0" cy="0" r="1" gradientUnits="userSpaceOnUse" gradientTransform="translate(300 208.786) rotate(90) scale(54.1509 63.4268)">
<stop stop-color="#303030"/>
<stop offset="1" stop-color="#2F2F2F" stop-opacity="0"/>
</radialGradient>
<radialGradient id="paint20_radial_915_19146" cx="0" cy="0" r="1" gradientUnits="userSpaceOnUse" gradientTransform="translate(300 208.786) rotate(90) scale(54.1509 63.4268)">
<stop stop-color="#303030"/>
<stop offset="1" stop-color="#2F2F2F" stop-opacity="0"/>
</radialGradient>
<radialGradient id="paint21_radial_915_19146" cx="0" cy="0" r="1" gradientUnits="userSpaceOnUse" gradientTransform="translate(300 208.786) rotate(90) scale(54.1509 63.4268)">
<stop stop-color="#303030"/>
<stop offset="1" stop-color="#2F2F2F" stop-opacity="0"/>
</radialGradient>
<radialGradient id="paint22_radial_915_19146" cx="0" cy="0" r="1" gradientUnits="userSpaceOnUse" gradientTransform="translate(300 208.786) rotate(90) scale(54.1509 63.4268)">
<stop stop-color="#303030"/>
<stop offset="1" stop-color="#2F2F2F" stop-opacity="0"/>
</radialGradient>
<radialGradient id="paint23_radial_915_19146" cx="0" cy="0" r="1" gradientUnits="userSpaceOnUse" gradientTransform="translate(300 208.786) rotate(90) scale(54.1509 63.4268)">
<stop stop-color="#303030"/>
<stop offset="1" stop-color="#2F2F2F" stop-opacity="0"/>
</radialGradient>
<radialGradient id="paint24_radial_915_19146" cx="0" cy="0" r="1" gradientUnits="userSpaceOnUse" gradientTransform="translate(300 208.786) rotate(90) scale(54.1509 63.4268)">
<stop stop-color="#303030"/>
<stop offset="1" stop-color="#2F2F2F" stop-opacity="0"/>
</radialGradient>
<radialGradient id="paint25_radial_915_19146" cx="0" cy="0" r="1" gradientUnits="userSpaceOnUse" gradientTransform="translate(300 208.786) rotate(90) scale(54.1509 63.4268)">
<stop stop-color="#303030"/>
<stop offset="1" stop-color="#2F2F2F" stop-opacity="0"/>
</radialGradient>
<radialGradient id="paint26_radial_915_19146" cx="0" cy="0" r="1" gradientUnits="userSpaceOnUse" gradientTransform="translate(408.779 265.034) rotate(90) scale(67.1166 67.1756)">
<stop stop-color="#C4C4C4"/>
<stop offset="1" stop-color="#DDDDDD"/>
</radialGradient>
<radialGradient id="paint27_radial_915_19146" cx="0" cy="0" r="1" gradientUnits="userSpaceOnUse" gradientTransform="translate(191.221 265.034) rotate(90) scale(67.1166 67.1756)">
<stop stop-color="#C4C4C4"/>
<stop offset="1" stop-color="#DDDDDD"/>
</radialGradient>
<clipPath id="clip0_915_19146">
<rect width="600" height="442" fill="white"/>
</clipPath>
</defs>
</svg>
