<svg width="600" height="442" viewBox="0 0 600 442" fill="none" xmlns="http://www.w3.org/2000/svg">
<path d="M526.145 29.7448L532.061 41.7572C502.849 33.1186 486.579 32.4907 457.824 41.7572C458.296 35.5943 458.902 33.0225 460.496 29.7448C461.482 27.0774 465.821 10.3701 466.603 6.86419C469.824 1.8532 472.784 0.561087 479.389 0C488.97 0.701997 493.255 2.71494 499.237 8.77092C507.561 20.1809 513.671 24.4503 526.145 29.7448Z" fill="#C4C4C4"/>
<path fill-rule="evenodd" clip-rule="evenodd" d="M499.237 8.77092C507.561 20.1809 513.671 24.4503 526.145 29.7448C491.285 22.0943 476.91 22.0936 460.496 29.7448C461.482 27.0774 465.821 10.3701 466.603 6.86419C469.824 1.8532 472.784 0.561087 479.389 0C488.97 0.701997 493.255 2.71494 499.237 8.77092Z" fill="white"/>
</svg>
