<svg width="600" height="442" viewBox="0 0 600 442" fill="none" xmlns="http://www.w3.org/2000/svg">
<path d="M74.0459 29.9355L68.1299 41.9478C97.3417 33.3093 113.612 32.6814 142.367 41.9478C141.895 35.7849 141.289 33.2131 139.695 29.9355C138.709 27.2681 134.37 10.5607 133.588 7.05487C130.367 2.04388 127.407 0.75176 120.802 0.190674C111.221 0.892671 106.936 2.90562 100.954 8.96159C92.6303 20.3716 86.5202 24.641 74.0459 29.9355Z" fill="#C4C4C4"/>
<path fill-rule="evenodd" clip-rule="evenodd" d="M100.954 8.96159C92.6303 20.3716 86.5202 24.641 74.0459 29.9355C108.906 22.285 123.281 22.2843 139.695 29.9355C138.709 27.2681 134.37 10.5607 133.588 7.05487C130.367 2.04388 127.407 0.75176 120.802 0.190674C111.221 0.892671 106.936 2.90562 100.954 8.96159Z" fill="white"/>
</svg>
