<svg width="600" height="442" viewBox="0 0 600 442" fill="none" xmlns="http://www.w3.org/2000/svg">
<path d="M144.847 54.9137C144.847 64.8286 128.054 76.4596 96.3742 76.4596C75.5728 76.4596 56.055 74.8123 54.5804 65.9727C54.0079 62.5406 53.4354 53.7696 53.4354 53.7696C53.4354 53.7696 53.0536 50.3376 55.7254 48.0495C64.1429 42.2917 93.8933 40.0413 96.9468 40.0413C120.611 40.0413 142.557 47.4775 142.557 47.4775C142.557 47.4775 144.847 50 144.847 54.9137Z" fill="#C4C4C4"/>
<path d="M139.122 53.7696C133.899 62.2 122.138 66.5447 94.4659 68.8327C65.1668 71.2554 54.9099 62.6093 53.4354 53.7696C53.4354 53.7696 53.0536 50.3375 55.7254 48.0495C64.1429 42.2917 93.8933 40.0413 96.9468 40.0413C120.611 40.0413 142.557 47.4775 142.557 47.4775C142.557 47.4775 141.603 49.7655 139.122 53.7696Z" fill="white"/>
</svg>
