<svg width="600" height="442" viewBox="0 0 600 442" fill="none" xmlns="http://www.w3.org/2000/svg">
<path d="M455.344 54.723C455.344 64.638 472.137 76.269 503.817 76.269C524.618 76.269 544.136 74.6216 545.611 65.782C546.183 62.3499 546.756 53.579 546.756 53.579C546.756 53.579 547.138 50.1469 544.466 47.8588C536.048 42.101 506.298 39.8506 503.244 39.8506C479.58 39.8506 457.634 47.2868 457.634 47.2868C457.634 47.2868 455.344 49.8093 455.344 54.723Z" fill="#C4C4C4"/>
<path d="M461.069 53.579C466.292 62.0093 478.054 66.354 505.725 68.6421C535.024 71.0647 545.281 62.4186 546.756 53.579C546.756 53.579 547.138 50.1469 544.466 47.8588C536.048 42.101 506.298 39.8506 503.244 39.8506C479.58 39.8506 457.634 47.2868 457.634 47.2868C457.634 47.2868 458.588 49.5749 461.069 53.579Z" fill="white"/>
</svg>
